<?xml version="1.0" encoding="utf-8"?>
<!-- Generator: Adobe Illustrator 25.0.0, SVG Export Plug-In . SVG Version: 6.00 Build 0)  -->
<svg version="1.1" id="Layer_1" xmlns="http://www.w3.org/2000/svg" xmlns:xlink="http://www.w3.org/1999/xlink" x="0px" y="0px"
	 viewBox="0 0 2500 2500" style="enable-background:new 0 0 2500 2500;" xml:space="preserve">
<path d="M19,514.7v1463L778.6,1246C542.5,1020.4,206.8,696.2,19,514.7z M1138.5,1390.9c30.9,26.1,69.7,41.1,110.1,42.5
	c44.3,0,87.2-20.3,127.5-60.4c93.1-92.6,723.3-690.9,1003.9-957H120.3C579.8,860.3,1085,1346.4,1138.5,1390.9z M1711.2,1246.8
	l769.7,741.5V515C2288.1,697.8,1944.3,1024.1,1711.2,1246.8z M1479.4,1469.5c-67.3,67-147,102.5-230.6,102.5
	c-75-0.7-147.4-27.7-204.6-76.1c-16.7-14-71.6-65.1-163.3-152.2l-768.6,740.4h2264.3l-767.8-739.5
	C1540.3,1410.2,1498,1451.2,1479.4,1469.5L1479.4,1469.5z"/>
</svg>
