<?xml version="1.0" encoding="utf-8"?>
<!-- Generator: Adobe Illustrator 25.0.0, SVG Export Plug-In . SVG Version: 6.00 Build 0)  -->
<svg version="1.1" id="Layer_1" xmlns="http://www.w3.org/2000/svg" xmlns:xlink="http://www.w3.org/1999/xlink" x="0px" y="0px"
	 viewBox="0 0 2500 2500" style="enable-background:new 0 0 2500 2500;" xml:space="preserve">
<path d="M2228.9,101.3H271.1c-93.7,0-169.8,73.7-169.8,164.6v1968.4c0,90.8,76.1,164.5,169.8,164.5h1957.9
	c93.8,0,169.8-73.7,169.8-164.5V265.8C2398.7,175,2322.7,101.3,2228.9,101.3z M799.4,2023.9H455.6V989.6h343.8V2023.9z M627.6,848.4
	L627.6,848.4l-2.3,0c-115.4,0-190-79.4-190-178.7c0-101.5,76.8-178.7,194.5-178.7c117.6,0,190,77.2,192.2,178.7
	C822.1,769,747.5,848.4,627.6,848.4z M2039.1,2023.9h-343.8v-553.3c0-139.1-49.8-233.9-174.2-233.9c-95,0-151.6,64-176.4,125.8
	c-9.1,22.1-11.3,53-11.3,83.9v577.6H989.7l0,0c0,0,4.5-937.3,0-1034.3h343.8v146.4c45.7-70.5,127.5-170.7,309.8-170.7
	c226.2,0,395.8,147.8,395.8,465.5V2023.9z"/>
</svg>
