<svg id="Layer_1" data-name="Layer 1" xmlns="http://www.w3.org/2000/svg" width="2500" height="2500" viewBox="0 0 2500 2500">
  <defs>
    <style>
      .cls-1 {
        fill: #00005b;
      }

      .cls-2 {
        fill: #99f;
      }
    </style>
  </defs>
  <g>
    <path class="cls-1" d="M442.71,31.25H2057.29c244.79,0,442.71,197.92,442.71,442.71V2026.04c0,244.79-197.92,442.71-442.71,442.71H442.71C197.92,2468.75,0,2270.83,0,2026.04V473.96C0,229.17,197.92,31.25,442.71,31.25Z"/>
    <path class="cls-2" d="M1004.17,1489.58H616.67L537.5,1735.41c-2.08,9.37-10.42,15.62-19.79,14.58H321.88c-11.46,0-14.58-6.25-11.46-18.75L645.84,769.78c3.12-10.42,6.25-19.79,10.42-32.29a363.5188,363.5188,0,0,0,6.25-67.71c-1.04-5.21,3.12-10.42,8.33-11.46H940.63c7.29,0,12.5,3.12,13.54,8.33l380.21,1062.5c3.13,11.46,0,16.67-10.42,16.67H1106.25c-7.29,1.04-14.58-4.17-16.67-11.46l-85.42-250v5.21ZM677.09,1282.29H941.67c-6.25-21.87-14.58-47.92-23.96-75-9.38-28.12-18.75-58.33-28.12-89.58-10.42-32.29-19.79-63.54-30.21-95.83s-19.79-62.5-28.12-92.71c-8.33-29.17-15.62-56.25-22.92-81.25h-2.08A1279.3341,1279.3341,0,0,1,770.84,982.3c-15.62,50-31.25,102.08-47.92,154.17-13.54,53.12-30.21,102.08-45.83,145.83Zm1270.83,113.54H1617.71c4.17,32.29,14.58,64.58,32.29,92.71,18.75,28.12,44.79,50,76.04,62.5,41.67,17.71,87.5,27.08,133.33,26.04,36.46-1.04,72.92-4.17,108.33-11.46a391.3464,391.3464,0,0,0,92.71-23.96c5.21-4.17,8.33-2.08,8.33,8.33v159.38c0,4.17-1.04,8.33-2.08,12.5a24.251,24.251,0,0,1-7.29,7.29,445.742,445.742,0,0,1-104.17,31.25,704.1639,704.1639,0,0,1-147.92,12.5c-79.17,0-145.83-12.5-200-36.46-51.04-21.88-95.83-56.25-131.25-98.96a382.2013,382.2013,0,0,1-71.87-136.46,539.6256,539.6256,0,0,1,4.16-317.71,425.3145,425.3145,0,0,1,78.12-142.71,377.5417,377.5417,0,0,1,126.04-98.96c48.96-23.96,107.29-32.29,173.96-32.29,55.21-1.04,110.42,9.38,161.46,32.29,42.71,18.75,80.21,46.88,109.38,83.33,27.08,35.42,48.96,75,62.5,118.75a409.77,409.77,0,0,1,19.79,127.08c0,25-1.04,46.88-2.08,66.67-2.08,19.79-3.13,34.38-4.17,43.75-1.04,7.29-7.29,13.54-14.58,13.54-6.25,0-17.71,1.04-34.38,2.08-16.67,2.08-36.46,3.13-60.42,3.13s-48.96-4.17-76.04-4.17Zm-330.21-152.08H1837.5c27.08,0,46.88,0,59.37-1.04,8.33-1.04,16.67-3.13,23.96-8.33v-10.42a119.4449,119.4449,0,0,0-6.25-38.54c-18.75-58.33-73.96-97.92-135.42-95.83a146.6559,146.6559,0,0,0-138.54,79.17,216.0327,216.0327,0,0,0-22.92,75Z"/>
  </g>
</svg>
