<svg id="Layer_1" data-name="Layer 1" xmlns="http://www.w3.org/2000/svg" width="2500" height="2500" viewBox="0 0 2500 2500">
  <defs>
    <style>
      .cls-1 {
        fill: #f90;
      }

      .cls-2 {
        fill: none;
      }

      .cls-3 {
        fill: #252f3e;
      }
    </style>
  </defs>
  <g>
    <path class="cls-1" d="M2258.99,1757.6569c-273.2241,201.8039-670.188,308.9343-1011.5106,308.9343-478.35,0-909.3631-176.89-1234.9067-470.8756-25.7445-23.2532-2.4914-54.8109,28.2359-36.5406C392.9277,1763.47,827.2627,1887.21,1276.5462,1887.21c303.121,0,636.1388-63.1157,942.5818-192.6687,45.6758-20.7617,84.7079,29.8969,39.8624,63.1157Z"/>
    <path class="cls-1" d="M2372.7647,1628.1038c-34.88-44.8453-230.87-21.5922-319.73-10.7961-26.5749,3.3219-30.7273-19.9313-6.6437-37.3711,156.1281-109.6218,412.7428-78.064,442.64-41.5234,29.8969,37.3711-8.3047,293.9859-154.4672,416.8951-22.4227,19.1008-44.0147,9.1353-34.0492-15.7788C2333.7326,1857.3132,2407.6442,1672.1187,2372.7647,1628.1038Z"/>
    <path class="cls-2" d="M414.52,994.4563c-55.6414,0-96.3343,10.7961-123.74,33.2188s-40.6929,53.98-40.6929,95.5038c0,39.032,9.9656,68.0984,30.7273,88.03,19.9313,20.7617,48.9976,30.7273,87.1992,30.7273h0c27.4055,0,55.6415-4.9828,85.5383-14.9484s56.4718-28.236,78.8945-53.15c13.2875-15.7789,23.2531-33.2187,28.2359-53.15s8.3047-44.0148,8.3047-72.2508v-34.88a693.5354,693.5354,0,0,0-76.4032-14.118A625.78,625.78,0,0,0,414.52,994.4563Z"/>
    <path class="cls-3" d="M706.5712,1163.46a214.9972,214.9972,0,0,1-3.0482-47.7552V846.633c0-91.3515-23.2531-159.45-68.9289-204.2953C588.0879,597.4923,515.8372,575.07,417.0114,575.07c-45.6758,0-88.86,4.9827-129.5531,15.7789q-61.04,14.9484-104.6391,37.3711c-11.6266,5.8134-19.1008,11.6266-23.2531,17.44s-5.8133,15.779-5.8133,29.0665v40.693c0,17.44,5.8133,25.7445,17.44,25.7445,3.3219,0,7.4743-.8306,13.2876-2.4915a238.28,238.28,0,0,0,29.0663-10.796,661.7311,661.7311,0,0,1,89.6906-28.236,377.8565,377.8565,0,0,1,89.6906-10.7961c63.9461,0,108.7914,12.457,135.3664,38.2016,25.7445,25.7445,39.032,69.7594,39.032,132.8749v60.6242c-33.2188-7.4741-64.7765-14.1178-95.5039-18.27s-59.7937-6.6437-88.03-6.6437c-85.5383,0-152.8062,21.5921-203.4649,64.7765s-75.5726,100.4866-75.5726,171.0764c0,66.4375,20.7617,119.5874,61.4547,159.45s96.3344,59.7937,166.0937,59.7937q146.993,0,244.1577-114.6047c9.1352,19.1008,17.44,34.88,25.7446,48.9977a256.92,256.92,0,0,0,29.8968,39.0319c8.3047,7.4743,16.6094,11.6266,24.9141,11.6266,6.6437,0,14.1179-2.4914,21.5921-7.4742l52.32-34.88c10.7961-8.3046,15.7789-16.6093,15.7789-24.914a36.1228,36.1228,0,0,0-5.8133-19.1008q-2.5511-4.7376-4.8858-9.3642l-.0007.0044A217.6976,217.6976,0,0,1,706.5712,1163.46ZM568.9871,1048.4367c0,28.236-3.3219,52.32-8.3047,72.2508s-14.9484,37.3711-28.2359,53.15c-22.4227,24.914-48.9976,43.1844-78.8945,53.15s-58.1328,14.9484-85.5383,14.9484h0c-38.2016,0-67.2679-9.9656-87.1992-30.7273-20.7617-19.9313-30.7273-48.9977-30.7273-88.03,0-41.5234,13.2875-73.0812,40.6929-95.5038s68.0984-33.2188,123.74-33.2188a625.78,625.78,0,0,1,78.064,4.9828,693.5354,693.5354,0,0,1,76.4032,14.118Z"/>
    <path class="cls-3" d="M2356.9865,1004.422c-25.7446-34.0493-68.9289-60.6243-128.7227-79.725l-117.9267-37.3712c-44.015-14.1178-74.7421-29.8967-91.3514-45.6757s-24.9142-35.71-24.9142-58.9633c0-34.0491,13.2875-58.1327,39.032-73.9117s63.1157-23.2531,110.4524-23.2531q88.4448,0,159.45,32.3882c14.1181,6.6439,24.9142,9.9657,31.5579,9.9657,12.4571,0,19.1005-9.1351,19.1005-26.575v-39.032q0-17.44-7.4741-27.4053c-4.9827-7.4744-13.2874-14.1181-24.9141-20.7618q-12.457-7.4742-34.88-14.9485c-14.9487-4.9827-30.7275-9.1351-47.337-13.2874-17.44-3.322-34.88-6.6438-53.98-9.1352a416.9015,416.9015,0,0,0-55.6414-3.3219c-36.5408,0-71.4207,4.1522-104.6393,14.1178S1963.3435,611.61,1938.43,630.711a213.5328,213.5328,0,0,0-59.7936,68.0984q-22.4227,39.8627-22.4227,92.182c0,43.1844,14.118,83.8773,41.5235,120.4179,27.4055,37.3711,72.2507,65.6072,132.8749,84.708l120.4179,37.3709c40.693,13.2876,68.9291,27.4055,83.8773,43.1844s22.4228,34.88,22.4228,58.1328c0,34.0492-14.9487,60.6243-43.1843,78.8946s-68.9291,27.4054-121.2485,27.4054a498.7269,498.7269,0,0,1-98.8258-9.9656,451.7189,451.7189,0,0,1-91.3515-29.0664c-8.3047-3.3219-15.7789-6.6437-20.7616-8.3047a47.0283,47.0283,0,0,0-14.9485-2.4914c-12.4571,0-19.1008,8.3047-19.1008,25.7445v42.3539a58.6222,58.6222,0,0,0,4.9827,23.2532c3.322,7.4742,12.4571,15.7789,25.7446,23.2531,21.5924,12.4571,53.9805,23.2531,95.504,33.2187a549.5559,549.5559,0,0,0,127.892,14.9485h.0007c42.3537,0,81.3859-5.8133,118.7569-17.44,35.7105-10.7961,66.4375-25.7446,92.1823-46.5062,25.7442-19.9313,45.6757-44.8454,60.6239-73.0813,14.118-28.236,21.5924-60.6241,21.5924-96.3343C2395.1881,1077.5032,2382.731,1038.4712,2356.9865,1004.422Z"/>
    <path class="cls-3" d="M1768.1837,595.001H1690.95c-14.9484,0-25.7445,3.3218-32.3882,8.3047-5.8134,4.9827-11.6266,15.7788-16.61,32.3882l-143.671,556.414-131.214-556.414c-3.322-15.7788-9.1351-27.4055-15.779-32.3882-6.6438-5.8134-17.44-8.3047-33.2187-8.3047h-66.4375c-14.9484,0-26.5749,3.3218-33.2187,8.3047s-11.6265,15.7788-15.7789,32.3882l-129.5531,549.77-139.5187-549.77c-4.9828-15.7788-9.9656-27.4055-16.6093-32.3882-5.8133-5.8134-16.6094-8.3047-32.3883-8.3047h-81.386c-13.2874,0-19.9312,7.4742-19.9312,20.7618,0,5.8132,2.4914,16.6093,7.4742,33.2186l195.16,641.9522c4.9828,15.7789,10.796,27.4055,17.44,32.3883,6.6438,5.8132,16.6094,8.3047,31.5578,8.3047h71.42c14.9485,0,26.5751-2.4915,33.2188-8.3047s11.6265-16.6094,15.7788-33.2187L1283.19,755.2815l128.7226,535.6521c3.3218,16.6094,9.1349,27.4055,15.7788,33.2187s17.44,8.3047,33.2187,8.3047h71.42c14.1179,0,24.914-3.3219,31.5577-8.3047s12.4571-15.7789,17.44-32.3883l200.1428-641.9521a118.1689,118.1689,0,0,0,5.8134-20.7617c.83-4.9829,1.6608-9.1351,1.6608-13.2874C1788.9453,601.6447,1781.4711,595.001,1768.1837,595.001Z"/>
  </g>
</svg>
