<svg id="Layer_1" data-name="Layer 1" xmlns="http://www.w3.org/2000/svg" width="2500" height="2500" viewBox="0 0 2500 2500">
  <path d="M2496.797,1935.8261c-90.7045,23.0657-146.81,1.0131-197.15-74.5741l-357.9866-495.29-51.7421-68.5738-418.0666,565.5c-47.7679,68.0283-97.8736,97.64-187.0195,73.5611l535.3435-718.6226-498.407-649.1137c85.7173-16.6759,144.94-8.1821,197.5393,68.5738L1890.62,1138.7332,2264.659,640.0145c47.9237-68.0284,99.4321-93.8994,185.4611-68.8076L2256.8666,827.4237l-261.8274,340.921c-31.17,38.9624-26.884,65.6127,1.7923,103.25Zm-2492.9706-730L47.62,990.4423c119.2249-426.2487,607.8135-603.3718,944.76-339.9859,196.916,154.9145,245.8528,374.0391,236.1122,619.5022H118.5317c-16.6759,441.8337,301.3353,708.4923,706.778,572.4357,142.2128-47.7679,225.9819-159.1224,267.9055-298.452,21.2735-69.8206,56.4955-80.73,122.1082-60.7814-33.5077,174.24-109.0947,319.8034-268.8406,410.8974-238.6836,136.3685-579.3709,92.263-758.598-97.25C81.1278,1686.8564,37.0224,1547.5268,17.23,1398.5345c-3.117-24.6242-9.351-48.08-14.0265-71.6908q.6234-60.47.6234-120.9393Zm116.7314-29.6114H1123.606C1117.06,856.7234,918.1182,629.8063,646.2386,627.8582,347.7866,625.52,133.4934,847.0607,120.5578,1176.2151Z"/>
</svg>
