<svg id="Layer_1" data-name="Layer 1" xmlns="http://www.w3.org/2000/svg" width="2500" height="2500" viewBox="0 0 2500 2500">
  <path d="M149.84,1271.0511c76.5772,216.1239,188.5883,421.7531,334.1071,599.399,69.1267,100.7378,170.3123,172.228,265.1461,246.8307h0c93.443,60.5576,197.1768,121.1152,303.5174,152.0065,188.7144,69.0779,391.28,75.6824,589.6627,91.3323,120.8912-.1753,242.2591-8.7734,361.5066-30.133,107.42,11.5747,184.6488-80.2054,281.6419-31.7378,58.8262-52.1636,144.4976-29.2576,203.2657-67.1717,43.4292-147.8142-149.2735-29.3159-210.3369-101.6425-66.2671,78.0361-122.0489-8.4524-202.5655,15.8444-136.9985,6.9351,10.4173-61.3647,6.9158-124.0913-72.502-55.7137-154.6038,76.5091-201.0967,112.0694-114.676-20.6787-228.0876-53.5545-333.28-103.16-119.9577-62.4539-237.62-136.687-324.5071-242.0647C1133.0586,1680.9084,1032.5053,1572.1558,991.0509,1434c-87.646-228.1948-81.9366-475.0451-104.3271-714.6879,8.2773-162.19,179.63,17.42,253.6491-41.1628-25.3669-84.0861-160.595-110.6007-235.2659-144.3129-71.9279-4.9606-98.2577-69.4574-174.9612-74.7292,3.6282-89.99-140.8794-40.443-193.5488-104.6282,51.8424-133.6333-171.4014,3.3167-154.03-112.3808,72.6766-150.4794-221.8433-124.9766-99.0943,7.499,117.9151,66.5978-116.4073,115.581-47.9714,160.2255,21.8166,46.9407-1.6437,99.0846-65.372,107.537-93.3749,8.0728-84.6017,135.5491,6.4779,68.7669,101.5744-32.3117,17.43,12.8389-30.3955,22.06C38.714,639.37-34.42,746.5854,27.9663,844.7361,87.6874,979.8283,103.5415,1130.5024,149.84,1271.0511Zm2238.5377,911.2323c125.8032-.0681,8.4135,18.14-49.4109,17.9456C2273.3318,2184.7151,2368.6035,2185.3474,2388.3777,2182.2834ZM1110.6583,671.1658h0c-12.382,3.55-10.3007-15.1443-19.5212-18.2082C990.905,601.8347,1139.6825,619.7607,1110.6583,671.1658ZM209.4347,1254.3894c52.6569,63.5989,31.9929,98.5848,86.5485,176.4282-70.21-44.35-83.44-150.1626-128.0811-218.5345C119.1237,1095.4477,199.4356,1205.7372,209.4347,1254.3894Zm25.1819,18.5192c-32.6812-11.4-31.1053-62.59-46.2984-89.6206C146.144,1054.3625,244.2168,1233.1464,234.6166,1272.9086ZM259.06,1044.6265l-10.9423-3.9394C161.5411,1001.12,312.614,1023.6365,259.06,1044.6265Zm460.0171,1005.687h-.01c-42.3491-9.036-71.2761-53.1068-101.3018-81.917-88.9785-56.482-146.735-151.1992-195.5819-241.7534-62.9693-95.087-138.5933-190.378-181.5848-301.5531-50.5-115.4833,31.7378,8.5983,43.4388,51.8426,26.4564,84.4071,109.5794,132.9329,117.9832,188.919,92.1591,53.1556,44.9075,139.6635,122.253,164.0869,34.3349-17.44,37.8364,104.4339,110.9121,79.0476-40.6378,19.0154,16.9727,41.406,37.3985,76.84C718.63,1979.5819,819.6982,2087.5857,719.0771,2050.3135ZM337.3974,885.6751c82.3059-2.7429,55.9177,45.6662,9.1039,48.8469-1.0311,3.18-42.7387-9.9793-25.4447-21.4278C449.9041,929.3765,209.882,872.5152,337.3974,885.6751ZM529.6134,1362.13c49.547-20.99,20.416,97.7617,69,112.1374,94.8242,123.7609-65.9555,3.6768-119.5685-8.3356l-.01-.01c6.8767-.4279-47.446-15.3778-24.0248-20.7175-17.1868-17.6832-55.597-81.7422,32.0977-38.8675C556.945,1441.3044,562.8781,1417.7175,529.6134,1362.13Zm156.0818,272.2269c-48.0392-1.3421-62.4637-5.0967,6.04,36.8345-26.9134,21.6807,54.2449,38.9062,26.3883,71.2958,82.6172,64.4771-15.0084,16.2821-50.2381-10.0672h-.01c-20.8535-14.4245-105.7666-43.2442-92.6063-62.26,100.2416,52.6695,25.5128-2.0328-18.6361-37.01,80.7885,19.7838-64.8179-59.8572,12.2166-38.8673,22.76,5.5343-34.5974-47.1349,40.7056-8.7733-74.0969-60.0518,51.8426-10.31,83.58-4.0656,4.4459,18.88-89.7459,16.0784-7.44,52.9127ZM706.87,1867.6486l-20.4649-4.445c-84.5432-67.0937,39.48-47.0083,94.4936-17.6829,120.9887,26.894-25.6878,59.1961-74.0288,22.128Zm234.05,124.0135-13.588-5.2719-15.5917-7.0615c-70.2257-62.4636,147.3575,45.7346,29.18,12.3336Zm1.0309-62.6292-18.889-6.2445c-83.3175-52.2117,104.7456,17.2942,18.8891,6.2448Zm-27.1079-82.5007c-73.7078-16.9731,26.8454-23.6551,45.6176,4.1434,126.9414,20.3483-8.0145,29.2577-45.6174-4.1431Zm-13.8118,19.0733c57.8924,7.8885,58.2037,34.296-5.8359,17.8191-11.38-7.0031-29.7632-6.6138-35.56-21.379-87.967-56.0926,10.3-25.3664,41.3961,3.56Zm334.6907,430.78c-113.781-14.3076-215.2972-61.6275-319.099-106.4668h0c-15.0665-7.1782-29.2575-16.02-43.6236-24.4233-71.354-39.5-62.5223-47.6407,6.8476-8.7151,24.56,19.5212,198.4606,90.6223,115.6486,43.643-35.8034-8.9778-236.861-119.4519-104.3076-71.0622,106.0293,65.5278,228.2533,100.1931,341.47,150.6157,99.6193,13.0432,204.7441,39.5,302.69,18.4514,81.6641,40.832,166.45-10.5532,248.4259,26.4563-181.1374,35.2295-367.547-3.4338-548.0524-28.499Zm42.3008-48.3411c124.85,46.3081-74.5541,15.3389-115.7653-10.68-115.7556-48.9146,94.8244,15.0764,115.7654,10.68Zm183.17-70.5952c61.0538-52.3288,63.2713-26.9036,62.7072,16.1655-54.566,60.1587-22.1959-24.6762-55.9666,8.0049v.01c-31.0953,24.7928-23.6057-14.8235-6.74-24.18Zm154.1662,46.24L1605,2227.0544c-2.8008-34.529,67.4735-40.18,10.36-3.3652Zm91.6534,24.88-15.3292,10.0476c-28.9944-20.1724,88.5316-62.8525,15.33-10.0466Zm399.6738-63.2224c-19.5209,41.0842-140.5545,3.2983-193.663,14.0446l-22.7723-1.39-14.123-2.2371c7.5093-55.9668,166.072-12.0125,230.5588-10.4172ZM880.39,1171.3147c4.9079-7.8,47.8044-12.2182,14.1153,45.4918-26.6507-58.71-38.1086,119.4419-20.99,39.49,47.0474-75.6141,34.7335-4.0656,49.09,29.3256,9.23,69.3309,40.0248,133.3023,49.3623,194.6867,43.4485,43.8181-18.6361,14.1131-18.3833,73.3382,14.1229-17.177,71.8793,24.2288,71.49,85.74,4.7758-97.45,10.3685-22.8477,57.8827,2.4705,39.7623,64.04,69.3311,123.8969,128.5461,176.5662,46.1817,53.4279-2.7428,16.1556,17.294,48.7786,49.1,87.0721,162.7544,137.31,261.09,160.0212,43.1274,56.161,107.8675,112.0792,195.5037,86.5565-74.2137,45.7439,208.9361,58.1941,113.1491,84.0181-49.79,26.9812-96.9933-17.3523-145.5093-14.9985-67.4927-23.2173-174.339-94.5811-246.7142-46.1719-99.9889,62.7073,51.259-69.8367-29.89-10.563-82.3035,98.7112-55.852-61.4219-136.0568-13.554-4.6527-15.3152-71.2982-19.519-20.8617-46.42-45.2089-2.7915-17.041-5.6609-.6323-41.795-19.4046-4.0075-127.34-.2431-169.8256-35.7354-49.9166-64.9346,8.7149-38.5465,60.8688-29.0631-83.5609,14.6873,28.946,62.6974,84.8446,35.9981-25.1917-10.7675-53.924-65.1291-120.3953-112.5751C981.45,1826.8757,904.8733,1800.225,808.58,1755.58c-104.3854-61.89,23.4019-21.7585,59.468,10.8062,104.0547,45.9289,63.1546-64.3606,2.8014-93.1027-57.2089,2.31-77.7118-53.9545-116.34-66.5663,72.2574,5.1124,114.4024-30.794,28.82-108.0935-88.5407-103.3542,36.8735,77.7153-14.7064,54.4494-23.4605-30.9108-5.904-75.1668-80.76-91.2155-.7585,28.6252-10.0669,72.7643-26.4073,12.7224-20.854,3.56-44.7812,26.34-61.88-35.4825,16.1557-70.2937-69.6421-86.3134-82.87-131.2792,74.0384,47.31,107.5465,9.9308,55.0813-41.7172-36.1245-63.0962-41.1629-13.4809-61.248-4.7076-72.6378,74.1553-6.6141-128.0405-38.8674-69.72-32.5646-.8851-13.9285,35.8228-13.3447,81.3042-106.1657-26.359,25.6779,55.83,56.4141,101.0589-48.5453-50.7727-40.2,38.0793-80.7111-4.1338-13.7437-37.34-15.7181-96.3609-83.1329-106.7976,76.6353-26.5923-45.4814-80.4485-35.3075-83.3178,43.896-39.8788,49.4791-94.649,102.3333-8.8317-66.9673-5.35-2.0328,110.3964,14.4438,75.8671-2.5386-59.3319,27.419-121.7277-73.7759-149.1372-29.7632,40.0637-81.1-78.3766-21.6222-53.3015-7.83-78.7365,92.4216-32.38,86.0509-66.413,51.6481-22.6336-62.5224-95.7773-1.206-125.0348,47.1153,28.7322,169.4949-45.2287,87.1886-55.4026,51.5217-.5057,92.7333,22.0113,98.1412-30.1425,41.6586,8.968,154.1753,44.9756,51.969-11.38,32.5642-16.2142,101.5643-30.0942,141.3752-30.6582C898.833,648.8833,878.5336,849.3765,855.9,905.47c37.3306-25.503,30.269,118.1679,18.1207,171.79C894.3161,1050.0708,902.6684,1120.81,880.39,1171.3147ZM545.9538,437.9326c-66.3931-34.5974,13.3546,41.727-42.3589,40.3265-30.0939.4472-85.8563-64.2925-67.473-96.8571C468.6183,395.6418,535.08,402.3238,545.9538,437.9326ZM431.3558,337.5547h-.01l-18.14-.9436C408.44,298.8916,521.21,325.6687,431.3558,337.5547ZM298.7828,233.889c-51.3854-24.1026.5738-115.6878,54.6924-72.6378C417.7871,247.7591,235.492,151.2715,298.7828,233.889ZM419.5086,435.3259c75.1767,57.1826-41.97-.175-89.62,35.7548C254.9161,478.7063,412.1362,428.848,419.5086,435.3259Zm22.3908,74.0384c43.2441.8952,233.5442-85.3505,170.1272-9.0845,53.4745,63.7827,19.9785,49.46-16.6045,8.6085,17.9963,34.79-8.4264,107.55-55.5667,44.7419-33.5663-62.5766-56.1625-32.4215-33.02,8.8236-46.8916-52.6353-149.282-23.6448-225.9174,2.361C227.0679,558.84,421.1048,518.7015,441.8994,509.3643ZM202.4314,689.7338c-20.4157,50.3738,29.3256,66.7825,77.083,75.8671,77.3458-21.4276-50.8894-35.1032,7.5674-55.3928,32.1267-5.9136-102.5276-32.3017,9.61-47.3779,115.0068-19.3462,218.5462-64.37,332.5121-88.0253,102.8387-20.4842,200.2891-32.117,293.3432-24.2386,37.3791,43.5652-28.3142,117.03-96.5557,121.932-83.0064,31.0375-167.219,38.7409-244.2337,48.9732-98.89-12.4694-169.816,76.3147-272.2171,87.5683,27.2926-50.4224-22.39-17.1577-74.35-19.7158,26.3981,101.8855-182.6742-27.1468-59.147-51.6967C83.5064,704.7457,82.163,802.1012,91.8277,857.5654l-6.29-.0581C.6832,748.2389,95.07,703.72,202.4314,689.7338Z"/>
</svg>
