<svg id="Layer_1" data-name="Layer 1" xmlns="http://www.w3.org/2000/svg" width="2500" height="2500" viewBox="0 0 2500 2500">
  <defs>
    <style>
      .cls-1 {
        fill: #de4c36;
      }
    </style>
  </defs>
  <path class="cls-1" d="M2452.8541,1138.6341,1361.3306,47.1693c-62.8223-62.8614-164.7754-62.8614-227.6757,0l-226.66,226.66L1194.524,561.3587c66.8164-22.5781,143.4375-7.4316,196.6992,45.83a191.4173,191.4173,0,0,1,45.43,197.91l277.1,277.1094c67.0411-23.0957,144.3945-8.1543,197.9395,45.4784,74.8339,74.8047,74.8339,196.045,0,270.8985a191.5991,191.5991,0,0,1-312.6856-208.3594L1340.5883,931.808l-.0293,680.0488a193.5574,193.5574,0,0,1,50.6641,36.23c74.8339,74.8047,74.8339,196.0547,0,270.9668-74.8535,74.8242-196.1524,74.8242-270.8985,0-74.834-74.9122-74.834-196.1524,0-270.9571A191.9364,191.9364,0,0,1,1183.03,1606.29V919.9036a189.2367,189.2367,0,0,1-62.7051-41.8066c-56.6992-56.621-70.332-139.8145-41.2792-209.4336L795.608,385.1966,47.1705,1133.5853a161.05,161.05,0,0,0,0,227.7539l1091.543,1091.4843c62.8418,62.871,164.7754,62.871,227.6953,0l1086.4354-1086.416c62.871-62.8906,62.871-164.9121,0-227.7734"/>
</svg>
