<svg id="Layer_1" data-name="Layer 1" xmlns="http://www.w3.org/2000/svg" width="2500" height="2500" viewBox="0 0 2500 2500">
  <defs>
    <style>
      .cls-1 {
        fill: #161614;
      }
    </style>
  </defs>
  <g>
    <path class="cls-1" d="M1250.0048,35.5762C562.4072,35.5762,4.8389,593.0469,4.8389,1280.7422c0,550.1563,356.7773,1016.8945,851.5234,1181.5429,62.2266,11.5234,85.0781-27.0118,85.0781-59.9023,0-29.6875-1.1622-127.7833-1.6894-231.8262-346.416,75.3222-419.5118-146.9141-419.5118-146.9141-56.6406-143.9259-138.2519-182.1876-138.2519-182.1876-112.9687-77.2852,8.5157-75.7031,8.5157-75.7031,125.039,8.789,190.8788,128.32,190.8788,128.32,111.0547,190.3613,291.2891,135.3222,362.3438,103.5157,11.1718-80.4883,43.4472-135.41,79.0527-166.5039-276.5625-31.4942-567.3047-138.2618-567.3047-615.3711,0-135.9375,48.6426-247.0215,128.3008-334.2188-12.93-31.3671-55.5469-158.0078,12.0606-329.5215,0,0,104.56-33.4667,342.51,127.6368,99.3164-27.5977,205.84-41.4258,311.66-41.8946,105.82.4688,212.4219,14.2969,311.9336,41.8946,237.6661-161.1035,342.08-127.6367,342.08-127.6367,67.7734,171.5136,25.1367,298.1543,12.207,329.5215,79.834,87.1973,128.1445,198.2715,128.1445,334.2187,0,478.2422-291.2891,583.5547-568.5547,614.3751,44.6582,38.6425,84.4531,114.4237,84.4531,230.5859,0,166.6015-1.4453,300.6934-1.4453,341.709,0,33.1348,22.4121,71.9629,85.5371,59.7363,494.4727-164.8339,850.8007-631.4063,850.8007-1181.3769,0-687.6953-557.49-1245.166-1245.1563-1245.166"/>
    <path class="cls-1" d="M471.1963,1809.3457c-2.7344,6.1816-12.4805,8.0371-21.3379,3.7989-9.0332-4.0625-14.1113-12.5-11.1817-18.7109,2.6856-6.3671,12.4317-8.1445,21.4453-3.8671,9.0528,4.0526,14.209,12.5683,11.0742,18.7793m61.25,54.6482c-5.9375,5.5078-17.5489,2.9492-25.43-5.752-8.1445-8.6817-9.668-20.2831-3.6426-25.8788,6.123-5.4981,17.3828-2.93,25.5469,5.7617,8.1445,8.7793,9.7265,20.3125,3.5156,25.8788m42.0313,69.9122c-7.6368,5.3027-20.1172.332-27.8223-10.7422-7.6269-11.0644-7.6269-24.3457.166-29.6679,7.7344-5.3223,20.0195-.5371,27.832,10.4493,7.6172,11.26,7.6172,24.541-.1855,29.9707m71.0645,80.9764c-6.8262,7.52-21.3574,5.5078-32.002-4.7656-10.8789-10.0391-13.916-24.2872-7.07-31.8164,6.9043-7.5391,21.5234-5.42,32.2461,4.7657,10.8106,10.0195,14.1114,24.375,6.8359,31.8163m91.8262,27.3438c-2.998,9.7461-17.0019,14.18-31.1035,10.0391-14.082-4.2676-23.3008-15.6933-20.459-25.5469,2.93-9.8145,16.9922-14.4335,31.2012-10,14.0625,4.248,23.3008,15.5859,20.3711,25.5078M841.89,2053.8379c.3516,10.2734-11.6114,18.789-26.416,18.9745-14.8926.3223-26.9337-7.9882-27.09-18.086,0-10.371,11.6894-18.8085,26.5723-19.0527,14.8047-.293,26.9336,7.959,26.9336,18.164m102.6758-3.9354c1.7773,10.02-8.5157,20.3126-23.2129,23.0469-14.4532,2.6368-27.832-3.545-29.6777-13.4766-1.7969-10.2734,8.6914-20.5566,23.1152-23.2227,14.7266-2.5585,27.9,3.4668,29.7754,13.6523"/>
  </g>
</svg>
