<svg id="Layer_1" data-name="Layer 1" xmlns="http://www.w3.org/2000/svg" width="2500" height="2500" viewBox="0 0 2500 2500">
  <defs>
    <style>
      .cls-1 {
        fill: #300;
      }

      .cls-2 {
        fill: #ff9a00;
      }
    </style>
  </defs>
  <g>
    <path class="cls-1" d="M442.7083,31.25H2057.2917C2302.0834,31.25,2500,229.1666,2500,473.9583V2026.0417c0,244.7917-197.9166,442.7083-442.7083,442.7083H442.7083C197.9166,2468.75,0,2270.8334,0,2026.0417V473.9583C0,229.1666,197.9166,31.25,442.7083,31.25Z"/>
    <path class="cls-2" d="M1208.3333,1489.5833h-387.5L741.6667,1734.375c-2.0833,9.375-10.4167,15.625-19.7917,14.5833H526.0416c-11.4583,0-14.5833-6.25-11.4583-18.75L850,764.5833c3.125-10.4167,6.25-21.875,10.4166-34.3751a363.846,363.846,0,0,0,6.25-67.7083c-1.0416-5.2083,3.125-10.4167,8.3334-11.4583h269.7916c8.3333,0,12.5,3.125,13.5417,8.3333l380.2084,1072.9167c3.125,11.4584,0,16.6667-10.4167,16.6667H1310.4168c-7.2917,1.0417-14.5834-4.1666-16.6667-11.4584ZM881.25,1278.125h264.5833c-6.25-21.875-14.5833-47.9167-23.9583-75-9.3751-28.125-18.75-58.3333-28.125-89.5833-10.4167-32.2917-19.7917-63.5417-30.2084-95.8333s-19.7916-62.5-28.1249-92.7084c-8.3334-29.1667-15.625-56.25-22.9167-81.25h-2.0833A1279.0211,1279.0211,0,0,1,975,978.125c-15.625,50-31.25,102.0834-47.9167,154.1667C912.5,1185.4167,896.875,1234.3751,881.25,1278.125Zm889.5833-444.7917c-34.375,1.0417-67.7083-12.5-92.7082-36.4583a135.3234,135.3234,0,0,1-35.4166-95.8333c-1.0418-35.4167,12.5-68.75,37.5-92.7084s58.3334-36.4583,92.7083-36.4583c40.6249,0,71.8749,12.5,94.7917,36.4583a131.5108,131.5108,0,0,1,34.3751,92.7084c1.0417,35.4167-11.4584,69.7916-36.4584,95.8333-23.9583,25-59.3749,38.5416-94.7917,36.4583ZM1654.1667,1737.5V935.4167c0-10.4167,4.1666-14.5834,13.5417-14.5834h206.25c9.375,0,13.5417,5.2084,13.5417,14.5834V1737.5c0,11.4584-4.1666,16.6668-13.5417,16.6668H1669.7917C1659.375,1754.1668,1654.1667,1747.9167,1654.1667,1737.5Z"/>
  </g>
</svg>
