<svg id="Layer_1" data-name="Layer 1" xmlns="http://www.w3.org/2000/svg" width="2500" height="2500" viewBox="0 0 2500 2500">
  <defs>
    <style>
      .cls-1 {
        fill: #f0db4f;
      }

      .cls-2 {
        fill: #323330;
      }
    </style>
  </defs>
  <g>
    <path class="cls-1" d="M0,0H2500V2500H0Z"/>
    <path class="cls-2" d="M2295.39,1903.7547c-18.2985-114.0685-92.6806-209.8384-312.9753-299.1921-76.5209-35.1711-161.8345-60.3588-187.2623-118.346-9.03-33.7452-10.2186-52.7566-4.5152-73.1939,16.3974-66.3023,95.5323-86.9771,158.27-67.9657,40.3992,13.5457,78.66,44.6793,101.7109,94.3442,107.89-69.8645,107.6521-69.3917,182.9848-117.3931-27.5665-42.7756-42.3-62.5024-60.3612-80.7984-64.8764-72.481-153.28-109.7909-294.6768-106.9392-24.4772,3.0893-49.19,6.414-73.6692,9.5057-70.5774,17.8232-137.8327,54.8955-177.2813,104.5627-118.346,134.2681-84.6007,369.2942,59.4106,466.0171,141.8727,106.4638,350.2851,130.7034,376.9012,230.2757,25.9031,121.9106-89.5888,161.3569-204.3726,147.3384-84.6007-17.5856-131.6516-60.5989-182.51-138.7833-93.6287,54.1824-93.6287,54.1824-189.874,109.5531,22.8137,49.905,46.8132,72.481,85.076,115.732,181.0837,183.6977,634.2657,174.6673,715.5419-103.3745C2291.1122,2065.5893,2312.9777,2001.901,2295.39,1903.7547ZM1359.078,1149.0018h-233.84c0,201.9963-.9481,402.5665-.9481,604.5627,0,128.5646,6.6539,246.4354-14.2586,282.5571-34.22,71.0527-122.8612,62.2624-163.26,48.4767-41.1121-20.2-62.0247-48.9543-86.2642-89.5888-6.654-11.6446-11.6445-20.675-13.31-21.3879q-95.1723,58.1035-190.1141,116.4449c31.6088,64.8764,78.1844,121.1977,137.8327,157.7923,89.116,53.47,208.8878,69.8669,334.1279,41.1121,81.5114-23.7643,151.8512-72.9538,188.6858-147.8112,53.232-98.1464,41.825-216.9677,41.35-348.384,1.1883-214.3536,0-428.7073,0-643.7737Z"/>
  </g>
</svg>
