<svg id="Layer_1" data-name="Layer 1" xmlns="http://www.w3.org/2000/svg" width="2500" height="2500" viewBox="0 0 2500 2500">
  <defs>
    <style>
      .cls-1 {
        fill: #850000;
      }
    </style>
  </defs>
  <g>
    <path class="cls-1" d="M1364.27,767.8c-32.7093,1.3661-87.9793,10.1485-87.9793,13.8565,0,1.5418,38.9544,21.0581,41.94,21.0581,2.7323,0,47.9515,22.5608,58.0023,28.806,13.1149,8.3919,22.5023,16.0033,19.7505,16.0033-1.7564,0-48.1857-17.9745-65.7893-25.5273-14.325-6.03-73.8691-23.79-102.8507-30.64-15.6911-3.669-22.3266-5.0352-49.0053-9.9142-39.3448-7.182-85.6178-7.6114-105.7391-.9954-28.8255,9.3678-35.3049,20.8824-35.3049,63.35,0,23.4195,1.1514,33.3142,6.2452,54.3527,2.2248,9.1532,8.47,29.2744,11.378,36.0661.8392,2.1468,3.5714,8.7823,5.8548,14.6372,2.3615,5.7963,9.4654,20.8043,15.7106,33.08,35.0708,69.6145,87.5889,127.6363,161.6141,178.6908,23.3415,16.0033,86.7693,46.3511,112.2185,53.6111,6.4794,1.7565,8.6262,5.4061,3.3567,5.4061-5.8549,0-59.5246-14.7934-70.5122-19.4382q-6.27-2.78-12.7246-5.1133c-38.1933-15.3983-86.9839-47.1122-127.324-83.1782a417.2593,417.2593,0,0,1-103.67-141.63c-15.4763-34.934-25.9956-75.6254-28.5913-111.0865-1.5222-20.2773-3.1226-25.1564-8.392-24.9222-1.7564,0-18.4428-.605-36.8272-1.6C915.6306,830.5255,847.3237,836.0291,779.7,847.7,650.4048,869.7141,510.9026,920.5735,367.3411,998.092q-35.8123,19.39-70.7464,40.34c-2.7323,1.6-11.3585,6.85-19.204,11.7292-7.787,4.8791-16.9987,10.3046-20.3555,12.4319-7.4162,4.3521-89.5015,60.071-99.3377,67.4677-3.6691,2.6737-13.8761,10.285-22.4827,16.55-38.9738,28.806-123.811,98.03-128.69,105.056-2.3615,3.5129,1.3661,5.2694,6.4013,3.5129,2.5957-1.0148,9.2312-2.3809,14.5591-3.1226,5.4841-.8587,19.5943-4.5082,31.3236-8.392,11.9049-3.7471,24.7076-7.6308,28.3766-8.6261,29.04-6.7917,40.789-9.1532,57.7681-11.6707,7.7089-.9758,19.0674-2.7323,25.4687-3.7276,79.5873-11.6708,117.5659-14.5592,153.0074-11.905,76.9916,6.2452,150.646,19.38,192.8011,34.31,31.5578,11.3585,95.7467,46.0584,123.9672,66.8627,16.3156,12.2952,68.7558,64.5012,80.3484,80.27,8.9775,12.51,18.97,23.4195,21.3313,23.4195.7806,0,1.7564-39.8132,1.9907-88.2915l.5269-88.0573,103.0849-.5855c81.11-.39,103.5922.2147,104.9779,1.9516,1.9712,2.5371,6.6941,10.9291,22.1705,39.5009,14.7153,27.5179,21.9558,40.789,26.464,48.7126,2.342,4.3521,7.7675,14.4225,12.3538,22.4242,4.2545,8.0016,12.2562,22.7949,17.76,32.9239,5.484,10.1484,9.9728,18.7551,9.9728,19.1259,0,1.7565,8.08,12.2953,9.4654,12.2953.7612,0,2.7323-2.986,4.0984-6.2452,1.5418-3.5129,5.66-11.3,9.0166-17.1743,3.5129-5.8549,9.7581-17.2914,14.0907-25.2931,4.3521-8.0016,10.2265-19.1259,13.3491-24.3953,8.6067-15.4179,17.6036-32.1042,25.0783-45.7461q11.89-22.6118,24.4733-44.8484a110.4664,110.4664,0,0,1,6.6355-11.28c1.6-1.7565,24.6881-2.3615,108.1787-1.9906l105.9732.605.5855,172.0748c.39,135.54.9367,171.8406,2.9275,171.8406,1.1319-.2342,8.9774-4.7425,17.0572-10.3827,11.3584-7.9236,16.2375-12.8026,21.5068-21.8,11.9635-20.4335,45.8827-52.5962,68.6-65.1061a323.1125,323.1125,0,0,1,88.1354-33.0606c31.3236-6.6355,40.5548-7.6113,111.6915-10.1484,129.8221-4.4888,149.0261-5.2694,150.0213-6.2452.605-.527-1.1319-5.64-3.7276-11.5146-2.7323-5.64-7.4161-16.1595-10.7535-23.1658-12.3538-26.6787-12.3538-35.6172.605-48.7126,8.7822-9.1726,31.48-17.1743,70.5122-24.9417,6.4209-1.3662,14.5-3.1226,17.76-4.2546a42.862,42.862,0,0,1,9.2312-1.7565c4.9571,0,43.9116-9.5434,52.1474-12.666,5.66-2.342,36.2222-8.9775,72.659-16.0033,15.8471-3.1226,57.0264-11.28,91.1018-18.15,21.5655-4.2545,44.0678-8.7627,49.9226-9.9142,5.8744-1.132,14.3444-2.8884,18.6185-3.6495,4.3326-.9758,9.9728-2.2054,12.7246-2.5957,2.7323-.5269,16.4718-3.2787,30.4063-6.1671q15.6729-3.438,31.4992-6.1086c9.8361-.9173,83.7052-18.6771,100.7038-24.1611,27.069-8.7824,35.0706-12.2758,52.1473-23.7123,18.3649-12.49,23.4781-19.2821,41.6868-55.5823,20.2189-40.3205,23.1072-47.1122,28.8254-64.1108,8.7823-27.05,8.2358-37.3541-2.9664-48.7126-7.8651-7.7675-24.7076-15.7691-36.9833-17.5256-9.2117-1.1515-10.4412-.7807-14.93,4.0984-2.7518,2.9274-5.1133,6.4209-5.1133,7.6309,0,1.7564-3.1226,10.3045-11.9049,31.3431-.8392,2.1467-2.5762,7.3966-3.9619,11.6512a120.4506,120.4506,0,0,1-4.879,13.6614c-2.5176,5.4645-2.7323,4.4887-1.7564-10.6754.9954-15.0275,3.5129-27.6741,9.2312-46.82a134.9227,134.9227,0,0,0,2.9079-13.798l.9759-7.0259-20.3554-8.1382c-21.1751-8.7823-39.4228-16.3937-49.9226-21.1166-3.5909-1.2881-12.3538-4.801-19.5943-7.5528-7.4747-2.7323-16.4717-6.2452-20.1993-8.0017q-10.1916-4.51-20.59-8.5286c-13.1149-5.1132-58.939-20.6677-97.9715-32.9434q-39.0858-11.9862-78.28-23.6147-13.7951-3.509-27.44-7.5723c-3.1227-.8392-10.8316-2.9664-16.706-4.4887-34.4657-9.5239-43.4431-11.9049-55.8165-15.4178q-10.2274-2.9448-20.57-5.4646c-3.7277-.9173-13.8566-3.2787-22.4828-5.4255-15.1056-3.7276-78.3772-18.2867-112.6868-26.1518l-24.4734-5.64c-4.3326-.9758-12.1-2.5176-17.6036-3.5129-5.328-.9758-16.4718-3.1226-24.5515-4.8791-8.0018-1.5027-25.2345-4.879-38.1934-7.0063-12.8808-2.2834-28.3571-5.0157-34.2314-6.011-54.1186-9.7581-57.7681-10.3046-154.7639-21.0385-59.7587-6.7917-140.1267-12.51-159.7015-11.5146-3.1226,0-20.4921.7611-38.3493,1.7565ZM1137.7842,863.84c51.7571,16.784,102.07,39.5789,136.5358,61.8275,27.44,17.7012,61.5152,45.98,70.7464,58.6268l3.8837,5.2694-7.3967-2.908c-4.0984-1.7564-12.7246-5.4645-19.204-8.6066-34.4656-16.0033-38.1933-17.3109-38.1933-13.798,0,.9173,8.0017,13.798,17.6037,28.201,9.8361,14.6372,17.6036,27.5179,17.6036,28.6889,0,.9758-3.6494-.6246-8.2358-3.7472-17.6036-12.061-58.939-29.4305-61.281-25.9176-.6049.9759,12.1,17.1353,28.4352,36.0466,16.0033,18.9112,29.3524,35.0707,29.3524,36.3,0,2.8884-3.1227,2.4981-17.9939-2.986-15.32-5.406-19.204-6.011-19.204-2.2834,0,2.5176,33.08,47.1122,46.1949,62.5106,3.7276,4.274,6.6941,8.392,6.6941,9.3678,0,4.6643-45.8827-25.137-78.3577-50.84-46.4487-37.0418-91.3361-86.75-114.9507-127.8314-19.4578-33.568-26.0933-51.62-26.0933-71.5271,0-11.6512.5464-14.0126,4.8791-18.15,2.5371-2.6542,5.7182-4.879,6.87-4.879C1116.8043,857.2042,1126.6405,860.19,1137.7842,863.84Zm618.49,69.38c18.7551,3.3568,44.4385,7.787,56.7923,9.9924,12.3539,2.1467,27.44,4.6448,33.3143,5.64,5.8744,1.1514,14.2469,2.6737,18.599,3.6495,4.2936.9953,12.7441,2.7518,18.6186,4.1179,19.36,4.2936,24.0831,5.2694,55.797,12.6661,34.0754,8.0016,41.55,9.5239,51.9133,11.6512,8.8409,1.7565,17.6036,5.1133,17.6036,6.6355,0,.6245-6.4014,4.3521-14.2469,8.392-16.0813,8.0017-19.4382,8.6067-85.6178,11.1243-45.0435,1.9126-69.1461,1.3661-91.1019-2.1468-44.3018-6.8307-67.1554-19.2625-84.9933-46.1755-6.2452-9.1531-10.3631-11.9049-24.7075-15.5544-5.2694-1.6-13.33-3.7471-17.6037-5.1133-4.3521-1.3661-11.7487-3.5129-16.4718-4.879-14.11-3.65-6.089-5.7964,22.3461-5.7964C1716.09,927.4236,1729.8293,928.7312,1756.2738,933.22Zm235.6391,272.2518a10.54,10.54,0,0,1-4.879,0c-1.3662-.6246-.39-.9954,2.3615-.9954,2.6737,0,3.6691.39,2.537.9758Zm-8.4505,2.2834c0,.9758-2.2833,2.3419-5.2693,2.9665-6.089,1.5222-29.9575,8.3919-37.8029,10.89-2.7518.9954-11.5927,3.7471-19.5943,6.05-20.1994,5.8548-69.146,21.78-82.2609,26.8934-24.7076,9.3677-82.71,40.1059-90.8676,48.3417-12.1977,11.8854-15.9448,24.688-14.11,49.2395.527,10.3631,1.9126,23.42,3.1227,29.04,2.3615,12.2953.9759,15.6325-3.7276,9.5434-4.7229-6.0305-14.7153-27.83-17.6232-38.5836-1.6-4.801-3.3372-11.28-4.3326-14.403-3.513-11.0657-2.1468-24.1806,3.3567-32.1042,7.3966-11.3585,34.0754-29.4305,65.3989-44.4386,14.8714-7.24,58.1585-22.0533,97.9715-33.7045,8.0018-2.342,16.8425-5.0937,19.5943-5.8549C1925.5188,1212.0877,1983.4626,1202.9346,1983.4624,1207.7551ZM1363.9,1220.8505a4.0571,4.0571,0,0,1-3.7472.1561c-1.6-.527-.9758-1.132,1.1515-1.132C1363.5091,1219.6405,1364.6605,1220.265,1363.9,1220.8505Z"/>
    <path class="cls-1" d="M953.0629,1597.69v136.38h97.5813c73.264,0,98.1082-.5855,99.8646-2.3419,2.9665-2.9275,3.591-270.4172.605-270.4172-.9758,0-2.3419,1.5223-2.9665,3.2787-.7806,1.7565-22.1119,35.0708-47.5806,74.0252-40.3205,61.5932-51.5229,76.6012-51.5229,68.99,0-1.3661-66.7846-105.5829-83.8613-130.7589a72.7006,72.7006,0,0,1-6.03-10.2851c-1.6-2.9664-3.5129-5.2694-4.4887-5.2694C953.8241,1461.2906,953.0629,1522.6693,953.0629,1597.69Z"/>
  </g>
</svg>
