<svg id="Layer_1" data-name="Layer 1" xmlns="http://www.w3.org/2000/svg" width="2500" height="2500" viewBox="0 0 2500 2500">
  <defs>
    <style>
      .cls-1 {
        fill: #599636;
      }

      .cls-2 {
        fill: #6cac48;
      }

      .cls-3 {
        fill: #c2bfbf;
      }
    </style>
  </defs>
  <g>
    <path class="cls-1" d="M1242.2065,11.571l66.4592,124.825a372.9235,372.9235,0,0,0,50.1946,62.4125,1743.641,1743.641,0,0,1,155.9534,176.3426c112.6072,147.86,188.5605,312.0625,242.8017,489.65,32.5292,108.4826,50.1946,219.7668,51.5176,332.296,5.4475,336.4205-109.8834,625.2923-342.4127,865.37a988.33,988.33,0,0,1-122.179,104.4358c-23.035,0-33.93-17.6653-43.4242-33.93a279.2988,279.2988,0,0,1-33.93-97.6654c-8.1712-40.7005-13.5408-81.4008-10.8949-123.4243v-18.9883c-1.8677-4.0467-22.179-1871.7524-14.0856-1881.3243Z"/>
    <path class="cls-2" d="M1242.2065,7.4465c-2.7237-5.4475-5.4474-1.323-8.1712,1.323,1.323,27.2373-8.1712,51.5175-23.035,74.7082-16.3424,23.035-37.9767,40.7-59.6888,59.6888C1030.6889,247.6023,935.7471,373.75,859.716,514.84,758.5486,704.7233,706.4085,908.2254,691.6225,1122.4668c-6.77,77.2763,24.4358,349.9613,48.7938,428.6384,66.4592,208.8718,185.8367,383.8914,340.4672,535.7981,37.9767,36.5759,78.5993,70.5059,120.6227,103.113,12.2179,0,13.5408-10.8949,16.3424-18.9883a371.9858,371.9858,0,0,0,12.2179-52.9183l27.2373-203.4244Z"/>
    <path class="cls-3" d="M1308.6657,2249.5494c2.7237-31.1284,17.6653-56.9651,33.93-82.7238-16.3424-6.77-28.4825-20.2335-37.9768-35.2529a251.7548,251.7548,0,0,1-20.2335-44.7471c-18.9883-56.9651-23.035-116.7317-28.4824-174.9418V1876.631c-6.7705,5.4474-8.1712,51.5176-8.1712,58.3658a1351.7562,1351.7562,0,0,1-24.4358,183.113c-4.0467,24.4358-6.7705,48.7939-21.79,70.5059a27.009,27.009,0,0,0,1.3229,9.4942c24.4359,71.9066,31.1284,145.1362,35.253,219.7666v27.2374c0,32.5292-1.323,25.681,25.681,36.5759,10.8949,4.0467,23.035,5.4474,33.93,13.541,8.1712,0,9.4941-6.77,9.4941-12.2179l-4.0467-44.7472v-124.825c-1.3229-21.79,2.7238-43.4242,5.4475-63.8132Z"/>
  </g>
</svg>
