<svg id="Layer_1" data-name="Layer 1" xmlns="http://www.w3.org/2000/svg" width="2500" height="2500" viewBox="0 0 2500 2500">
  <path d="M1168.46,5.48c-5.3549.4868-22.3931,2.1906-37.7275,3.4076-353.6649,31.8859-684.9367,222.714-894.75,516.0149C119.1487,687.9824,44.4239,872.9689,16.1891,1068.9085c-9.98,68.3963-11.1966,88.5988-11.1966,181.3354s1.217,112.9392,11.1966,181.3354c67.6661,467.5776,400.3983,860.43,851.6679,1005.9856,80.81,26.0441,166.001,43.8125,262.8755,54.5223,37.7275,4.1379,200.8077,4.1379,238.5352,0,167.218-18.4985,308.8787-59.8771,448.5921-131.1944,21.4195-10.9531,25.5573-13.874,22.6365-16.308-1.9472-1.46-93.2234-123.8923-202.7549-271.8815l-199.1038-268.9605L1189.1493,1434.5c-137.2794-202.9982-250.2185-368.9993-251.1922-368.9993-.9736-.2434-1.9472,163.81-2.434,364.1313-.73,350.744-.9736,364.8615-5.3549,373.1371-6.3285,11.9268-11.1966,16.7949-21.4195,22.15-7.7889,3.8944-14.6042,4.6248-51.3581,4.6248H815.2819l-11.1966-7.0588a45.5136,45.5136,0,0,1-16.308-17.7684l-5.1115-10.9531.4868-488.0235.73-488.2669,7.5455-9.4927c3.8945-5.1115,12.17-11.6834,18.0119-14.8476,9.98-4.8681,13.874-5.3549,55.9827-5.3549,49.6542,0,57.93,1.9471,70.83,16.0646,3.651,3.8944,138.74,207.38,300.36,452.4865s382.63,579.7865,491.1878,744.0837l197.1566,298.6558,9.9795-6.5719c88.3553-57.4431,181.8222-139.2267,255.8167-224.4178,157.482-180.8486,258.9811-401.372,293.0576-636.5,9.9795-68.3962,11.1965-88.5988,11.1965-181.3354s-1.217-112.9391-11.1965-181.3354c-67.6661-467.5776-400.3983-860.43-851.6678-1005.9855C1552.55,37.1219,1467.846,19.3535,1372.9187,8.6438,1349.5521,6.21,1188.6624,3.5323,1168.46,5.48Zm509.6864,753.09c11.6834,5.8416,21.1761,17.0382,24.5837,28.7215,1.9472,6.3285,2.434,141.6607,1.9472,446.645l-.73,437.639-77.1588-118.294-77.4022-118.2939V1116.859c0-205.6758.9736-321.2923,2.434-326.89,3.8944-13.6306,12.4135-24.34,24.097-30.6689,9.9794-5.1114,13.6305-5.5982,51.8448-5.5982,36.0237,0,42.3523.4868,50.3845,4.8681Z"/>
</svg>
