<svg id="Layer_1" data-name="Layer 1" xmlns="http://www.w3.org/2000/svg" width="2500" height="2500" viewBox="0 0 2500 2500">
  <defs>
    <style>
      .cls-1 {
        fill: #8cc84b;
      }
    </style>
  </defs>
  <g>
    <path class="cls-1" d="M1148.0856,31.9734c61.72-35.328,142.11-35.4876,203.7766,0q465.3589,262.9521,930.7623,525.7358c58.3422,32.8635,97.3671,97.7926,96.7731,165.0178V1777.4078c.4344,70.0089-42.4468,136.4894-103.9982,168.6082q-463.83,261.5025-927.4469,523.2181c-62.9965,36.0194-145,33.2446-206.0283-5.727q-139.056-80.6118-278.28-160.9042c-18.945-11.2942-40.3014-20.2836-53.6791-38.6525,11.8263-15.94,32.97-17.9255,50.1507-24.8848,38.6968-12.3049,74.2376-32.0567,109.7873-51.2234,8.9893-6.1525,19.9645-3.7943,28.5815,1.7109,79.2731,45.4522,157.8458,92.2251,237.3848,137.2429,16.968,9.7961,34.1489-3.2093,48.6525-11.2943q455.16-257.2473,910.6383-513.9007c11.2412-5.4078,17.4557-17.34,16.5426-29.6543q.3191-521.8749.1063-1043.8121c1.2855-13.9716-6.8-26.8174-19.4327-32.5354q-462.2208-260.3059-924.2288-520.922a32.101,32.101,0,0,0-36.2943-.0532Q769.7126,435.0762,307.731,695.75c-12.5886,5.727-21.0372,18.36-19.539,32.3848q.08,521.875,0,1043.8654a29.5123,29.5123,0,0,0,16.7553,29.2818q123.3245,69.9336,246.8085,139.38c46.3476,24.9467,103.2536,39.7694,154.3174,20.656,45.0621-16.1613,76.649-62.1453,75.789-109.9911.4255-345.8865-.2127-691.8262.3192-1037.66-1.1259-15.3546,13.44-28.0408,28.3688-26.5958,39.5035-.2659,79.06-.5319,118.5638.1064,16.4894-.3723,27.8369,16.1614,25.7979,31.6312-.1595,348.0764.4255,696.1614-.2659,1044.2377.1064,92.766-38.0054,193.7057-123.8121,239.0958-105.7092,54.7606-236.3653,43.1472-340.7979-9.3617-90.4078-45.1241-176.6844-98.3777-265.4876-146.72-61.711-31.9416-104.3795-98.6881-103.9451-168.6437V722.727c-.6471-68.617,39.9291-134.7252,100.0887-167.11Q684.4421,293.9017,1148.0856,31.9734Z"/>
    <path class="cls-1" d="M1417.8019,762.5585c134.8405-8.6791,279.1933-5.1419,400.532,61.2855,93.9451,50.9042,146.0284,157.7393,147.6862,262.11-2.6242,14.078-17.34,21.844-30.78,20.8777-39.1223-.0531-78.2535.5319-117.3759-.2659-16.5957.6383-26.2412-14.6631-28.3245-29.3351-11.2412-49.938-38.4752-99.3972-85.4788-123.4841-72.1543-36.1258-155.8156-34.3085-234.4947-33.555-57.438,3.05-119.2021,8.0231-167.8634,41.8-37.3582,25.5851-48.7057,77.234-35.3724,118.83,12.5709,29.8671,47.0479,39.5036,75.257,48.3865,162.5,42.5,334.6986,38.2713,494.0958,94.2022,65.9929,22.8015,130.55,67.1277,153.1383,136.2234,29.5478,92.6064,16.5957,203.2978-49.2908,277.6419-53.4308,61.1791-131.25,94.477-208.8652,112.5622-103.2536,23.023-210.4078,23.6081-315.266,13.3864-98.5992-11.2411-201.2056-37.1454-277.3226-104.3263-65.0887-56.5159-96.8795-144.5744-93.7234-229.5656.7535-14.3529,15.0443-24.3617,28.7943-23.1827,39.3972-.3191,78.7943-.4255,118.1915.0532,15.7358-1.1259,27.4025,12.4734,28.2092,27.305,7.27,47.58,25.1507,97.5177,66.64,125.727,80.0709,51.6578,180.5408,48.12,272.2252,49.5656,75.9574-3.3688,161.2234-4.3882,223.2091-54.5922,32.7039-28.6347,42.3936-76.5426,33.555-117.7572-9.5744-34.7961-45.9752-51.0106-77.2341-61.6134-160.4166-50.7447-334.5389-32.3316-493.4042-89.7163-64.4947-22.7925-126.8617-65.8866-151.64-132.1454-34.5745-93.7767-18.7323-209.77,54.06-281.6047,70.9751-71.4538,173.4308-98.9716,270.8422-108.8209Z"/>
  </g>
</svg>
