<svg id="Layer_1" data-name="Layer 1" xmlns="http://www.w3.org/2000/svg" width="2500" height="2500" viewBox="0 0 2500 2500">
  <defs>
    <style>
      .cls-1 {
        fill: #001e36;
      }

      .cls-2 {
        fill: #31a8ff;
      }
    </style>
  </defs>
  <g>
    <path class="cls-1" d="M442.7083,31.25H2057.2917C2302.0834,31.25,2500,229.1666,2500,473.9583V2026.0417c0,244.7917-197.9166,442.7083-442.7083,442.7083H442.7083C197.9166,2468.75,0,2270.8334,0,2026.0417V473.9583C0,229.1666,197.9166,31.25,442.7083,31.25Z"/>
    <path class="cls-2" d="M562.5,1740.6251V668.75c0-7.2917,3.125-11.4583,10.4166-11.4583,17.7084,0,34.375,0,58.3334-1.0417,25-1.0416,51.0416-1.0416,79.1666-2.0833s58.3333-1.0417,90.625-2.0834,63.5416-1.0416,94.7916-1.0416c85.4167,0,156.25,10.4167,214.5834,32.2916A371.9825,371.9825,0,0,1,1250,768.75a331.6655,331.6655,0,0,1,76.0417,118.75C1341.6665,931.25,1350,976.0417,1350,1022.9167q0,134.375-62.5,221.875c-41.6667,58.3333-100,102.0833-167.7083,127.0833-70.8334,26.0416-148.9584,35.4166-234.375,35.4166-25,0-41.6667,0-52.0834-1.0418s-25-1.0417-44.7917-1.0417v334.3752c1.0417,7.2917-4.1666,13.5417-11.4583,14.5833H575c-8.3333,0-12.5-4.1666-12.5-13.5417ZM789.5834,858.3334v350c14.5833,1.0417,28.1249,2.0833,40.625,2.0833h55.2083a389.1026,389.1026,0,0,0,119.7916-18.75c33.3333-9.375,62.5-29.1667,85.4167-55.2084,21.8749-26.0416,32.2916-61.4583,32.2916-107.2917a171.4491,171.4491,0,0,0-23.9584-92.7083c-17.7083-27.0833-42.7083-47.9167-72.9166-59.375-38.5417-15.625-80.2083-21.875-122.9167-20.8333-27.0833,0-51.0417,0-70.8334,1.0416-20.8333-1.0416-35.4167,0-42.7083,1.0417ZM2000,1144.7917c-31.25-16.6667-64.5833-28.125-100-35.4167-38.5417-8.3334-77.0833-13.5417-116.6667-13.5417-20.8333-1.0417-42.7084,2.0833-62.5,7.2916-13.5417,3.1251-25,10.4167-32.2917,20.8334a55.2069,55.2069,0,0,0-8.3334,28.1249c0,9.375,4.1666,18.75,10.4167,27.0834C1700,1190.6249,1712.5,1200,1726.0415,1207.2915,1750,1219.7915,1775,1231.25,1800,1241.6666a754.4807,754.4807,0,0,1,160.4166,76.0417c34.375,21.8749,62.5,51.0416,82.2916,86.4582a224.8708,224.8708,0,0,1,23.9584,107.2917A242.3647,242.3647,0,0,1,2026.0415,1650a261.0329,261.0329,0,0,1-116.6666,92.7083c-51.0416,21.8751-113.5416,33.3333-188.5417,33.3333-47.9168,0-94.7918-4.1666-141.6668-13.5417a420.1869,420.1869,0,0,1-106.25-33.3333c-7.2917-4.1666-12.5-11.4584-11.4584-19.7916v-181.25c0-3.1251,1.0417-7.2917,4.1666-9.375s6.25-1.0417,9.3749,1.0418a445.9039,445.9039,0,0,0,129.1666,51.0416,484.94,484.94,0,0,0,122.9167,15.625c39.5834,0,67.7083-5.2084,86.4584-14.5833,16.6667-7.2916,28.1249-25,28.1249-43.75,0-14.5832-8.3333-28.1249-25-41.6666s-51.0416-29.1667-102.0834-48.9583a637.3371,637.3371,0,0,1-147.9166-75,269.7177,269.7177,0,0,1-79.1667-88.5417,223.5106,223.5106,0,0,1-23.9584-106.25c0-44.7917,12.5-87.5,35.4166-126.0417,26.0417-41.6667,64.5833-75,109.375-95.8333,48.9583-25,110.4167-36.4583,184.375-36.4583a898.016,898.016,0,0,1,129.1666,9.375,366.5183,366.5183,0,0,1,89.5834,23.9583c4.1666,1.0417,8.3333,5.2084,10.4167,9.3751,1.0417,4.1666,2.0833,8.3333,2.0833,12.5v169.7917a12.82,12.82,0,0,1-5.2084,10.4166c-9.3749,2.0833-14.5833,2.0833-18.75,0Z"/>
  </g>
</svg>
