<svg id="Layer_1" data-name="Layer 1" xmlns="http://www.w3.org/2000/svg" width="2500" height="2500" viewBox="0 0 2500 2500">
  <defs>
    <style>
      .cls-1 {
        fill: #336791;
      }

      .cls-2 {
        fill: #fff;
      }
    </style>
  </defs>
  <g>
    <path d="M2452.6963,1496.8718c-14.5346-44.02-52.6084-74.68-101.8458-82.0373-23.2174-3.4655-49.8056-1.9885-81.27,4.4977-54.843,11.3152-95.53,15.6234-125.2243,16.4568,112.0816-189.233,203.2183-405.0258,255.6847-608.1589,84.84-328.4614,39.5036-478.0961-13.4741-545.7787C2246.3628,102.7025,2041.8094,6.4621,1795.0349,3.5173c-131.6441-1.61-247.21,24.3821-307.4977,43.0734-56.1307-9.9043-116.4846-15.4341-179.8117-16.4567-118.71-1.8937-223.595,23.9843-313.2167,77.17C944.8926,90.5257,865.26,66.8728,773.3,51.78c-216.2852-35.5078-390.6049-7.84-518.1111,82.2361C100.7914,243.0767,29.2171,432.5653,42.4544,697.2169c4.2042,84.0257,51.207,339.682,125.2148,582.1387,42.5336,139.3611,87.8889,255.0882,134.8066,344,66.5369,126.0765,137.7325,200.321,217.6582,226.9849,44.7966,14.9228,126.19,25.3762,211.797-45.9235,10.8512,13.1427,25.3289,26.2,44.541,38.33,24.401,15.3867,54.2369,27.9612,84.0351,35.4131,107.3852,26.844,207.9717,20.1307,293.7869-17.4983.53,15.2636.9374,29.8455,1.2783,42.4389.5681,20.4241,1.1363,40.4505,1.8843,59.18,5.0847,126.635,13.7013,225.1005,39.229,293.9952,1.4014,3.7874,3.2857,9.5634,5.2741,15.69,12.7355,38.9923,34.0307,104.27,88.2109,155.3916,56.1024,52.9586,123.9648,69.1977,186.1178,69.1977a418.2748,418.2748,0,0,0,86.9989-9.677c92.9831-19.9319,198.5882-50.2886,274.982-159.0655,72.2277-102.8307,107.3377-257.711,113.6913-501.7492.8238-6.9027,1.5813-13.4929,2.31-19.7707l1.515-12.8964,17.0154,1.4961,4.384.2936c94.7064,4.3177,210.5092-15.7654,281.629-48.802,56.197-26.0769,236.2832-121.1527,193.8821-249.511"/>
    <path class="cls-1" d="M2290.7618,1521.8314c-281.6006,58.0907-300.9642-37.25-300.9642-37.25C2287.1163,1043.4038,2411.4127,483.3935,2304.16,346.3334,2011.5378-27.54,1505.007,149.2792,1496.5514,153.8621l-2.7176.4924c-55.6384-11.5519-117.8954-18.4262-187.8789-19.5719-127.4115-2.0831-224.0685,33.4057-297.4134,89.0252,0,0-903.6029-372.2544-861.5711,468.1728,8.9385,178.789,256.2623,1352.8288,551.2518,998.2146,107.8206-129.6746,212.0053-239.3132,212.0053-239.3132,51.7372,34.3716,113.6817,51.9076,178.6184,45.6109l5.0469-4.28c-1.5719,16.0968-.8522,31.8435,2.0168,50.4874-75.9962,84.9062-53.6594,99.81-205.576,131.0853-153.7252,31.6824-63.4217,88.0783-4.46,102.8306,71.48,17.8675,236.8418,43.187,348.5731-113.2272l-4.45,17.8485c29.77,23.8518,50.6768,155.1265,47.1732,274.1392-3.5033,119.0032-5.8422,200.7092,17.6119,264.5285,23.4731,63.8194,46.8514,207.4129,246.5662,164.6237,166.8678-35.7634,253.3459-128.4341,265.3807-283.0209,8.5314-109.8944,27.8571-93.646,29.0692-191.9032l15.5-46.5105c17.8674-148.9719,2.8406-197.0353,105.6428-174.6795l24.9975,2.1967c75.6553,3.4372,174.6984-12.1768,232.8271-39.1911,125.158-58.0813,199.3929-155.07,75.9773-129.5893h.0189"/>
    <path class="cls-2" d="M1061.4339,771.9348c-25.3762-3.5318-48.3569-.2651-59.9845,8.5408-6.5334,4.9522-8.56,10.69-9.1089,14.6387-1.4582,10.463,5.8707,22.0338,10.3778,27.9991,12.7449,16.8922,31.36,28.501,49.7867,31.0575a56.6935,56.6935,0,0,0,7.9727.5492c30.7261,0,58.6684-23.9276,61.13-41.5868,3.0773-22.1189-29.0312-36.8618-60.174-41.189m840.6735.6912c-2.424-17.3373-33.2731-22.28-62.5506-18.2084-29.24,4.0716-57.5889,17.271-55.2218,34.6461,1.8938,13.512,26.2947,36.5778,55.1744,36.5778a52.72,52.72,0,0,0,7.3856-.5113c19.2784-2.67,33.4247-14.9133,40.1476-21.9675,10.2262-10.7565,16.1536-22.7439,15.0648-30.5367"/>
    <path class="cls-2" d="M2384.4646,1515.2316c-10.7376-32.4683-45.2985-42.9123-102.717-31.0575-170.4849,35.186-231.5393,10.8133-251.5847-3.9485,132.5151-201.8737,241.5288-445.9023,300.3392-673.5785,27.8571-107.849,43.2438-208.0095,44.5031-289.649,1.3919-89.6028-13.8717-155.4485-45.3459-195.6718-126.9-162.1523-313.15-249.1323-538.6014-251.5184-154.994-1.7422-285.9469,37.9224-311.3326,49.0766a776.1614,776.1614,0,0,0-175.1908-22.4978c-116.352-1.8843-216.9291,25.9728-300.1972,82.7569-36.1707-13.4646-129.6462-45.5542-243.9624-63.9709-197.6318-31.815-354.68-7.7075-466.7525,71.6879C159.8952,281.6049,98.159,450.963,110.118,690.2194c4.0242,80.4938,49.8908,328.1206,122.27,565.2654,95.2745,312.1279,198.8437,488.8242,307.81,525.1748a137.8632,137.8632,0,0,0,43.6793,7.2247c39.75,0,88.4855-17.9149,139.1906-78.8747q92.7687-111.2878,191.8464-217.0805a309.1078,309.1078,0,0,0,138.026,37.1174c.0947,1.2593.2178,2.5188.3314,3.7686q-12.4273,14.8193-24.3347,30.0633c-33.3489,42.3347-40.29,51.15-147.6367,73.25-30.5367,6.3062-111.6366,23.0185-112.83,79.8689-1.2877,62.1149,95.8711,88.2014,106.94,90.9662,38.5756,9.6582,75.7405,14.4209,111.182,14.4209,86.194,0,162.0482-28.3306,222.6671-83.1452-1.8653,221.4362,7.3667,439.6341,33.9549,506.1142,21.7781,54.4264,74.9737,187.434,243.006,187.4245,24.6566,0,51.7941-2.8691,81.649-9.27,175.3707-37.591,251.5279-115.1022,280.9852-285.9847,15.7654-91.3262,42.8177-309.4009,55.5437-426.3778,26.8533,8.38,61.4238,12.2146,98.797,12.2052,77.9467,0,167.89-16.5608,224.2958-42.742,63.3648-29.4289,177.7095-101.6375,156.9729-164.3775ZM1966.8358,724.78c-.5776,34.5325-5.3309,65.8835-10.3682,98.6075-5.4256,35.1954-11.0311,71.5838-12.4419,115.7555-1.392,42.9881,3.9768,87.6806,9.1657,130.9054,10.4914,87.3019,21.2573,177.1793-20.4146,265.8636a345.6615,345.6615,0,0,1-18.4641-37.96c-5.1794-12.5556-16.4283-32.724-32.0044-60.638-60.5906-108.6633-202.48-363.1265-129.8449-466.9609,21.6361-30.906,76.5453-62.6831,214.3724-45.5731ZM1799.7692,139.7347c202.0064,4.46,361.8009,80.03,474.9337,224.5987,86.7716,110.8885-8.7776,615.45-285.3882,1050.7378q-4.1726-5.3058-8.3893-10.5767l-3.5034-4.3746c71.48-118.0468,57.5037-234.8439,45.0618-338.3942-5.113-42.4957-9.9422-82.6337-8.7112-120.3383,1.2688-39.9581,6.5524-74.235,11.6654-107.3757,6.2778-40.8387,12.6692-83.0977,10.908-132.9128a55.087,55.087,0,0,0,1.1551-18.7292c-4.4977-47.77-59.0377-190.7385-170.2008-320.1384-60.8083-70.7789-149.4832-149.985-270.56-203.4077,52.0781-10.7944,123.2925-20.86,203.0289-19.089ZM669.4088,1664.3929c-55.8656,67.1713-94.4413,54.2938-107.1294,50.0707-82.6622-27.573-178.5806-202.29-263.146-479.3461-73.1745-239.73-115.9354-480.7947-119.3252-548.3921C169.1274,472.94,220.95,323.9492,333.8458,243.8814,517.5774,113.5914,819.65,191.576,941.0294,231.127c-1.7423,1.7233-3.56,3.333-5.2836,5.0847-199.1846,201.1542-194.46,544.8319-193.9673,565.8431-.019,8.1053.6628,19.5814,1.5907,35.3658,3.4277,57.8067,9.81,165.3906-7.2341,287.225-15.8317,113.2178,19.07,224.0306,95.7385,304.0321q11.8025,12.2919,24.78,23.3689c-34.1253,36.5494-108.2941,117.3746-187.2445,212.3462Zm212.848-283.9962c-61.793-64.4821-89.8584-154.17-77.0094-246.0928,17.9907-128.6992,11.3531-240.79,7.7833-301.0115-.5018-8.4272-.9468-15.8128-1.2025-21.6362,29.0975-25.8023,163.9419-98.0488,260.1066-76.0151,43.8782,10.0463,70.6179,39.93,81.7343,91.3261,57.5322,266.1,7.6129,377.0078-32.4968,466.1372-8.2662,18.36-16.0779,35.7161-22.7439,53.6688l-5.17,13.8813c-13.0858,35.0911-25.2626,67.72-32.8092,98.7022-65.6942-.1894-129.5988-28.2547-178.1924-78.9694Zm10.0843,358.8656c-19.1837-4.7912-36.4358-13.1142-46.5579-20.0169,8.4556-3.9769,23.5015-9.3931,49.5973-14.7713,126.2847-25.9916,145.79-44.3421,188.3808-98.4181,9.7623-12.4041,20.8313-26.4558,36.1612-43.5753l.0189-.0189c22.8292-25.5656,33.2732-21.229,52.2107-13.37,15.3489,6.3441,30.3,25.5845,36.36,46.7567,2.869,9.999,6.0884,28.9744-4.45,43.7456C1115.0934,1764.1652,985.4473,1762.5649,892.3411,1739.2623ZM1553.25,2354.2765c-154.4921,33.1028-209.1931-45.7245-245.2406-135.8386-23.2647-58.176-34.7029-320.5171-26.5882-610.2326a34.9043,34.9043,0,0,0-1.5055-11.0784,146.2542,146.2542,0,0,0-4.3177-20.4715c-12.0632-42.1548-41.4636-77.4164-76.7348-92.0363-14.0138-5.8044-39.7308-16.4567-70.6368-8.55,6.59-27.1564,18.019-57.8256,30.4136-91.0326l5.1983-13.9664c5.8517-15.7465,13.1995-32.0612,20.9638-49.3323,41.975-93.2483,99.46-220.9722,37.07-509.5134-23.3689-108.0763-101.41-160.8551-219.7129-148.5931-70.9209,7.3383-135.81,35.9528-168.1745,52.3622-6.9595,3.5224-13.3225,6.9311-19.2689,10.2452,9.0332-108.8907,43.1585-312.393,170.8162-441.1491,80.38-81.0525,187.4245-121.0864,317.847-118.9275,256.9819,4.2041,421.776,136.0849,514.7781,245.9886,80.1435,94.697,123.5387,190.0947,140.8572,241.5478-130.2427-13.2468-218.8229,12.4609-263.7237,76.659-97.6891,139.6452,53.4416,410.6787,126.0764,540.94,13.3225,23.8707,24.8176,44.5031,28.4347,53.2713,23.653,57.3238,54.2749,95.5964,76.6307,123.5293,6.8553,8.56,13.5023,16.8639,18.5588,24.1169-39.4469,11.372-110.3015,37.6477-103.8438,168.9888-5.2078,65.9026-42.24,374.4512-61.0545,483.465-24.8365,144.02-77.8331,197.66-226.8428,229.6171ZM2198.11,1616.32c-40.3368,18.72-107.84,32.7619-171.9619,35.7824-70.8262,3.3142-106.8832-7.9348-115.3673-14.8564-3.9769-81.8479,26.484-90.3982,58.7251-99.45,5.0658-1.42,10.0085-2.8122,14.7808-4.4788a120.4554,120.4554,0,0,0,9.7717,7.1584c56.9261,37.572,158.4595,41.6246,301.807,12.0347l1.5718-.3125c-19.3352,18.0758-52.4189,42.3347-99.3272,64.1224Z"/>
  </g>
</svg>
