<svg id="Layer_1" data-name="Layer 1" xmlns="http://www.w3.org/2000/svg" width="2500" height="2500" viewBox="0 0 2500 2500">
  <defs>
    <style>
      .cls-1 {
        fill: #2d3748;
        fill-rule: evenodd;
      }
    </style>
  </defs>
  <path class="cls-1" d="M261.9628,1580.0949a122.9207,122.9207,0,0,0,.9782,130.0632l454.5858,717.0947a122.9264,122.9264,0,0,0,139.1515,51.9257l1311.8269-393.5453c71.5908-21.4772,107.6031-101.3373,76.3124-169.2146l-843.3-1829.3218C1360.3918-2.1149,1236.4121-9.4377,1185.07,74.3122ZM1379.1113,505.2988c-17.9232-41.4742-78.6185-35.0859-87.5143,9.2111L966.9282,2131.089c-6.8465,34.0853,25.0682,63.1938,58.3829,53.2527l906.37-270.5647a46.0779,46.0779,0,0,0,29.1213-62.4537Z"/>
</svg>
