<svg id="Layer_1" data-name="Layer 1" xmlns="http://www.w3.org/2000/svg" xmlns:xlink="http://www.w3.org/1999/xlink" width="2500" height="2500" viewBox="0 0 2500 2500">
  <defs>
    <style>
      .cls-1 {
        fill: url(#linear-gradient);
      }

      .cls-2 {
        fill: url(#linear-gradient-2);
      }
    </style>
    <linearGradient id="linear-gradient" x1="-3462.2538" y1="3159.2736" x2="-3461.587" y2="3158.612" gradientTransform="matrix(1849.2674, 0, 0, -1853.3917, 6402869.9734, 5855610.1986)" gradientUnits="userSpaceOnUse">
      <stop offset="0" stop-color="#387eb8"/>
      <stop offset="1" stop-color="#366994"/>
    </linearGradient>
    <linearGradient id="linear-gradient-2" x1="-3462.1921" y1="3159.1881" x2="-3461.4759" y2="3158.5096" gradientTransform="matrix(1849.2671, 0, 0, -1853.3918, 6403513.4041, 5856238.04)" gradientUnits="userSpaceOnUse">
      <stop offset="0" stop-color="#ffe052"/>
      <stop offset="1" stop-color="#ffc331"/>
    </linearGradient>
  </defs>
  <g>
    <path class="cls-1" d="M1241.0164,9.6187c-633.0654,0-593.5378,274.5347-593.5378,274.5347l.703,284.4264h604.1229v85.3923H408.2335S3.1349,608.0292,3.1349,1246.7873c0,638.7778,353.58,616.1238,353.58,616.1238H567.73V1566.4936s-11.3759-353.58,347.936-353.58h599.1819s336.6381,5.439,336.6381-325.35V340.6227S1902.6143,9.6187,1241.0164,9.6187ZM907.9033,200.89a108.5834,108.5834,0,0,1,108.6811,108.4858q0,.0976,0,.1953A108.5835,108.5835,0,0,1,908.0986,418.2521q-.0977,0-.1953,0A108.5836,108.5836,0,0,1,799.2221,309.7663v-.1954A108.5835,108.5835,0,0,1,907.7079,200.89Q907.8057,200.89,907.9033,200.89Z"/>
    <path class="cls-2" d="M1258.9933,2490.3813c633.0654,0,593.5378-274.5348,593.5378-274.5348l-.7031-284.4165H1247.6955v-85.3923h844.0709s405.0987,45.9429,405.0987-592.8349c0-638.768-353.58-616.1139-353.58-616.1139H1932.27V933.4966s11.3758,353.58-347.9361,353.58H985.152s-336.6382-5.439-336.6382,325.36v546.95s-51.1183,330.9943,610.47,330.9943ZM1592.1064,2299.13a108.5837,108.5837,0,0,1-108.6812-108.4857v-.1955a108.5836,108.5836,0,0,1,108.4761-108.6909h.2051a108.5836,108.5836,0,0,1,108.6813,108.4857v.1955A108.5836,108.5836,0,0,1,1592.3019,2299.12h-.1955Z"/>
  </g>
</svg>
