<svg id="Layer_1" data-name="Layer 1" xmlns="http://www.w3.org/2000/svg" width="2500" height="2500" viewBox="0 0 2500 2500">
  <defs>
    <style>
      .cls-1 {
        fill: #00435b;
      }

      .cls-2 {
        fill: #002b3b;
      }

      .cls-3 {
        fill: #ff4154;
      }

      .cls-4 {
        fill: #ffd94c;
      }
    </style>
  </defs>
  <g>
    <path class="cls-1" d="M1543.1729,1522.2406l-48.0188,83.3826a81.0455,81.0455,0,0,1-70.2314,40.599H1057.0672a81.0455,81.0455,0,0,1-70.2314-40.599l-48.0233-83.3826Zm134.4319-233.4244-84.67,147.0165H889.0506l-84.6655-147.0165Zm-81.5588-228.26,81.6939,141.8565H804.25l81.6938-141.8565ZM1424.9227,844.7728a81.0453,81.0453,0,0,1,70.2314,40.599l51.13,88.7765H935.7058l51.13-88.7765a81.0453,81.0453,0,0,1,70.2314-40.599Z"/>
    <path class="cls-2" d="M521.6935,806.0808c-40.7494-197.5923-49.4944-349.1439-23.1543-459.1915,15.6655-65.45,44.306-118.8432,87.8559-157.3655,45.9774-40.6694,104.1077-60.626,169.4232-60.626,107.751,0,221.0243,49.1359,342.0765,142.4811q74.0625,57.1107,153.84,137.7017a115.27,115.27,0,0,1,14.3588-15.351c150.4618-134.0824,277.1374-217.3894,385.4843-249.51,64.4231-19.0989,124.9082-20.9185,179.9885-2.3823,58.1409,19.5662,104.4675,60.0123,137.152,116.6644,53.9415,93.4964,68.1664,216.3513,48.0559,368.0456q-12.296,92.7481-42.011,202.1631a114.8583,114.8583,0,0,1,22.3718,5.015c190.9028,63.2625,326.0821,131.2936,407.9228,209.0411,48.6932,46.2577,80.49,97.7567,91.9849,154.7624,12.1323,60.17.3023,120.5215-32.3443,177.1314-53.8408,93.3612-152.838,166.9943-293.8728,225.317q-84.945,35.1279-192.2919,63.7028a115.3058,115.3058,0,0,1,7.4953,23.4252c40.7494,197.5922,49.4944,349.1439,23.1544,459.1914-15.6656,65.45-44.306,118.8432-87.8559,157.3655-45.9775,40.67-104.1077,60.6261-169.4232,60.6261-107.7511,0-221.0243-49.1359-342.0765-142.4812q-74.8507-57.7185-155.54-139.42a114.7752,114.7752,0,0,1-20.3811,23.8835c-150.4619,134.0822-277.1376,217.3893-385.4844,249.51-64.423,19.099-124.9083,20.9185-179.9885,2.3823-58.1409-19.5662-104.4674-60.0123-137.1521-116.6644-53.9414-93.4963-68.1664-216.3513-48.0558-368.0456q12.74-96.1006,44.1809-210.0991a114.7273,114.7273,0,0,1-24.5417-5.2558c-190.9028-63.2625-326.0821-131.2937-407.9228-209.0412-48.6932-46.2577-80.49-97.7566-91.9849-154.7623-12.1324-60.17-.3023-120.5216,32.3442-177.1315,53.8408-93.3612,152.8382-166.9943,293.8728-225.317q87.4762-36.1744,198.7113-65.4021A115.5058,115.5058,0,0,1,521.6935,806.0808Z"/>
    <path class="cls-3" d="M1852.842,1706.53a36.0209,36.0209,0,0,1,41.4082,27.4751l.2331,1.1056,2.0226,10.5064q98.4231,517.4516-138.6622,517.4514-231.964,0-590.574-441.5418a36.018,36.018,0,0,1,27.1536-58.72l1.1221-.0071,12.59.0892q150.9046.8181,293.4039-10.5232Q1669.7521,1738.9773,1852.842,1706.53ZM767.37,1445.7683l.6061,1.0231,6.3169,11.0247q75.9358,132.0173,158.23,250.6007,96.9161,139.6524,217.9735,282.7525a36.0209,36.0209,0,0,1-3.0254,49.6928l-.9163.8193-8.12,6.9892Q737.9,2391.8639,617.7711,2185.6962,500.183,1983.89,703.0357,1451.8151a36.02,36.02,0,0,1,64.3341-6.0468Zm1220.9721-509.03,1.0942.3561,10.05,3.4708q494.3943,171.98,375.6665,377.9985-116.1195,201.4924-675.1476,293.4074a36.02,36.02,0,0,1-36.8958-53.7978q80.0684-136.1983,144.2264-271.0379,72.7629-152.9239,136.5684-328.2842a36.0223,36.0223,0,0,1,43.34-22.4324ZM824.0935,879.0121a36.02,36.02,0,0,1,12.797,49.3066q-80.0683,136.1985-144.2264,271.038-72.7627,152.9238-136.5684,328.2842a36.0207,36.0207,0,0,1-44.4376,22.1129l-1.0942-.3561-10.05-3.4709q-494.3943-171.98-375.6665-377.9985Q240.9665,966.436,799.9947,874.521A36.02,36.02,0,0,1,824.0935,879.0121ZM1882.2289,314.3038q117.5883,201.8065-85.2645,733.8811a36.02,36.02,0,0,1-64.3341,6.0468l-.6061-1.0231-6.317-11.0247q-75.9359-132.0172-158.23-250.6007-96.916-139.6526-217.9736-282.7524a36.021,36.021,0,0,1,3.0255-49.6928l.9162-.8194,8.12-6.9892Q1762.1,108.1361,1882.2289,314.3038ZM755.6639,232.4293q231.9641,0,590.5741,441.542a36.0179,36.0179,0,0,1-27.1538,58.72l-1.1219.0073-12.59-.0893q-150.9048-.8181-293.4041,10.5232Q843.7557,756.52,660.6656,788.9679a36.0209,36.0209,0,0,1-41.4083-27.475l-.233-1.1057-2.0226-10.5064Q518.5786,232.4294,755.6639,232.4293Z"/>
    <path class="cls-4" d="M1086.6385,849.2753h308.7786A126.07,126.07,0,0,1,1504.76,912.5934l155.0414,270.1515a126.07,126.07,0,0,1,0,125.5052L1504.76,1578.4016a126.07,126.07,0,0,1-109.3432,63.3181H1086.6385a126.0706,126.0706,0,0,1-109.3432-63.3181L822.2539,1308.25a126.0709,126.0709,0,0,1,0-125.5052L977.2953,912.5934A126.0706,126.0706,0,0,1,1086.6385,849.2753Zm261.7178,81.5377a126.0706,126.0706,0,0,1,109.3764,63.376l108.1137,188.6138a126.07,126.07,0,0,1,0,125.3894L1457.7327,1496.806a126.0707,126.0707,0,0,1-109.3764,63.3761h-214.657a126.0707,126.0707,0,0,1-109.3764-63.3761L916.2091,1308.1922a126.0706,126.0706,0,0,1,0-125.3894L1024.3229,994.189a126.0706,126.0706,0,0,1,109.3764-63.376Zm-50.7239,89.1818H1184.4232a126.0706,126.0706,0,0,0-109.3117,63.2635h0l-57.1307,99.4319a126.0709,126.0709,0,0,0,0,125.6146h0l57.1307,99.432A126.0708,126.0708,0,0,0,1184.4232,1471h113.2092a126.071,126.071,0,0,0,109.3118-63.2634h0l57.1306-99.432a126.0709,126.0709,0,0,0,0-125.6146h0l-57.1306-99.4319a126.0709,126.0709,0,0,0-109.3118-63.2635Zm-48.8421,85.36a126.0707,126.0707,0,0,1,109.2646,63.1814l8.0995,14.0722a126.0707,126.0707,0,0,1,0,125.7786l-8.0995,14.0722A126.0707,126.0707,0,0,1,1248.79,1385.64h-15.525a126.0707,126.0707,0,0,1-109.2646-63.1814l-8.1-14.0722a126.0707,126.0707,0,0,1,0-125.7786l8.1-14.0722a126.0707,126.0707,0,0,1,109.2646-63.1814Zm-7.7421,84.0858a56.0572,56.0572,0,1,0-.0408,112.1143h0a56.0572,56.0572,0,1,0,.0408-112.1143ZM786.24,1245.4975H887.1665"/>
  </g>
</svg>
