<svg id="Layer_1" data-name="Layer 1" xmlns="http://www.w3.org/2000/svg" width="2500" height="2500" viewBox="0 0 2500 2500">
  <defs>
    <style>
      .cls-1 {
        fill: #61dafb;
      }
    </style>
  </defs>
  <g>
    <path class="cls-1" d="M2495.1605,1250.2539c0-164.9725-206.5963-321.3156-523.3431-418.2686,73.0956-322.8383,40.6086-579.6877-102.5368-661.92-32.9945-19.2891-71.5725-28.4261-113.7042-28.4261V254.8357c23.35,0,42.1314,4.5685,57.8674,13.1978,69.0345,39.5934,98.9834,190.3527,75.6336,384.2588-5.5835,47.7151-14.7207,97.9683-25.8878,149.2366-99.491-24.3652-208.1191-43.1466-322.3308-55.3292-68.527-93.9074-139.592-179.1854-211.1647-253.8037,165.48-153.8051,320.808-238.0679,426.39-238.0679V141.1316c-139.592,0-322.3307,99.4911-507.1,272.0776-184.7691-171.5713-367.5078-270.0472-507.1-270.0472V256.3585c105.0748,0,260.91,83.7552,426.39,236.5451A2397.4971,2397.4971,0,0,0,958.6333,746.2C843.914,758.3823,735.286,777.1638,635.7949,802.0365,624.12,751.2758,615.4906,702.0379,609.3993,654.83,585.5417,460.9243,614.983,310.1649,683.51,270.0639c15.2282-9.1369,35.0249-13.1978,58.3749-13.1978V143.67c-42.639,0-81.2172,9.1369-114.7194,28.426C484.5278,254.3281,452.5486,510.67,526.1517,832.493,210.42,929.9536,4.8389,1085.7891,4.8389,1250.2539c0,164.9724,206.5962,321.3154,523.3432,418.2685-73.0954,322.8383-40.6086,579.6876,102.5368,661.92,32.9944,19.289,71.5726,28.4259,114.2116,28.4259,139.5921,0,322.3308-99.4911,507.1-272.0777,184.769,171.5713,367.5077,270.0471,507.1,270.0471,42.6392,0,81.2172-9.1369,114.7192-28.426,142.6376-82.2325,174.6171-338.5741,101.014-660.3974,314.7166-96.953,520.2976-253.2961,520.2976-417.7609ZM1834.2556,911.68c-18.7816,65.4813-42.1314,132.9931-68.5271,200.5049-20.8117-40.6086-42.6391-81.2172-66.4966-121.8258-23.35-40.6086-48.2227-80.202-73.0954-118.78,72.08,10.66,141.6226,23.8575,208.1191,40.1009Zm-232.4842,540.6019c-39.5933,68.527-80.2019,133.5007-122.3334,193.9061-75.6335,6.5988-152.2823,10.1521-229.4387,10.1521-76.6487,0-153.2975-3.5533-228.4233-9.6445q-63.1971-90.6078-122.8411-192.8908-57.8673-99.7449-105.5823-202.0277c31.4718-68.0194,67.0043-136.0388,105.0748-202.5354,39.5934-68.527,80.202-133.5007,122.3335-193.906,75.6334-6.5989,152.2822-10.1522,229.4386-10.1522,76.6488,0,153.2975,3.5533,228.4234,9.6446q63.197,90.6078,122.841,192.8909,57.8673,99.7449,105.5823,202.0277c-31.9792,68.0193-67.0042,136.0387-105.0748,202.5353Zm163.9571-65.989c27.411,68.0194,50.7608,136.0387,70.05,202.0277-66.4964,16.2435-136.5464,29.9488-209.1343,40.6086,24.8727-39.0858,49.7455-79.1868,73.0954-120.303,23.35-40.6086,45.1771-81.7249,65.9891-122.3335ZM1251.0146,1927.91c-47.2074-48.73-94.415-103.0442-141.1148-162.4344,45.6847,2.03,92.3846,3.5533,139.5921,3.5533,47.715,0,94.9226-1.0152,141.1148-3.5533A1981.2852,1981.2852,0,0,1,1251.0146,1927.91Zm-377.66-298.9807c-72.08-10.66-141.6224-23.8577-208.1191-40.101,18.7816-65.4813,42.1314-132.9932,68.5271-200.505,20.8119,40.6086,42.6389,81.2172,66.4966,121.8258S848.482,1590.3509,873.3547,1628.9291ZM1248.4766,572.5979c47.2074,48.73,94.415,103.0443,141.1148,162.4344-45.6847-2.03-92.3846-3.5532-139.5921-3.5532-47.715,0-94.9226,1.0152-141.1148,3.5532A1981.302,1981.302,0,0,1,1248.4766,572.5979ZM872.8471,871.5787c-24.8728,39.0857-49.7455,79.1868-73.0955,120.3029-23.35,40.6086-45.177,81.2171-65.9889,121.8257-27.4108-68.0193-50.7608-136.0388-70.05-202.0278,66.4966-15.7358,136.5464-29.4412,209.1343-40.1009ZM413.4623,1507.1031c-179.693-76.6487-295.9351-177.155-295.9351-256.8494s116.242-180.7083,295.9351-256.8494c43.6543-18.7815,91.3694-35.5325,140.6073-51.2684,28.9337,99.4911,67.0043,203.043,114.2117,309.1329-46.7,105.5823-84.2628,208.6267-112.6889,307.61-50.2531-15.7359-97.9682-32.9945-142.13-51.776Zm273.0928,725.371c-69.0347-39.5933-98.9835-190.3528-75.6335-384.2587,5.5837-47.7151,14.7206-97.9682,25.888-149.2366,99.4911,24.3651,208.1191,43.1467,322.3307,55.3292,68.527,93.9074,139.5921,179.1854,211.1648,253.8037-165.48,153.805-320.808,238.0679-426.39,238.0679-22.8423-.5076-42.1314-5.0761-57.36-13.7055ZM1890.6,1845.6773c23.8576,193.9062-5.5836,344.6655-74.1106,384.7664-15.2282,9.1369-35.025,13.1979-58.3749,13.1979-105.0748,0-260.91-83.7553-426.39-236.5451A2397.5174,2397.5174,0,0,0,1541.366,1753.8c114.7193-12.1826,223.3473-30.9641,322.8382-55.8369C1875.8791,1749.2319,1885.016,1798.47,1890.6,1845.6773Zm195.4288-338.5742c-43.6541,18.7815-91.3693,35.5325-140.6073,51.2684-28.9337-99.4911-67.0042-203.043-114.2117-309.1329,46.7-105.5823,84.2627-208.6267,112.6889-307.61,50.2533,15.7359,97.9682,32.9945,142.6376,51.776,179.6932,76.6487,295.9351,177.155,295.9351,256.8493-.5075,79.6944-116.75,180.7083-296.4429,256.8494Z"/>
    <circle class="cls-1" cx="1249.4919" cy="1250.2539" r="231.9767"/>
  </g>
</svg>
