<svg id="Layer_1" data-name="Layer 1" xmlns="http://www.w3.org/2000/svg" width="2500" height="2500" viewBox="0 0 2500 2500">
  <defs>
    <style>
      .cls-1 {
        fill: #764abc;
      }
    </style>
  </defs>
  <path class="cls-1" d="M1732.2359,1720.8593c92.2559-9.5508,162.2461-89.082,159.0625-184.5313-3.1738-95.4394-82.7149-171.7968-178.1543-171.7968h-6.3574c-98.6329,3.1837-174.9805,85.8985-171.7968,184.5215,3.1836,47.7246,22.2656,89.082,50.8984,117.7149C1477.7242,1879.9317,1312.2945,2035.82,1064.15,2166.26c-168.6133,89.082-343.584,120.8985-518.5547,98.6329-143.164-19.0918-254.5117-82.7148-324.5117-187.7148-101.7968-155.8887-111.3379-324.5117-25.4394-493.1251,60.4492-120.8984,155.8789-209.98,216.3281-254.5215-12.7246-41.3574-31.8164-111.3476-41.3574-162.2461C-90.6838,1501.3379-42.9592,1953.1055,97.0212,2166.26c104.9805,159.0822,318.1348,257.7052,553.5547,257.7052,63.6231,0,127.2461-6.3671,190.8789-22.2656,407.2168-79.5411,715.8107-321.3379,890.7813-680.84Zm559.9219-394.502c-241.7871-283.1543-598.0957-439.043-1005.3125-439.043h-50.8984c-28.6328-57.2656-89.0821-95.4492-155.8887-95.4492h-6.3672c-98.6132,3.1836-174.9609,85.8985-171.787,184.5313,3.1835,95.4394,82.7148,171.7968,178.1543,171.7968h6.3574c69.99-3.1836,130.4395-47.7246,155.8887-108.1738H1299.57c241.7871,0,470.84,69.99,677.6367,206.7969,159.0624,104.99,273.5938,241.7969,337.2169,407.2266,54.0819,133.623,50.8984,264.0624-6.3672,375.42-89.0723,168.6133-238.5936,260.879-435.84,260.879-127.2559,0-248.1445-38.1837-311.7772-66.8164-34.99,31.8164-98.6231,82.7149-143.1641,114.541,136.8066,63.6231,276.7871,98.6231,410.4,98.6231,305.41,0,531.289-168.623,617.1875-337.2364,92.2559-184.5312,85.8887-502.6758-152.705-773.0956ZM676.025,1774.9316c3.1836,95.4492,82.7149,171.7968,178.1543,171.7968h6.3672c98.6231-3.1738,174.9707-85.8985,171.7871-184.5215-3.1738-95.4493-82.7149-171.7969-178.1543-171.7969h-6.3574c-6.3672,0-15.9179,0-22.2656,3.1738-130.4395-216.3379-184.5215-451.7577-165.43-706.2793C672.8415,696.4159,736.4743,530.9764,847.8219,394.17c92.2559-117.7149,270.41-174.98,391.3086-178.1543,337.2168-6.3672,480.371,413.584,489.9218,582.207,41.3574,9.541,111.3477,31.8164,159.0723,47.7246C1849.9411,330.5565,1531.8062,63.31,1226.4059,63.31c-286.3281,0-550.3809,206.7969-655.3711,512.2168-146.3379,407.2266-50.8984,798.5449,127.2558,1107.1484-15.8984,22.2656-25.4492,57.2656-22.2656,92.2656Z"/>
</svg>
