<svg id="Layer_1" data-name="Layer 1" xmlns="http://www.w3.org/2000/svg" width="2500" height="2500" viewBox="0 0 2500 2500">
  <defs>
    <style>
      .cls-1 {
        fill: #2f406a;
      }

      .cls-2 {
        fill: #2379bd;
      }

      .cls-3 {
        fill: #03afef;
      }
    </style>
  </defs>
  <g>
    <path class="cls-1" d="M2016.2339,800.1034v895.9489l-760.817,446.0523-6.99,6.3683v337.7137l6.99,6.3683L2326.61,1873.821V626.1792h-10.2125L2014.37,795.0943v6.99"/>
    <path class="cls-2" d="M491.9984,1702.3818,1256.66,2145.25v347.3437L176.5738,1871.2969V628.7031h10.8727L488.8531,803.9477l3.1842,10.2126v892.1046"/>
    <path class="cls-3" d="M491.9984,812.2187,173.39,628.7031,1252.893,7.4063,2326.5715,626.14,2016.2337,800.1034l-764.7-435.2184L490.717,810.9373"/>
    <path class="cls-1" d="M1242.02,1599.8677l-8.271-8.271V1255.7858l8.271-4.4657v-8.271l288.01-168.216h8.9311v346.6448l-298.8437,177.1473"/>
    <path class="cls-2" d="M938.0507,1434.1757v-360.08h8.271l293.1745,170.779V1600.45L935.5268,1434.1369"/>
    <path class="cls-3" d="M1236.9334,897.6082,938.09,1074.7554,1242.02,1250l298.8438-174.5844-303.9695-179.71"/>
    <path class="cls-1" d="M869.8246,1819.6515l-8.271-8.2711V1474.9093l8.271-4.4656v-8.2711l288.01-168.2161h8.9311v346.6447L867.9219,1817.7485"/>
    <path class="cls-2" d="M565.9328,1653.377V1293.3355h8.271l293.1744,170.7789V1819.69L565.9716,1653.3769"/>
    <path class="cls-3" d="M865.3979,1116.81,565.894,1293.3355l303.97,177.1473,298.8438-174.5844-303.97-179.71"/>
    <path class="cls-1" d="M1640.9317,1827.9614l-8.2711-8.2711V1483.2192l8.2711-4.4657v-8.271l288.01-168.2162h8.9311v346.6449L1639.029,1826.0585"/>
    <path class="cls-2" d="M1336.9622,1661.6091V1301.6454h9.5524l293.1745,170.7789V1828l-304.0083-166.3912"/>
    <path class="cls-3" d="M1635.806,1122.5565l-298.8438,177.1472,303.97,177.1473,298.8438-174.5844-303.9695-179.71"/>
    <path class="cls-1" d="M1268.7749,2047.2015l-8.2711-8.2711V1702.3818l8.2711-4.4656v-8.2711l288.01-168.2161h8.9311v346.6449l-298.8437,177.1473"/>
    <path class="cls-2" d="M964.184,1880.8492v-359.42h8.271l293.1745,170.779v355.5758L964.2229,1880.81"/>
    <path class="cls-3" d="M1263.688,1344.36l-299.504,177.07,304.5909,174.5844,298.8438-174.5844-303.9695-177.1472"/>
    <path class="cls-1" d="M1242.02,1122.5565l-8.271-8.271v-335.19l8.271-4.4656v-8.271l288.01-168.2161h8.9311V944.788L1242.02,1122.5566"/>
    <path class="cls-2" d="M938.0507,957.5245V597.483h8.271l293.1745,170.7789v354.2945L935.5268,956.243"/>
    <path class="cls-3" d="M1236.9334,421.6171,938.09,598.7644,1242.059,775.9117l298.8438-174.5845-303.97-179.71"/>
    <path class="cls-1" d="M869.8246,1342.4179l-8.271-8.271V995.1518l8.271-4.4656v-8.2709l288.01-168.2162h8.9311v346.6448L867.9219,1337.9911"/>
    <path class="cls-2" d="M565.9328,1176.7258v-360.08h8.271l293.1744,170.779V1343L565.9716,1176.6868"/>
    <path class="cls-3" d="M865.3979,640.1583,565.894,816.6843l303.97,178.4286,298.8438-174.5844-303.97-179.71"/>
    <path class="cls-1" d="M1640.9317,1350.6889l-8.2711-8.2711V1006.5293l8.2711-4.4656v-8.271l288.01-168.2161h8.9311v346.6448L1639.029,1349.3686"/>
    <path class="cls-2" d="M1336.9622,1186.3171V824.9941h9.5524l291.8542,170.1577v355.576l-301.4066-164.4107"/>
    <path class="cls-3" d="M1635.806,648.507l-298.8438,177.07,303.97,177.1472,298.8438-174.5844-303.9695-179.71"/>
    <path class="cls-1" d="M1268.7749,1568.6089l-8.2711-8.2711v-334.53l8.2711-4.4656v-8.271l288.01-168.216h8.9311v346.6448l-296.941,177.1473"/>
    <path class="cls-2" d="M964.184,1404.1593V1044.1954h8.271l293.1745,170.779v353.6733L964.184,1404.1593"/>
    <path class="cls-3" d="M1263.688,867.6694l-299.504,176.526,303.9695,177.1473,298.8438-174.5844L1263.7267,867.7471"/>
  </g>
</svg>
