<svg id="Layer_1" data-name="Layer 1" xmlns="http://www.w3.org/2000/svg" xmlns:xlink="http://www.w3.org/1999/xlink" width="2500" height="2500" viewBox="0 0 2500 2500">
  <defs>
    <style>
      .cls-1 {
        fill: none;
      }

      .cls-2 {
        clip-path: url(#clip-path);
      }

      .cls-3 {
        fill: #38bdf8;
        fill-rule: evenodd;
      }
    </style>
    <clipPath id="clip-path">
      <rect class="cls-1" y="500" width="2500" height="1500.0001"/>
    </clipPath>
  </defs>
  <g class="cls-2">
    <path class="cls-3" d="M1250,500q-500,0-625,500,187.5-250,437.5-187.5c95.0927,23.75,163.0556,92.7777,238.287,169.12C1423.3333,1106.0185,1565.1851,1250,1875,1250q500,0,625-500-187.5,250-437.5,187.5c-95.0927-23.75-163.0556-92.7778-238.287-169.12C1701.6667,643.9814,1559.8149,500,1250,500ZM625,1250q-500,0-625,500,187.5-250,437.5-187.5c95.0926,23.7963,163.0556,92.7778,238.287,169.12C798.3333,1856.0185,940.1852,2000,1250,2000q500,0,625-500-187.5,250-437.5,187.5c-95.0927-23.75-163.0556-92.7777-238.287-169.12C1076.6667,1393.9814,934.8148,1250,625,1250Z"/>
  </g>
</svg>
