<svg id="Layer_1" data-name="Layer 1" xmlns="http://www.w3.org/2000/svg" width="2500" height="2500" viewBox="0 0 2500 2500">
  <defs>
    <style>
      .cls-1 {
        fill: #007acc;
      }

      .cls-2 {
        fill: #fff;
      }
    </style>
  </defs>
  <g>
    <path class="cls-1" d="M0,1250V0H2500V2500H0"/>
    <path class="cls-2" d="M548.125,1254.375V1356.25h325v925H1103.75v-925h325v-100c0-56.25,0-101.875-2.5-103.125,0-1.875-198.125-2.5-438.75-2.5L550,1152.5V1255l-1.875-.625ZM2008.75,1150c63.75,15,112.5,43.75,156.25,89.375,23.125,25,57.5,68.75,60,80,0,3.75-108.1249,76.8751-173.75,117.5-2.5,1.875-12.5-8.75-22.5-25-32.5-46.25-65.625-66.25-117.5-70-75-5-125,34.375-125,100,0,20,3.75,31.25,11.25,47.5,16.8751,34.375,48.1251,55,145,97.5,178.75,76.8749,256.25,127.5,303.125,200,53.125,81.25,65,208.75,29.3751,304.375-40,104.3751-137.5,175-276.8749,198.1251-43.75,7.5-143.75,6.25-190.625-1.8749-100-18.75-195.625-68.75-254.375-133.1249-23.125-25-67.5-91.8751-65-96.25l23.75-15,93.75-54.375,70.625-41.25,16.25,21.875c20.6249,32.5,66.8751,76.25,93.75,91.25,81.25,41.875,190,36.25,243.75-12.5,23.1251-21.25,33.1249-43.75,33.1249-75,0-28.75-4.375-41.8751-18.75-63.75-20-27.5-60-50-172.5-100-129.3751-55-184.375-90-235.6251-143.75-29.3751-32.5-56.25-83.125-68.75-125-9.375-36.25-12.5-125-3.75-160.625,26.875-125,121.25-212.5,256.25-237.5,43.75-8.75,146.875-5,190,6.25l-1.25,1.25Z"/>
  </g>
</svg>
