<svg id="Layer_1" data-name="Layer 1" xmlns="http://www.w3.org/2000/svg" width="2490" height="2500" viewBox="0 0 2490 2500">
  <path d="M144.84,1271.0511c76.5772,216.1239,188.5883,421.753,334.1071,599.3989,69.1267,100.7378,170.3123,172.228,265.1462,246.8307v0c93.443,60.5577,197.1768,121.1152,303.5173,152.0067,188.7145,69.078,391.28,75.6824,589.6627,91.3324,120.8912-.1752,242.2591-8.7735,361.5066-30.133,107.42,11.5746,184.6489-80.2052,281.6421-31.7377,58.8261-52.1636,144.4976-29.2576,203.2655-67.1717,43.4292-147.8143-149.2734-29.3158-210.3368-101.6425-66.267,78.0362-122.0488-8.4523-202.5653,15.8446-136.9985,6.935,10.4173-61.3647,6.9158-124.0913-72.5019-55.7137-154.6038,76.509-201.0967,112.0694-114.676-20.6788-228.0876-53.5544-333.28-103.16-119.9576-62.454-237.62-136.687-324.5071-242.0647C1128.0586,1680.9085,1027.5054,1572.1558,986.0509,1434c-87.646-228.1948-81.9365-475.045-104.327-714.6879,8.2773-162.19,179.63,17.42,253.649-41.1627-25.3669-84.0862-160.595-110.6008-235.2659-144.313-71.9279-4.9605-98.2577-69.4574-174.9612-74.7292,3.6281-89.99-140.8794-40.443-193.5488-104.6282,51.8424-133.6333-171.4014,3.3167-154.03-112.3808,72.6766-150.4794-221.8433-124.9766-99.0943,7.499,117.9151,66.5978-116.4073,115.581-47.9714,160.2256,21.8166,46.9406-1.6437,99.0846-65.372,107.5369-93.3749,8.0728-84.6017,135.5491,6.4779,68.7669,101.5744-32.3117,17.43,12.8389-30.3955,22.06C33.714,639.37-39.42,746.5854,22.9663,844.7361,82.6874,979.8283,98.5415,1130.5024,144.84,1271.0511Zm2238.5377,911.2323c125.8033-.0681,8.4135,18.14-49.411,17.9455C2268.3318,2184.7151,2363.6034,2185.3473,2383.3776,2182.2834ZM1105.6583,671.1658h0c-12.382,3.55-10.3006-15.1443-19.5213-18.2082C985.905,601.8347,1134.6825,619.7607,1105.6583,671.1658ZM204.4347,1254.3894c52.6569,63.5989,31.9929,98.5848,86.5485,176.4282-70.21-44.35-83.44-150.1626-128.0811-218.5345C114.1237,1095.4477,194.4356,1205.7372,204.4347,1254.3894Zm25.1819,18.5192c-32.6812-11.4-31.1053-62.59-46.2984-89.6206C141.144,1054.3626,239.2168,1233.1464,229.6166,1272.9086ZM254.06,1044.6265l-10.9423-3.9393C156.5411,1001.12,307.614,1023.6365,254.06,1044.6265ZM714.0771,2050.3134h-.01c-42.3492-9.036-71.2761-53.1068-101.3018-81.917-88.9786-56.4819-146.735-151.1992-195.5819-241.7534C354.214,1631.5562,278.59,1536.2651,235.5985,1425.09c-50.5-115.4833,31.7378,8.5984,43.4388,51.8427,26.4564,84.4071,109.5794,132.9328,117.9832,188.9189,92.1591,53.1556,44.9075,139.6636,122.253,164.0869,34.3349-17.44,37.8364,104.434,110.9121,79.0476-40.6378,19.0154,16.9727,41.406,37.3985,76.84C713.63,1979.5819,814.6982,2087.5856,714.0771,2050.3134ZM332.3974,885.6751c82.3059-2.7429,55.9177,45.6662,9.1039,48.8469-1.0311,3.18-42.7387-9.9794-25.4447-21.4278C444.9041,929.3765,204.882,872.5152,332.3974,885.6751ZM524.6134,1362.13c49.547-20.99,20.4161,97.7617,69,112.1374,94.8242,123.7608-65.9555,3.6767-119.5685-8.3357l-.01-.01c6.8767-.428-47.446-15.3778-24.0248-20.7175-17.1868-17.6832-55.597-81.7422,32.0977-38.8675C551.945,1441.3044,557.8781,1417.7175,524.6134,1362.13Zm156.0818,272.2269c-48.0392-1.3422-62.4637-5.0967,6.04,36.8345-26.9134,21.6807,54.2449,38.9062,26.3883,71.2958,82.6171,64.4772-15.0084,16.2821-50.2381-10.0671l-.01,0c-20.8536-14.4245-105.7666-43.2443-92.6063-62.26,100.2416,52.6694,25.5128-2.0328-18.6361-37.0095,80.7885,19.7838-64.8179-59.8572,12.2166-38.8673,22.76,5.5343-34.5974-47.1349,40.7056-8.7733-74.0969-60.0518,51.8426-10.31,83.58-4.0656C692.5812,1600.3241,598.3893,1597.5227,680.6952,1634.3571Zm21.175,233.2916-20.4649-4.445c-84.5432-67.0937,39.48-47.0083,94.4936-17.6828C896.8876,1872.4147,750.211,1904.7168,701.87,1867.6487Zm234.05,124.0136-13.588-5.2718-15.5917-7.0615C836.5148,1916.8651,1054.0979,2025.0634,935.92,1991.6623Zm1.0309-62.6291-18.889-6.2445C834.7445,1870.5766,1022.8076,1940.0826,936.9512,1929.0332Zm-27.1079-82.5007c-73.7078-16.9731,26.8454-23.6551,45.6176,4.1434C1082.4021,1871.0239,947.4462,1879.9334,909.8433,1846.5325Zm-13.8118,19.0733c57.8924,7.8885,58.2037,34.296-5.8359,17.8191-11.38-7.003-29.7632-6.6138-35.56-21.3789C766.6684,1805.953,864.9358,1836.6792,896.0315,1865.6058Zm334.6907,430.78c-113.781-14.3077-215.2972-61.6274-319.099-106.4669l0,0c-15.0665-7.1783-29.2575-16.02-43.6236-24.4234-71.354-39.4994-62.5223-47.6406,6.8476-8.715,24.56,19.5213,198.4606,90.6224,115.6486,43.6431-35.8034-8.9777-236.861-119.4519-104.3076-71.0622,106.0293,65.5278,228.2532,100.1932,341.47,150.6157,99.6194,13.0433,204.7441,39.5,302.6906,18.4513,81.664,40.8321,166.4505-10.5533,248.4259,26.4563C1597.6371,2360.1139,1411.2276,2321.4508,1230.7222,2296.3855Zm42.3008-48.341c124.85,46.308-74.5541,15.3388-115.7653-10.68C1041.502,2188.45,1252.0819,2252.4409,1273.023,2248.0445Zm183.17-70.5953c61.0537-52.3288,63.2712-26.9035,62.7072,16.1656-54.566,60.1587-22.1959-24.6763-55.9666,8.0049l0,.01C1431.8381,2226.4224,1439.3278,2186.8062,1456.1934,2177.4492Zm154.1661,46.24-10.3589,3.3653C1597.1994,2192.5253,1667.4736,2186.8741,1610.36,2223.6891Zm91.6534,24.88-15.3292,10.0476C1657.6888,2238.4443,1775.2149,2195.7642,1702.0129,2248.57Zm399.6738-63.2224c-19.5209,41.0843-140.5546,3.2984-193.6631,14.0446l-22.7722-1.39-14.1231-2.237C1878.6372,2139.7977,2037.2,2183.752,2101.6867,2185.3472ZM875.39,1171.3147c4.9079-7.8,47.8044-12.2182,14.1153,45.4918-26.6507-58.71-38.1086,119.4419-20.99,39.49,47.0474-75.6142,34.7335-4.0656,49.09,29.3255,9.23,69.3309,40.0248,133.3024,49.3623,194.6868,43.4485,43.8181-18.6361,14.113-18.3833,73.3381,14.1229-17.177,71.8793,24.2289,71.49,85.74,4.7757-97.45,10.3685-22.8477,57.8827,2.4706,39.7623,64.04,69.3311,123.8968,128.5462,176.5662,46.1817,53.4279-2.7428,16.1557,17.294,48.7786,49.1,87.0722,162.7544,137.31,261.09,160.0212,43.1275,56.1611,107.8676,112.0791,195.5038,86.5566-74.2138,45.744,208.936,58.194,113.149,84.0181-49.79,26.9812-96.9933-17.3524-145.5093-14.9985-67.4927-23.2172-174.339-94.581-246.7142-46.1719-99.9889,62.7072,51.259-69.8366-29.89-10.563-82.3035,98.7113-55.8519-61.4219-136.0567-13.554-4.6527-15.3152-71.2982-19.519-20.8617-46.42-45.2089-2.7915-17.041-5.6609-.6323-41.795-19.4045-4.0074-127.34-.2431-169.8255-35.7353-49.9166-64.9346,8.7149-38.5465,60.8688-29.0631-83.5609,14.6873,28.9461,62.6974,84.8446,35.9981-25.1917-10.7674-53.9239-65.129-120.3952-112.5751-92.9178-56.0445-169.4949-82.6953-265.7878-127.34-104.3854-61.89,23.4019-21.7585,59.468,10.8061,104.0547,45.9289,63.1546-64.3606,2.8014-93.1027-57.2089,2.31-77.7118-53.9545-116.34-66.5663,72.2574,5.1124,114.4024-30.7941,28.82-108.0935-88.5407-103.3542,36.8734,77.7153-14.7064,54.4493-23.4606-30.9108-5.904-75.1668-80.76-91.2155-.7585,28.6252-10.0669,72.7643-26.4073,12.7224-20.854,3.56-44.7812,26.34-61.88-35.4826,16.1557-70.2937-69.6421-86.3133-82.87-131.2792,74.0384,47.31,107.5465,9.9308,55.0813-41.7172-36.1246-63.0962-41.1629-13.481-61.248-4.7076-72.6378,74.1553-6.6141-128.0405-38.8674-69.72-32.5646-.8851-13.9285,35.8228-13.3447,81.3042-106.1657-26.359,25.6779,55.83,56.4141,101.0589-48.5453-50.7727-40.2,38.0793-80.7111-4.1338-13.7437-37.34-15.7181-96.3609-83.1329-106.7976,76.6353-26.5923-45.4814-80.4485-35.3076-83.3177,43.8961-39.8788,49.4792-94.649,102.3333-8.8317-66.9673-5.35-2.0328,110.3964,14.4438,75.8671-2.5385-59.3319,27.4191-121.7277-73.7758-149.1372-29.7632,40.0637-81.1-78.3766-21.6222-53.3015-7.83-78.7365,92.4216-32.38,86.0509-66.413,51.648-22.6336-62.5225-95.7773-1.2061-125.0348,47.1153,28.7322,169.4949-45.2287,87.1886-55.4025,51.5217-.5058,92.7333,22.0112,98.1413-30.1426,41.6586,8.968,154.1753,44.9756,51.969-11.38,32.5642-16.2142,101.5643-30.0941,141.3752-30.6582,98.3453-76.47,78.0459,124.0232,55.4122,180.1163,37.3306-25.503,30.269,118.1679,18.1207,171.79C889.3161,1050.0708,897.6684,1120.81,875.39,1171.3147ZM540.9538,437.9326c-66.3931-34.5974,13.3547,41.727-42.3589,40.3265-30.0939.4472-85.8563-64.2925-67.473-96.8571C463.6183,395.6418,530.08,402.3238,540.9538,437.9326ZM426.3558,337.5547h-.01l-18.14-.9436C403.44,298.8916,516.21,325.6687,426.3558,337.5547ZM293.7828,233.889c-51.3854-24.1026.5738-115.6878,54.6924-72.6378C412.7871,247.7591,230.492,151.2715,293.7828,233.889ZM414.5086,435.3259c75.1767,57.1826-41.97-.175-89.62,35.7548C249.9161,478.7063,407.1362,428.848,414.5086,435.3259Zm22.3908,74.0384c43.2441.8952,233.5442-85.3505,170.1272-9.0845,53.4745,63.7827,19.9785,49.46-16.6045,8.6085,17.9963,34.79-8.4264,107.55-55.5667,44.7419-33.5663-62.5766-56.1625-32.4215-33.02,8.8236-46.8916-52.6353-149.282-23.6448-225.9174,2.361C222.0679,558.84,416.1048,518.7015,436.8994,509.3643ZM197.4314,689.7338c-20.4157,50.3738,29.3256,66.7825,77.083,75.8671,77.3458-21.4276-50.8894-35.1032,7.5674-55.3929,32.1267-5.9136-102.5276-32.3017,9.61-47.3779,115.0068-19.3462,218.5462-64.37,332.5122-88.0253,102.8386-20.4842,200.2891-32.117,293.3431-24.2386,37.3791,43.5651-28.3142,117.03-96.5557,121.932-83.0064,31.0375-167.2189,38.7409-244.2337,48.9732-98.89-12.4694-169.8159,76.3147-272.217,87.5683,27.2925-50.4225-22.39-17.1577-74.35-19.7158,26.398,101.8855-182.6742-27.1468-59.147-51.6967-92.5372-32.8816-93.8806,64.4739-84.2159,119.9381l-6.29-.0581C-4.3168,748.2389,90.07,703.72,197.4314,689.7338Z"/>
</svg>
