<svg id="Layer_1" data-name="Layer 1" xmlns="http://www.w3.org/2000/svg" width="731.5653" height="1030.8362" viewBox="0 0 731.5653 1030.8362">
  <defs>
    <style>
      .cls-1 {
        fill: #ff008b;
      }

      .cls-2 {
        fill: #ff40a8;
      }
    </style>
  </defs>
  <g id="ears">
    <path class="cls-1" d="M93.9419,502.9068H93.94A46.9706,46.9706,0,1,0,4.04,522.2427L50.52,689.87c3.7222,13.3076,14.16,23.0117,26.5923,24.7226a28.7055,28.7055,0,0,0,3.9121.2676A32.1059,32.1059,0,0,0,98.1,709.6724l3.8423-2.4736ZM79.2925,698.7407c-6.1138-.8408-11.3594-6.0146-13.3594-13.164L27.176,545.8032l-3.8006-13.7064-1.9829-7.1512-.39-1.4075-1.9207-6.0123L18.04,514.2647l-.9478-2.9668c-.0344-.1267-.0753-.2508-.1082-.3782a30.9684,30.9684,0,1,1,60.9626-7.7786l.0019-.0023.0125.3947.0246.782,1.2907,32.9611,6.2973,160.8089A13.809,13.809,0,0,1,79.2925,698.7407Z"/>
    <path class="cls-1" d="M629.6229,707.1838l3.8423,2.4736a32.1056,32.1056,0,0,0,17.0757,5.1875,28.7066,28.7066,0,0,0,3.9121-.2676c12.4321-1.7109,22.87-11.415,26.5923-24.7226l46.4805-167.627a46.9654,46.9654,0,1,0-89.9008-19.3359h-.0016Zm16.3691-9.1133,6.2973-160.8089,1.2907-32.9611.0247-.782.0125-.3947.0018.0023a30.9732,30.9732,0,1,1,60.9626,7.7786c-.0328.1274-.0738.2515-.1081.3782l-.9478,2.9668-1.0418,3.2611-1.9208,6.0123-.39,1.4075-1.9829,7.1512-3.8006,13.7065L665.6322,685.5617c-2,7.1494-7.2456,12.3232-13.3594,13.1641A13.8107,13.8107,0,0,1,645.992,698.0705Z"/>
  </g>
  <g id="sBeard">
    <path class="cls-2" d="M650.8093,745.8062a284.9747,284.9747,0,0,1-282.12,284.99c-.96.03-1.93.04-2.91.04-.97,0-1.94-.01-2.91-.04a284.9748,284.9748,0,0,1-282.11-284.99q0-13.245,1.2-26.29a285.4126,285.4126,0,0,1,8.87-49.23q-.39,4.2751-.39,8.64a97.0427,97.0427,0,0,0,7.83,38.24c15.53,36.28,52.44,61.86,95.4,61.86,2.95,0,5.87-.13,8.76-.37a104.3888,104.3888,0,0,0,16.62-2.7,62.6958,62.6958,0,0,0,10.52,13.69,62.0263,62.0263,0,0,0,74.57,9.53l4.47-2.34v.01a123.5886,123.5886,0,0,1,115.45.59l-.03-.03,2.76,1.39a62.0137,62.0137,0,0,0,75.21-9.15,62.6958,62.6958,0,0,0,10.52-13.69,104.2045,104.2045,0,0,0,16.62,2.7c2.89.24,5.81.37,8.76.37,42.96,0,79.87-25.59,95.39-61.86a96.8737,96.8737,0,0,0,7.84-38.24c0-2.91-.14-5.79-.39-8.64a284.4445,284.4445,0,0,1,8.86,49.23C650.3893,728.2062,650.8093,736.9762,650.8093,745.8062Z"/>
  </g>
  <path id="oBeard" class="cls-1" d="M649.6019,719.5186a284.7013,284.7013,0,0,0-8.8622-49.2339c.2524,2.8486.3888,5.7287.3888,8.64a96.94,96.94,0,0,1-7.8346,38.2382c-15.5226,36.2787-52.4326,61.8624-95.3939,61.8624-2.9527,0-5.8748-.1277-8.7654-.3645a105.6188,105.6188,0,0,1-16.62-2.7016,62.2956,62.2956,0,0,1-54.0611,31.5388,61.7137,61.7137,0,0,1-31.6637-8.7029l-2.7608-1.3892.0293.0277a123.6,123.6,0,0,0-115.4475-.5823l.0036-.014-4.4771,2.3372a62.0059,62.0059,0,0,1-74.5683-9.5321,62.5352,62.5352,0,0,1-10.5177-13.6834,105.6068,105.6068,0,0,1-16.62,2.7018c-2.8906.2368-5.8127.3645-8.7654.3645-42.9609,0-79.8707-25.5834-95.3936-61.8615a96.9415,96.9415,0,0,1-7.835-38.2391c0-2.91.1363-5.789.3885-8.6364A284.7146,284.7146,0,0,0,81.9636,719.52q-1.1845,13.0349-1.2062,26.2914A284.9888,284.9888,0,0,0,362.8727,1030.8q1.4514.0336,2.91.0354,1.4592,0,2.91-.0354a284.9886,284.9886,0,0,0,282.1153-284.989Q650.8082,732.5609,649.6019,719.5186Zm-93.59,216.521A269.0179,269.0179,0,0,1,96.7657,746.4929a120.1569,120.1569,0,0,0,96.9,48.532,122.8243,122.8243,0,0,0,18.106-1.3364,78.0417,78.0417,0,0,0,61.3412,29.8091c.324,0,.643-.0205.966-.0244a77.6871,77.6871,0,0,0,33.7279-8.1275l-.0147.0136,3.4047-1.6642a107.776,107.776,0,0,1,109.7822.3606l3.4886,1.6435-.0038-.0125a77.6851,77.6851,0,0,0,33.0236,7.7863c.3232.0041.6423.0246.9663.0246a78.0408,78.0408,0,0,0,61.3409-29.8091A122.8093,122.8093,0,0,0,537.9,795.0249a120.1564,120.1564,0,0,0,96.9-48.5326A267.2426,267.2426,0,0,1,556.0123,936.04Z"/>
  <g id="sHair">
    <path class="cls-2" d="M681.6593,375.4862a197.027,197.027,0,0,1-60.1,141.48,110.0316,110.0316,0,0,0,.91-14.15q0-4.875-.42-9.66a110.1849,110.1849,0,0,0-55.63-85.99,65.3928,65.3928,0,0,0,38.71-88.43l-.12-.27a65.3577,65.3577,0,0,0-6.19-10.86c-.04-.06-.08-.13-.13-.2-1.41-2.16-2.83-4.16-4.24-6.02-1.58-2.08-3.15-3.99-4.65-5.71h-.01a94.4925,94.4925,0,0,0-32.1-26.08,89.3712,89.3712,0,0,0-15.35-5.82c-12.88-3.57-24.67-3.68-34.96-3.13-32.52,1.73-53.53,12.8-82.6,28.12-21.41,11.28-45.67,24.07-80.93,36.77-2.09.75-37.45,13.37-76.04,19.74-5.31.88-10.68,1.63-16.04,2.22a211.7877,211.7877,0,0,1-23.32,1.39c-2.97,0-5.9-.08-8.77-.25a486.5927,486.5927,0,0,1-50.07-5.98l-.57-.12a140.3474,140.3474,0,0,1-44.23-19.85,65.5965,65.5965,0,0,0,40.89,84.67,110.0448,110.0448,0,0,0-55.37,86.75c-.23,2.87-.35,5.78-.35,8.71a109.7161,109.7161,0,0,0,1.05,15.15,197.1932,197.1932,0,0,1-61.12-142.48,195.6966,195.6966,0,0,1,18.48-83.23,125.9312,125.9312,0,0,1-62.6-108.78c0-2.22.06-4.44.17-6.64a126.0192,126.0192,0,0,1,3.63-24.11,59.4408,59.4408,0,0,0,113.22-16.2,113.2953,113.2953,0,0,1-39.39-21.14,114.1647,114.1647,0,0,1-18.39-19.21c.1-.08.21-.15.31-.23a165.0319,165.0319,0,0,0,24.7,4.02,132.599,132.599,0,0,0,39.16-2.37c21.11-4.58,34.92-13.21,49.54-22.35,18.35-11.47,37.33-23.32,70.84-27.67a180.6458,180.6458,0,0,1,24.69-1.51l.02-.1a228.8084,228.8084,0,0,0-45.13-7.18q-11.94-.7651-24.71-.57c-4.55.08-9.04.25-13.44.5l-.27-.54c11.77-5.78,23.75-10.98,35.76-15.55a366.7746,366.7746,0,0,1,60.24-17.43c37.89-7.35,72.23-6.89,102.64,1.3,4.12,1.11,8.16,2.38,12.13,3.77a123.7973,123.7973,0,0,1,45.37,24.51c1.25.96,2.5,1.93,3.73,2.93,1.63,1.51,3.22,3.08,4.77,4.69a123.5371,123.5371,0,0,1,16.2,20.82c1.3,2.04,2.53,4.13,3.71,6.25q1.815,3.3,3.44,6.69a123.2813,123.2813,0,0,1,11.94,51.1c1.6-2.75,3.11-5.56,4.48-8.44.1-.2.19-.4.29-.6.43-.93.85-1.86,1.26-2.8.14-.32.28-.63.41-.95.39-.92.77-1.84,1.14-2.77.11-.27.21-.56.32-.83q1.065-2.7752,1.99-5.6c.09-.29.19-.57.28-.85.25-.79.47-1.58.71-2.37.17-.59.35-1.19.51-1.79.2-.73.39-1.47.58-2.21.18-.69.34-1.4.51-2.1.15-.67.31-1.35.46-2.03.2-.95.38-1.91.56-2.88.11-.57.22-1.15.32-1.73.21-1.25.4-2.51.57-3.77.07-.52.13-1.05.19-1.57.12-.97.23-1.94.32-2.92.05-.55.1-1.09.14-1.64.08-1.02.15-2.04.2-3.06.03-.48.06-.97.07-1.45.06-1.5.1-3,.1-4.51,0-.42-.01-.83-.01-1.25a113.9738,113.9738,0,0,0-1.33-16.21,123.3418,123.3418,0,0,1,15.73-2.94,124.4029,124.4029,0,0,1,139.34,123.44,123.7276,123.7276,0,0,1-25.01,74.71A196.013,196.013,0,0,1,681.6593,375.4862Z"/>
  </g>
  <path id="oHair" class="cls-1" d="M634.8,248.1326A124.2807,124.2807,0,0,0,535.463,49.0816a125.035,125.035,0,0,0-14.9973.9071,123.534,123.534,0,0,0-15.7314,2.9384,113.4738,113.4738,0,0,1,1.3316,16.2094c.0045.4155.0158.8293.0158,1.2458,0,1.5129-.0383,3.0166-.0976,4.5151-.0191.4835-.05.9641-.075,1.446q-.08,1.5342-.1987,3.0582-.0655.8252-.1422,1.6468c-.0918.9753-.2,1.946-.3162,2.9141-.0632.5243-.12,1.05-.19,1.5726q-.2554,1.8979-.5749,3.7755c-.0982.5788-.2085,1.1534-.3155,1.7292-.1785.963-.3626,1.9241-.5654,2.8784-.1448.68-.3033,1.3545-.46,2.03q-.2447,1.0542-.5068,2.1015-.28,1.1072-.58,2.2069c-.1645.6-.3393,1.1957-.5135,1.7919-.2312.79-.4591,1.581-.7069,2.3636-.09.2849-.19.5653-.2828.8493q-.9228,2.8344-1.9886,5.6022c-.1068.2776-.2082.5578-.3172.8343-.3665.9292-.75,1.85-1.14,2.7672-.135.3175-.27.6349-.408.951q-.615,1.4094-1.2639,2.8006c-.0936.2-.191.3974-.2858.5964-1.3743,2.8853-2.88,5.6951-4.4836,8.4412A123.1974,123.1974,0,0,0,478.7251,76.16q-1.62-3.4029-3.439-6.6891-1.762-3.1866-3.7032-6.2568A123.9846,123.9846,0,0,0,455.378,42.3938q-2.3256-2.4094-4.7656-4.6916c-1.229-1.0008-2.4829-1.9656-3.7373-2.9292a123.8626,123.8626,0,0,0-45.365-24.51c-3.9732-1.3912-8.0111-2.6572-12.1294-3.7659C358.9742-1.6889,324.6275-2.15,286.7443,5.1919A367.0377,367.0377,0,0,0,226.502,22.6238c-12.0082,4.5706-23.9893,9.7734-35.7587,15.5505l.2662.5423q6.6015-.3739,13.44-.4964,12.7845-.2121,24.7053.565A228.5822,228.5822,0,0,1,274.2922,45.97l-.0195.0955a180.7283,180.7283,0,0,0-24.692,1.5105C216.068,51.9214,197.09,63.78,178.736,75.2476c-14.6211,9.1357-28.4312,17.7646-49.5371,22.3447a132.354,132.354,0,0,1-39.1556,2.37,164.4481,164.4481,0,0,1-24.7047-4.0158c-.1017.0773-.2071.15-.3085.2273a114.2644,114.2644,0,0,0,18.394,19.2151A113.1979,113.1979,0,0,0,122.81,136.5233,59.4654,59.4654,0,0,1,9.5936,152.7283,125.3426,125.3426,0,0,0,5.9631,176.84q-.1722,3.2982-.1749,6.6384A125.9488,125.9488,0,0,0,68.3873,292.2592,196.5522,196.5522,0,0,0,94.0231,499.5508,198.6434,198.6434,0,0,0,111.03,517.9683a110.1389,110.1389,0,0,1-1.0513-15.15c0-2.9329.1239-5.8369.351-8.7124a109.9991,109.9991,0,0,1,55.3713-86.7481,65.4931,65.4931,0,0,1-40.8954-84.6737,140.6982,140.6982,0,0,0,44.2337,19.8529l.5742.1241a489.4909,489.4909,0,0,0,50.07,5.98q4.3044.2505,8.7656.2461A213.8,213.8,0,0,0,251.7729,347.5c5.3555-.5919,10.7272-1.3487,16.039-2.2251,38.5847-6.365,73.9511-18.9841,76.0344-19.7344,35.2583-12.7041,59.5254-25.4921,80.936-36.7763,29.0694-15.3194,50.0723-26.3877,82.5967-28.1192,10.2923-.5454,22.0847-.4348,34.9583,3.1316a88.8308,88.8308,0,0,1,15.3547,5.8225A94.503,94.503,0,0,1,589.79,295.68l.0083-.0054c1.5049,1.7229,3.0681,3.63,4.6489,5.7146,1.41,1.86,2.8348,3.8614,4.2458,6.0182.0448.0685.0836.1346.1281.203a65.5523,65.5523,0,0,1,6.1922,10.86c.04.09.0787.18.1186.27a65.5659,65.5659,0,0,1-38.7167,88.4309,110.0589,110.0589,0,0,1,55.6328,85.9885q.4186,4.7747.4234,9.6587a110.2587,110.2587,0,0,1-.9108,14.1494A198.6254,198.6254,0,0,0,638.39,498.499,196.49,196.49,0,0,0,634.8,248.1326Zm.6642,227.3077a125.7827,125.7827,0,0,0-39.3536-66.627A81.2775,81.2775,0,0,0,612.248,298.9047l.0127-.0065-.166-.2187q-1.6356-2.3413-3.4309-4.5574l-3.243-4.35-.002.0043q-1.9371-2.6511-4.0069-5.1676l-.17-.2236.0089.0246a110.2578,110.2578,0,0,0-36.5344-29.1858c-22.3359-10.914-42.8271-11.375-58.1884-10.5556-36.0279,1.917-59.4952,14.2842-89.2051,29.9414-20.9483,11.04-44.6914,23.5517-78.899,35.8779-.49.1756-35.07,12.5084-72.1823,18.7966-5.27.893-10.59,1.6618-15.8714,2.2588a177.3075,177.3075,0,0,1-29.7558,1.1253,474.1779,474.1779,0,0,1-47.9151-5.711,124.7856,124.7856,0,0,1-53-28.6192,81.3,81.3,0,0,0,16.224,110.8439,125.7479,125.7479,0,0,0-39.1545,67.2725A180.62,180.62,0,0,1,82.69,299.44q3.399-7.3062,7.41-14.2536a110.1994,110.1994,0,0,1-68.0293-93.8639A75.42,75.42,0,0,0,139.36,128.55c0-1.54-.0608-3.0664-.1523-4.5842A96.4679,96.4679,0,0,1,122.69,119.64c-2.9944-1.0756-5.9148-2.3053-8.7657-3.6582a141.851,141.851,0,0,0,18.6675-2.753c23.8286-5.1709,39.4834-14.9531,54.6226-24.4121,17.6762-11.0449,34.372-21.4775,64.4238-25.374a162.19,162.19,0,0,1,28.483-1.1787c2.7755.13,5.4435.3288,7.9989.5791a138.5774,138.5774,0,0,1,31.5855,6.6553q5.6029,1.956,11.0424,4.4216a143.31,143.31,0,0,1,44.8472,32.0168l1.3643-1.2929a148.9962,148.9962,0,0,0-20.5317-28.543,145.0725,145.0725,0,0,0-17.3331-15.9453A158.797,158.797,0,0,0,304.016,39.4973a185.2373,185.2373,0,0,0-17.7235-6.5713c-.8068-.2542-1.6029-.5211-2.4174-.7663q-9.7048-2.9226-20.1537-4.9826a304.9424,304.9424,0,0,1,45.1166-9.253q2.1982-.2713,4.41-.5039c23.5964-2.5027,48.2113-1.7805,71.9432,4.57,3.6446.9752,7.265,2.0991,10.861,3.3471a143.1369,143.1369,0,0,1,40.786,21.8915,107.8277,107.8277,0,0,1,27.0454,129.098,118.6654,118.6654,0,0,0,10.8611-7.4286l.0016-.0012c2.0418-1.5682,4.1107-3.2506,6.1943-5.09a119.2373,119.2373,0,0,0,24.83-30.69,128.2562,128.2562,0,0,0,16.3109-62.7354c0-1.4949-.0349-2.9816-.0856-4.4646a108.376,108.376,0,0,1,121.8121,107.51,107.7515,107.7515,0,0,1-20.0522,62.7275,109.1891,109.1891,0,0,1-10.2692,12.365q5.626,5.7038,10.7468,11.8833A180.5511,180.5511,0,0,1,635.4645,475.44Z"/>
  <g id="sMustache">
    <path class="cls-2" d="M657.1293,678.9262c0,64.02-53.49,116.1-119.23,116.1a120.19,120.19,0,0,1-95.99-47.32h-152.26a120.1706,120.1706,0,0,1-95.98,47.32c-65.75,0-119.23-52.08-119.23-116.1,0-1.45.03-2.88.09-4.32l.03-.81c.06-1.38.15-2.76.26-4.13.02-.25.04-.5.07-.75.12-1.38.26-2.76.43-4.13,0-.04.01-.09.01-.13.18-1.41.39-2.81.62-4.2l.12-.72c.24-1.37.49-2.73.78-4.08.04-.17.08-.35.11-.52.3-1.39.62-2.76.96-4.12a.2342.2342,0,0,0,.02-.08c.36-1.39.74-2.77,1.15-4.14.05-.18.1-.35.16-.52.41-1.37.84-2.73,1.3-4.07a1.5776,1.5776,0,0,0,.07-.2q1.455-4.1848,3.22-8.24c.04-.09.08-.19.12-.28a116.1071,116.1071,0,0,1,6.11-11.97.5567.5567,0,0,0,.05-.08,114.8141,114.8141,0,0,1,7.53-11.25,94.6539,94.6539,0,0,0-2.87,33.66c2.2,21.69,12.17,41.64,28.33,55.33.06.06.13.11.19.17.21.19.42.39.64.58.27.24.56.48.84.71.5.43,1.01.85,1.52,1.26.09.07.17.14.25.2a1.0758,1.0758,0,0,1,.11.09c.02.02.05.03.07.05.54.43,1.09.84,1.64,1.26.13.09.26.18.39.28a63.82,63.82,0,0,0,5.63,3.66c.02.01.04.03.06.04h.01c.36.21.71.41,1.07.61.13.07.26.14.39.22.1.05.2.11.3.16v-.01c.09.05.19.09.28.14.88.47,1.78.91,2.69,1.34.18.08.35.17.53.25,1.01.46,2.03.9,3.06,1.3a1.5541,1.5541,0,0,0,.19.08c1.11.44,2.24.85,3.39,1.22.16.05.32.09.47.14.94.3,1.88.58,2.84.83.12.04.24.08.37.11a90.47,90.47,0,0,0,38.07,2.92l-.01.01a107.5749,107.5749,0,0,0,11.53-2.04c2.88-.59,5.55-1.29,8.05-2.06,0-.01,0-.01.01-.01a83.9527,83.9527,0,0,0,18.43-8.34c.79-.47,1.56-.95,2.33-1.43,2-1.23,3.98-2.47,5.96-3.75,3.96-2.54,7.98-5.12,12.38-7.53a90.79,90.79,0,0,1,26.85-9.78,118.1128,118.1128,0,0,1,23.24-2.16,107.4952,107.4952,0,0,1,15.99,1.24c.78.12,1.56.25,2.33.39,17.35,3.17,30.78,10.9,38.86,22.35,5.53,7.83,8.57,17.24,9.08,28.03h5.28c.52-10.79,3.56-20.2,9.09-28.03,8.07-11.45,21.51-19.18,38.86-22.35.77-.14,1.54-.27,2.33-.39a107.36,107.36,0,0,1,15.98-1.24,118.1428,118.1428,0,0,1,23.25,2.16,90.79,90.79,0,0,1,26.85,9.78c4.4,2.41,8.41,4.99,12.38,7.53,1.98,1.28,3.96,2.52,5.95,3.75.78.48,1.55.96,2.34,1.43a83.9527,83.9527,0,0,0,18.43,8.34.01.01,0,0,1,.01.01c2.5.77,5.16,1.47,8.04,2.06a107.7319,107.7319,0,0,0,11.54,2.04l-.01-.01a90.47,90.47,0,0,0,38.07-2.92c.13-.03.25-.07.37-.11.95-.25,1.9-.53,2.83-.83.16-.05.32-.09.48-.14,1.14-.37,2.27-.78,3.39-1.22.06-.02.12-.05.19-.08,1.03-.4,2.05-.84,3.06-1.3.17-.08.35-.17.52-.25.92-.43,1.81-.87,2.7-1.34.09-.05.19-.09.28-.14v.01c.1-.05.2-.11.3-.16.13-.08.25-.15.38-.22.36-.2.72-.4,1.07-.61h.02a.2181.2181,0,0,0,.05-.04,63.9819,63.9819,0,0,0,5.64-3.66c.13-.1.26-.19.39-.28.55-.42,1.1-.83,1.64-1.26.02-.02.04-.03.06-.05a1.05,1.05,0,0,0,.11-.09,2.4461,2.4461,0,0,0,.25-.2q.78-.6151,1.53-1.26c.28-.23.56-.47.84-.71.22-.19.43-.39.64-.58.06-.06.13-.11.19-.17,16.16-13.69,26.13-33.64,28.32-55.33a94.3913,94.3913,0,0,0-2.86-33.66,116.631,116.631,0,0,1,7.53,11.25.2173.2173,0,0,0,.05.08,116.1071,116.1071,0,0,1,6.11,11.97c.04.09.08.19.12.28,1.17,2.7,2.25,5.44,3.21,8.24.02.06.05.13.07.2.46,1.34.9,2.7,1.31,4.07.05.17.1.34.16.52.4,1.37.79,2.75,1.14,4.14a.2354.2354,0,0,1,.02.08c.35,1.36.67,2.73.96,4.12.04.17.08.35.12.52.28,1.35.54,2.71.77,4.08l.12.72c.23,1.39.44,2.79.62,4.2.01.04.01.09.02.13.17,1.37.31,2.75.43,4.13.02.25.05.5.07.75.11,1.37.2,2.75.26,4.13l.03.81C657.0893,676.0462,657.1293,677.4762,657.1293,678.9262Z"/>
  </g>
  <path id="oMustache" class="cls-1" d="M657.0381,674.6087c-.01-.2708-.0189-.5418-.031-.812q-.0931-2.0757-.26-4.1322c-.02-.2487-.0445-.4965-.0663-.7448-.122-1.3835-.2625-2.762-.4341-4.1313-.0055-.044-.01-.0883-.0151-.1321-.1784-1.41-.39-2.81-.62-4.2044-.0392-.2375-.0776-.4756-.1183-.7126q-.3523-2.053-.7761-4.0821c-.0368-.175-.0767-.3491-.1142-.524-.2971-1.3822-.6143-2.7574-.9616-4.1212l-.0179-.0735c-.3555-1.3926-.7418-2.7734-1.1486-4.1456-.0515-.1737-.1026-.3473-.1549-.5205q-.6182-2.0491-1.3081-4.068c-.0232-.0675-.0478-.1343-.0711-.2017q-1.4484-4.1908-3.2115-8.2353-.0618-.1423-.1241-.2845a114.6188,114.6188,0,0,0-6.1079-11.9624l-.05-.0855a116.3391,116.3391,0,0,0-7.5285-11.2477,94.45,94.45,0,0,1,2.8643,33.6579c-2.1976,21.6946-12.1674,41.64-28.3273,55.3319-.0609.0561-.1249.1086-.186.1644-.2139.194-.4245.39-.6426.5817-.2733.24-.5564.4784-.8389.7172-.5.4281-1.0118.8416-1.5249,1.2543-.0842.0675-.1659.1379-.25.2052-.0371.0293-.0734.0587-.1107.088-.02.0162-.0419.0314-.0624.0476q-.8118.6418-1.6453,1.2557c-.1279.0945-.2566.1877-.3852.2813a63.64,63.64,0,0,1-5.6354,3.667c-.0191.011-.0375.023-.0567.034l-.0025.0015-.0107.006q-.533.3066-1.0719.6033c-.129.0715-.2558.1467-.3857.217-.1006.0554-.1966.1125-.2978.1676l-.0023-.0111c-.0907.0483-.1856.09-.2765.1374q-1.33.7017-2.6961,1.3411c-.1765.0828-.3512.168-.5285.249q-1.51.69-3.0593,1.3057c-.0634.0251-.1253.0532-.1889.0781q-1.6735.6544-3.3911,1.2163c-.1566.0513-.3169.0939-.474.1439q-1.4026.4455-2.8316.8288c-.1247.0332-.2456.0759-.3706.1084a90.6234,90.6234,0,0,1-38.0689,2.923l.0061.0048a105.9807,105.9807,0,0,1-11.5354-2.0389c-2.88-.5923-5.5413-1.2888-8.0442-2.0641l-.007-.0021.0057.0017a84.4971,84.4971,0,0,1-18.4406-8.3459c-.7882-.4656-1.5566-.95-2.3321-1.4263-1.9965-1.2276-3.9729-2.4764-5.9569-3.75-3.9632-2.5445-7.9768-5.1214-12.381-7.5336a90.8576,90.8576,0,0,0-26.849-9.7779A117.6927,117.6927,0,0,0,434.6816,679.7a108.2621,108.2621,0,0,0-15.9839,1.2336q-1.1753.1834-2.3284.3928c-17.3492,3.1728-30.7881,10.9-38.8643,22.3467-5.53,7.8366-8.5669,17.2473-9.081,28.0361h-5.2828c-.5141-10.7888-3.5514-20.2-9.081-28.0361-8.0762-11.4463-21.5152-19.1739-38.8643-22.3467q-1.1517-.2106-2.3284-.3928a108.2624,108.2624,0,0,0-15.984-1.2336,117.6917,117.6917,0,0,0-23.2447,2.1567,90.8576,90.8576,0,0,0-26.849,9.7779c-4.4042,2.4122-8.4179,4.9891-12.381,7.5336-1.9841,1.2738-3.96,2.5226-5.9569,3.75-.7755.4768-1.5439.9607-2.3322,1.4263a84.4928,84.4928,0,0,1-18.4406,8.3459l.0058-.0017-.007.0021c-2.5029.7753-5.1644,1.4718-8.0442,2.0641a105.9849,105.9849,0,0,1-11.5354,2.0389l.0061-.0048a90.6234,90.6234,0,0,1-38.0689-2.923c-.125-.0325-.2459-.0752-.3706-.1084q-1.43-.3816-2.8316-.8288c-.1572-.05-.3174-.0926-.474-.1439q-1.718-.56-3.3911-1.2163c-.0636-.0249-.1255-.053-.189-.0781q-1.5509-.6121-3.0592-1.3057c-.1773-.081-.352-.1662-.5285-.249q-1.3662-.64-2.6961-1.3411c-.0909-.0478-.1858-.0891-.2765-.1374l-.0023.0111c-.1012-.0551-.1973-.1122-.2978-.1676-.13-.07-.2567-.1455-.3857-.217q-.5394-.2967-1.0719-.6033l-.0107-.006-.0026-.0015c-.0191-.011-.0376-.023-.0567-.034a63.6534,63.6534,0,0,1-5.6353-3.667c-.1286-.0936-.2574-.1868-.3852-.2813q-.8328-.6156-1.6453-1.2557c-.02-.0162-.0419-.0314-.0624-.0476-.0373-.0293-.0736-.0587-.1108-.088-.0844-.0673-.166-.1377-.25-.2052-.5131-.4127-1.0251-.8262-1.5249-1.2543-.2825-.2388-.5656-.4773-.8389-.7172-.2181-.1915-.4287-.3877-.6426-.5817-.0612-.0558-.1251-.1083-.186-.1644-16.16-13.6922-26.13-33.6373-28.3273-55.3319a94.45,94.45,0,0,1,2.8643-33.6579,116.3391,116.3391,0,0,0-7.5285,11.2477l-.05.0855A114.6374,114.6374,0,0,0,83.96,633.4829q-.0624.1422-.1241.2845-1.7614,4.0443-3.2129,8.2392c-.0227.0654-.0465.13-.069.1958q-.6933,2.0182-1.3089,4.07c-.0522.1732-.1033.3468-.1548.52-.4068,1.3722-.7931,2.753-1.1486,4.1456l-.018.0735c-.3472,1.3638-.6644,2.739-.9615,4.1212-.0375.1749-.0775.349-.1142.524q-.4257,2.0282-.7761,4.0821c-.0407.237-.0791.4751-.1183.7126-.23,1.3941-.4415,2.7942-.62,4.2044-.0055.0438-.01.0881-.0151.1321-.1717,1.3693-.3121,2.7478-.4341,4.1313-.0219.2483-.046.4961-.0663.7448q-.1675,2.0562-.26,4.1322c-.012.27-.0207.5412-.0309.812-.0541,1.4328-.0905,2.87-.0905,4.3156,0,64.0186,53.4859,116.1006,119.2286,116.1006A120.1845,120.1845,0,0,0,289.6528,747.71h152.26A120.1845,120.1845,0,0,0,537.9,795.0249c65.7427,0,119.2285-52.082,119.2285-116.1006C657.1285,677.4788,657.0922,676.0415,657.0381,674.6087ZM343.6475,731.71H281.321q-1.3857,2.1564-2.8808,4.2375a101.8587,101.8587,0,0,1-9.8836,11.7625,103.826,103.826,0,0,1-33.4553,22.8823q-2.3789,1.0163-4.8186,1.9187t-4.9362,1.6858a105.6489,105.6489,0,0,1-31.6813,4.8286c-56.9205,0-103.2286-44.9052-103.2286-100.1006,0-.6272.0127-1.2517.0246-1.8762A79.6085,79.6085,0,0,0,162.36,731.8318a125.0577,125.0577,0,0,0,34.7418-.3752c21.831-3.3389,34.6455-11.5655,45.9511-18.8243,3.6523-2.3448,7.2286-4.6408,11.05-6.7491a75.6928,75.6928,0,0,1,22.6415-8.3309c.2184-.0432.4419-.0807.6615-.1226a101.0073,101.0073,0,0,1,18.0325-1.7473,89.946,89.946,0,0,1,16.0147,1.2717c12.3149,2.1521,23.3294,7.1507,29.533,15.9439,3.6109,5.1174,5.6592,11.4293,6.13,18.8115ZM537.9,779.0249a105.6489,105.6489,0,0,1-31.6813-4.8286q-2.4963-.7835-4.9362-1.6858t-4.8186-1.9187A103.826,103.826,0,0,1,463.0086,747.71a101.8587,101.8587,0,0,1-9.8836-11.7625q-1.4943-2.0805-2.8809-4.2375H384.4488c.47-7.3822,2.5185-13.6941,6.1294-18.8115,6.2037-8.7932,17.2182-13.7918,29.5331-15.9439a89.946,89.946,0,0,1,16.0147-1.2717,101.0061,101.0061,0,0,1,18.0324,1.7473c.22.0419.4432.0794.6615.1226a75.6924,75.6924,0,0,1,22.6416,8.3309c3.8218,2.1083,7.3981,4.4043,11.05,6.7491,11.3057,7.2588,24.12,15.4854,45.9512,18.8243a125.0577,125.0577,0,0,0,34.7418.3752,79.6086,79.6086,0,0,0,71.8992-54.7837c.0119.6245.0245,1.249.0245,1.8762C641.1285,734.12,594.82,779.0249,537.9,779.0249Z"/>
  <path id="nose" class="cls-1" d="M427.5785,665.5962a13.1556,13.1556,0,0,1-2.65,4.64c-3.3,3.7-7.94,4.42-11.06,4.87-3.57.51-5.48.11-8.36.03-1.74-.05-10.35-.3-17.08,3.29-8.74,4.66-8.71,12.83-17.98,15.6a14.5145,14.5145,0,0,1-9.33,0c-9.27-2.77-9.24-10.94-17.98-15.6-6.73-3.59-15.35-3.34-17.08-3.29-2.88.08-4.79.48-8.36-.03-3.12-.45-7.76-1.17-11.06-4.87a13.2066,13.2066,0,0,1-2.66-4.64c-.22-1.03-1.5-7.24,2.22-11.06a10.1757,10.1757,0,0,1,6.25-2.77c9.72-1.27,18.06,5.08,26.74,8.9a61.4157,61.4157,0,0,0,26.59,4.93,61.4331,61.4331,0,0,0,26.6-4.93c8.68-3.82,17.01-10.17,26.74-8.9a10.1757,10.1757,0,0,1,6.25,2.77C429.0886,658.3562,427.8085,664.5662,427.5785,665.5962Z"/>
  <path id="glasses" class="cls-1" d="M644.0156,469.19a7.9393,7.9393,0,0,0-7.7486-7.9342v-.01H95.2983v.1217a7.9364,7.9364,0,0,0,0,15.8684v.01c-.0738,1.9975-.12,4.0028-.12,6.02,0,78.1192,55.8735,141.6729,124.5512,141.6729,64.8581,0,118.2867-56.6831,124.0309-128.7837,1.9964-7.2322,10.7522-12.7913,21.0053-13.1226,10.9071-.3767,20.91,5.4773,23.0443,13.1856,5.77,72.0705,59.1867,128.7207,124.0255,128.7207,68.6782,0,124.5517-63.5537,124.5517-141.6729,0-2.0177-.0463-4.023-.12-6.02v-.1217A7.9392,7.9392,0,0,0,644.0156,469.19ZM327.9083,493.646c-.0227.319-.0489.6367-.0735.9551-4.9663,64.0039-51.55,114.3379-108.1054,114.3379-59.8554,0-108.5512-56.377-108.5512-125.6729q0-3.0278.1271-6.02H328.1541q.1225,2.9934.1271,6.02Q328.2812,488.5092,327.9083,493.646ZM511.8354,608.939c-56.56,0-103.1473-50.3433-108.1063-114.3555-.0236-.3049-.0486-.6094-.07-.915q-.3662-5.1471-.3747-10.4024,0-3.0278.1272-6.02H620.26q.1225,2.9934.1271,6.02C620.3871,552.562,571.6909,608.939,511.8354,608.939Z"/>
</svg>
