<svg id="Layer_1" data-name="Layer 1" xmlns="http://www.w3.org/2000/svg" width="731.5653" height="1030.8362" viewBox="0 0 731.5653 1030.8362">
  <defs>
    <style>
      .cls-1 {
        fill: #fff;
      }

      .cls-2 {
        fill: #ff008b;
      }

      .cls-3 {
        fill: #ff40a8;
      }
    </style>
  </defs>
  <g>
    <path class="cls-1" d="M684.5946,456.2342a46.6387,46.6387,0,0,0-23.17,6.13c1.47-2.99,2.88-6.01,4.21-9.09.55-1.26,1.08-2.53,1.59-3.8.29-.71.58-1.43.86-2.15.56-1.44,1.11-2.88,1.65-4.33q2.3852-6.54,4.33-13.28.4652-1.62.9-3.24.87-3.2549,1.64-6.55c.5-2.2.98-4.41,1.41-6.63.15-.77.3-1.53.44-2.3q.63-3.45,1.14-6.95.69-4.665,1.14-9.39v-.01c.62-6.31.93-12.68.93-19.15,0-2.05-.03-4.08-.1-6.11a.5633.5633,0,0,1,0-.13q-.09-2.9852-.28-5.96c-.04-.66-.08-1.32-.13-1.98a2.6932,2.6932,0,0,1-.02-.29q-.21-2.9548-.52-5.89-.39-3.885-.95-7.71c-.03-.18-.06-.37-.08-.57-.14-.98-.29-1.95-.45-2.93-.2-1.22-.41-2.43-.63-3.64s-.45-2.42-.69-3.62c-.48-2.4-1-4.79-1.58-7.16-.45-1.9-.94-3.78-1.45-5.66q-1.56-5.7-3.44-11.26-1.7248-5.1148-3.72-10.09-1.59-3.9751-3.36-7.88-1.32-2.9251-2.74-5.8c-.31-.64-.63-1.27-.95-1.91q-1.4548-2.85-2.98-5.65-3.06-5.61-6.48-10.98c-.62-.97-1.24-1.93-1.87-2.89q-2.85-4.32-5.91-8.47-4.08-5.535-8.53-10.78c.09-.12.18-.24.27-.37.09-.12.18-.24.27-.37.32-.43.63-.86.94-1.29.44-.59.86-1.19,1.28-1.79.16-.24.33-.49.5-.73.49-.71.97-1.42,1.44-2.14.11-.18.23-.37.36-.55.58-.89,1.14-1.8,1.7-2.71,1.37-2.2,2.65-4.46,3.86-6.75.4-.77.8-1.53,1.19-2.31.78-1.54,1.53-3.11,2.24-4.69.25-.57.5-1.13.75-1.7a124.3317,124.3317,0,0,0-114.14-173.65q-5.715,0-11.3.51c-1.24.11-2.47.24-3.7.39-.83.1-1.67.21-2.5.33s-1.66.25-2.49.38q-2.4749.4049-4.92.9h-.01c-1.95.39-3.89.84-5.81,1.33v.01a113.816,113.816,0,0,1,1.33,16.2c0,.42.01.83.01,1.25,0,1.51-.04,3.01-.1,4.51,0,.12,0,.24-.01.36,0,.12-.01.25-.02.37-.01.24-.03.48-.04.72-.05,1.02-.12,2.04-.2,3.06-.04.55-.09,1.09-.14,1.64v.01c-.05.49-.09.97-.15,1.45-.05.49-.11.98-.17,1.46-.02.13-.03.27-.04.4s-.03.26-.05.39c-.03.26-.07.52-.1.78-.17,1.26-.36,2.52-.57,3.77v.01c-.1.58-.21,1.15-.32,1.72-.06.34-.13.68-.19,1.02-.11.62-.24,1.25-.37,1.87-.14.68-.3,1.34-.46,2.02v.01q-.24,1.05-.51,2.1c-.18.74-.37,1.47-.58,2.2-.16.6-.34,1.2-.51,1.8-.23.79-.46,1.58-.71,2.36-.09.29-.19.57-.28.85-.3.94-.62,1.88-.96,2.81-.33.94-.67,1.87-1.03,2.79-.05.14-.1.28-.16.42-.05.14-.11.28-.16.41-.37.93-.75,1.85-1.14,2.77-.13.32-.27.63-.41.95-.41.94-.83,1.87-1.26,2.8-.1.2-.19.4-.29.6-.34.72-.69,1.44-1.05,2.15-.36.72-.72,1.42-1.1,2.13-.76,1.4-1.53,2.79-2.33,4.16q-.06-3.42-.29-6.8c-.08-1.12-.18-2.25-.29-3.36-.27-2.79-.64-5.56-1.09-8.29-.19-1.1-.38-2.19-.59-3.27-.35-1.83-.75-3.66-1.19-5.47-.44-1.8-.92-3.6-1.44-5.37q-.27-.96-.57-1.92c-.32-1.04-.66-2.08-1.01-3.11-.74-2.21-1.55-4.38-2.41-6.53-.49-1.21-.99-2.41-1.51-3.6-.5-1.13-1.02-2.26-1.55-3.37q-1.62-3.405-3.44-6.69-1.05-1.89-2.16-3.75c-.25-.42-.51-.84-.76-1.26-.26-.42-.52-.84-.78-1.25q-1.7551-2.8349-3.66-5.56a124.8286,124.8286,0,0,0-12.55-15.26c-.78-.8-1.56-1.59-2.35-2.37a.01.01,0,0,0-.01-.01c-.64-.64-1.29-1.26-1.94-1.87-.15-.15-.31-.3-.46-.44-1.23-1-2.49-1.97-3.74-2.93a124.7276,124.7276,0,0,0-24.13-16.08c-.96-.49-1.93-.97-2.91-1.43-.98-.47-1.96-.92-2.96-1.36-1.34-.6-2.7-1.17-4.07-1.72-.29-.12-.57-.23-.86-.35-.87-.34-1.75-.67-2.63-1-1.02-.37-2.06-.74-3.09-1.08-.35-.12-.7-.24-1.05-.35-.34-.11-.67-.22-1.01-.33-.72-.23-1.45-.45-2.18-.67-.16-.05-.31-.09-.47-.14q-2.985-1.05-6.02-1.99c-2.02-.63-4.06-1.23-6.12-1.78-25.93-6.98-54.71-8.35-86.12-4.04-3.25.44-6.54.95-9.85,1.52q-3.315.57-6.66,1.22a367.4528,367.4528,0,0,0-60.24,17.43c-1.5.57-3.01,1.16-4.51,1.74q-6.75,2.655-13.46,5.58h-.01q-6.705,2.9249-13.36,6.09c-1.47.71-2.95,1.42-4.42,2.14h-.01l.27.54c3.31-.18,6.65-.33,10.04-.42,1.13-.03,2.26-.05,3.4-.07.87-.01,1.75-.03,2.62-.04q8.52-.075,16.65.31c1.83.08,3.64.17,5.44.29a238.93,238.93,0,0,1,35.02,4.74q5.16,1.11,10.11,2.45l-.02.09c-4.96-.04-10.17.13-15.61.56q-2.955.24-6,.58c-1.01.11-2.04.24-3.07.37-23.05,2.99-39.22,9.53-53.03,17.05-.79.43-1.56.86-2.34,1.29-5.4,3.02-10.46,6.19-15.48,9.33-2.06,1.28-4.1,2.56-6.14,3.82-3.07,1.88-6.15,3.72-9.33,5.48s-6.45,3.44-9.88,5.01c-.51.24-1.02.47-1.54.69-1.54.68-3.13,1.34-4.75,1.98-1.09.42-2.19.83-3.31,1.23a118.1853,118.1853,0,0,1-14.59,4.14c-2.75.6-5.54,1.1-8.35,1.51-1.12.17-2.25.32-3.38.45-.57.07-1.14.13-1.71.19-1.13.12-2.27.23-3.42.31q-2.55.195-5.13.3-5.49.2251-11.11-.02-3-.12-6.05-.37c-2.15-.18-4.31-.4-6.49-.68-.83-.1-1.65-.21-2.48-.33-1.37-.19-2.75-.41-4.13-.64-.74-.13-1.48-.25-2.22-.39q-4.6651-.84-9.39-1.98c-.1.08-.2.15-.3.23h-.01c1.25,1.67,2.56,3.29,3.91,4.88.45.53.9,1.06,1.36,1.58v.01c.92,1.04,1.85,2.07,2.8,3.07.95,1.01,1.92,2.01,2.91,2.98q3.57,3.51,7.42,6.7,2.1453,1.77,4.38,3.44c.66.49,1.33.98,2,1.46.07.05.15.11.24.17.67.48,1.34.95,2.03,1.41.72.49,1.44.96,2.18,1.44s1.48.94,2.23,1.4q.735.465,1.5.9c.5.3,1,.59,1.51.88.49.28.98.55,1.47.83.54.29,1.08.59,1.63.88,1.03.54,2.06,1.07,3.1,1.58.53.26,1.06.51,1.59.76.49.24.99.47,1.49.69,1.11.51,2.22.99,3.34,1.46a111.1779,111.1779,0,0,0,10.69,3.83,59.0756,59.0756,0,0,1-3.79,14.31q-.75,1.8451-1.62,3.63c-.58,1.19-1.19,2.36-1.85,3.51q-.9748,1.71-2.07,3.36c-.48.73-.98,1.45-1.5,2.15-.51.71-1.04,1.41-1.59,2.09-.81,1.03-1.66,2.02-2.55,2.99-.59.65-1.19,1.29-1.81,1.9a59.3131,59.3131,0,0,1-74.82,7.72q-.93-.6151-1.83-1.26c-.54-.38-1.08-.78-1.6-1.19-1.11-.85-2.19-1.74-3.24-2.66,0-.01,0-.01-.01-.01-.69-.62-1.37-1.25-2.04-1.9-1.35-1.31-2.64-2.69-3.86-4.12-.61-.71-1.2-1.44-1.77-2.18a.01.01,0,0,0-.01-.01,60.809,60.809,0,0,1-4.69-7.05c-.46-.82-.91-1.65-1.34-2.5-.43-.84-.84-1.7-1.22-2.56v-.01l-.01-.01c-.37,1.46-.71,2.93-1.02,4.4v.02c-.31,1.47-.61,2.96-.87,4.45-.18.99-.34,1.99-.49,3s-.29,2.01-.42,3.03c-.13,1.01-.24,2.03-.35,3.06-.21,2.03-.37,4.09-.48,6.15-.03.55-.05,1.1-.07,1.65v.01c-.04,1.1-.07,2.21-.09,3.32-.01.56-.01,1.11-.01,1.67a126.23,126.23,0,0,0,57.42,105.58q2.55,1.665,5.18,3.2-1.11,2.37-2.16,4.77-1.77,4.05-3.36,8.21-1.05,2.76-2.04,5.57c-.32.93-.64,1.87-.96,2.81-.63,1.89-1.22,3.78-1.79,5.69v.01c-.5,1.69-.99,3.4-1.45,5.11q-1.0353,3.855-1.92,7.77a197.1123,197.1123,0,0,0,9.37,116.62c.44,1.1.89,2.19,1.35,3.28a.01.01,0,0,1,.01.01c.54,1.27,1.09,2.53,1.65,3.79a.01.01,0,0,0,.01.01c.47,1.06.96,2.11,1.45,3.16.48,1.03.98,2.05,1.48,3.07.04.08.07.16.11.23a46.9553,46.9553,0,0,0-66.1,59.87l46.49,167.63c3.72,13.31,14.16,23.01,26.59,24.72a26.6369,26.6369,0,0,0,3.16.25h.01c.51,1.57,1.07,3.13,1.67,4.66v.01q-.735,8.1452-1.03,16.38-.1649,4.95-.17,9.92a285.6264,285.6264,0,0,0,174.59,262.91q3.15,1.32,6.34,2.57,7.95,3.12,16.11,5.75c2.17.71,4.35,1.38,6.54,2.03s4.39,1.27,6.6,1.87c2.21.59,4.42,1.16,6.65,1.71,2.02.49,4.05.97,6.08,1.41.44.11.88.2,1.33.29,2.01.43,4.01.85,6.03,1.24q4.845.93,9.73,1.7c1.45.24,2.91.46,4.37.66,1.36.19,2.73.38,4.09.55,2.74.35,5.48.66,8.24.93,1.38.13,2.76.25,4.14.37.18.02.37.04.57.05.83.07,1.66.13,2.49.19,1.66.12,3.33.23,5,.32.84.05,1.67.09,2.51.13q1.89.105,3.78.15c2.3.09,4.62.14,6.93.16.31.01.63.01.94.01.65.02,1.31.02,1.96.02h.01c.64,0,1.29,0,1.93-.02.33,0,.65,0,.98-.01q1.7548-.015,3.51-.06c1.17-.02,2.33-.06,3.5-.1,1.17-.03,2.34-.08,3.51-.14q5.25-.24,10.45-.67c1.45-.12,2.89-.25,4.33-.39q6.495-.63,12.92-1.56,1.71-.24,3.42-.51c.86-.13,1.71-.27,2.56-.41,1.7-.29,3.4-.58,5.1-.89.85-.15,1.7-.31,2.54-.48,2.25-.43,4.5-.9,6.74-1.39h.01c2.24-.5,4.47-1.01,6.69-1.55,2.23-.55,4.44-1.12,6.65-1.71q3.3148-.9,6.6-1.87c2.19-.65,4.37-1.32,6.54-2.03q8.1449-2.625,16.11-5.75,3.1948-1.245,6.34-2.57a284.4277,284.4277,0,0,0,91.11-61.37c.84-.84,1.68-1.69,2.51-2.54,1.65-1.69,3.29-3.41,4.9-5.14q4.845-5.22,9.38-10.61,2.28-2.7,4.47-5.43c.74-.92,1.47-1.85,2.18-2.77q4.3349-5.535,8.36-11.24v-.01q3.03-4.29,5.88-8.67a283.088,283.088,0,0,0,45.8-155.13q0-5.04-.18-10.05c-.05-1.26-.1-2.51-.16-3.76s-.13-2.5-.21-3.75c-.03-.48-.06-.95-.09-1.43q-.1949-2.9851-.46-5.95c-.01-.11-.02-.23-.02-.34-.03-.34-.05-.67-.08-1.01v-.02q.9-2.31,1.68-4.68a26.946,26.946,0,0,0,3.17-.24c12.43-1.72,22.87-11.42,26.59-24.73l46.48-167.62a46.9471,46.9471,0,0,0-42.93-66Z"/>
    <g id="ears">
      <path class="cls-2" d="M93.9419,502.9093H93.94A46.9706,46.9706,0,1,0,4.04,522.2452L50.52,689.8722c3.7222,13.3076,14.16,23.0117,26.5923,24.7226a28.7055,28.7055,0,0,0,3.9121.2676A32.105,32.105,0,0,0,98.1,709.6749l3.8423-2.4736ZM79.2925,698.7433c-6.1138-.8408-11.3594-6.0147-13.3594-13.1641L27.176,545.8058l-3.8006-13.7064-1.9829-7.1513-.39-1.4075-1.9207-6.0123L18.04,514.2672,17.0918,511.3c-.0344-.1267-.0753-.2507-.1082-.3782a30.9683,30.9683,0,1,1,60.9626-7.7785l.0019-.0023.0125.3946.0246.782,1.2907,32.9612L85.5732,698.088A13.8089,13.8089,0,0,1,79.2925,698.7433Z"/>
      <path class="cls-2" d="M629.6229,707.1863l3.8423,2.4736a32.1047,32.1047,0,0,0,17.0757,5.1875,28.7221,28.7221,0,0,0,3.9121-.2675c12.4321-1.711,22.87-11.4151,26.5923-24.7227L727.5258,522.23a46.9653,46.9653,0,1,0-89.9008-19.3359h-.0016Zm16.3691-9.1133,6.2973-160.8088L653.58,504.303l.0247-.782.0125-.3946.0018.0023a30.9732,30.9732,0,1,1,60.9626,7.7785c-.0328.1275-.0738.2515-.1081.3782l-.9478,2.9668-1.0418,3.2611-1.9208,6.0124-.39,1.4074-1.9829,7.1513-3.8006,13.7064L665.6322,685.5642c-2,7.1494-7.2456,12.3233-13.3594,13.1641A13.8094,13.8094,0,0,1,645.992,698.073Z"/>
    </g>
    <g id="sBeard">
      <path class="cls-3" d="M650.8093,745.8087a284.9745,284.9745,0,0,1-282.12,284.99c-.96.03-1.93.04-2.91.04-.97,0-1.94-.01-2.91-.04a284.9747,284.9747,0,0,1-282.11-284.99q0-13.2449,1.2-26.29a285.4137,285.4137,0,0,1,8.87-49.23q-.39,4.2752-.39,8.64a97.0423,97.0423,0,0,0,7.83,38.24c15.53,36.28,52.44,61.86,95.4,61.86,2.95,0,5.87-.13,8.76-.37a104.3888,104.3888,0,0,0,16.62-2.7,62.691,62.691,0,0,0,10.52,13.69,62.0259,62.0259,0,0,0,74.57,9.53l4.47-2.34v.01a123.5892,123.5892,0,0,1,115.45.59l-.03-.03,2.76,1.39a62.0134,62.0134,0,0,0,75.21-9.15,62.691,62.691,0,0,0,10.52-13.69,104.2045,104.2045,0,0,0,16.62,2.7c2.89.24,5.81.37,8.76.37,42.96,0,79.87-25.59,95.39-61.86a96.8734,96.8734,0,0,0,7.84-38.24c0-2.91-.14-5.79-.39-8.64a284.4456,284.4456,0,0,1,8.86,49.23C650.3893,728.2087,650.8093,736.9788,650.8093,745.8087Z"/>
    </g>
    <path id="oBeard" class="cls-2" d="M649.6019,719.5211a284.7013,284.7013,0,0,0-8.8622-49.2339c.2524,2.8487.3888,5.7288.3888,8.64a96.94,96.94,0,0,1-7.8346,38.2381c-15.5226,36.2787-52.4326,61.8625-95.3939,61.8625-2.9527,0-5.8748-.1277-8.7654-.3645a105.6189,105.6189,0,0,1-16.62-2.7017A62.2956,62.2956,0,0,1,458.4532,807.5a61.7128,61.7128,0,0,1-31.6637-8.7029l-2.7608-1.3891.0293.0277a123.6006,123.6006,0,0,0-115.4475-.5824l.0036-.0139-4.4771,2.3371a62.0059,62.0059,0,0,1-74.5683-9.5321,62.5346,62.5346,0,0,1-10.5177-13.6833,105.6184,105.6184,0,0,1-16.62,2.7018c-2.8906.2368-5.8127.3645-8.7654.3645-42.9609,0-79.8707-25.5834-95.3936-61.8616a96.9411,96.9411,0,0,1-7.835-38.239c0-2.91.1363-5.7891.3885-8.6365a284.7164,284.7164,0,0,0-8.8615,49.2318q-1.1845,13.035-1.2062,26.2914a284.9886,284.9886,0,0,0,282.1153,284.989q1.4514.0338,2.91.0354,1.4592,0,2.91-.0354a284.9885,284.9885,0,0,0,282.1153-284.989Q650.8082,732.5634,649.6019,719.5211Zm-93.59,216.521A269.0179,269.0179,0,0,1,96.7657,746.4955a120.1572,120.1572,0,0,0,96.9,48.532,122.8242,122.8242,0,0,0,18.106-1.3365A78.0414,78.0414,0,0,0,273.1124,823.5c.324,0,.643-.02.966-.0244a77.6856,77.6856,0,0,0,33.7279-8.1274l-.0147.0135,3.4047-1.6642a107.7766,107.7766,0,0,1,109.7822.3606l3.4886,1.6436-.0038-.0126a77.6852,77.6852,0,0,0,33.0236,7.7864c.3232.004.6423.0245.9663.0245a78.0405,78.0405,0,0,0,61.3409-29.8091A122.8092,122.8092,0,0,0,537.9,795.0275a120.1567,120.1567,0,0,0,96.9-48.5326A267.2422,267.2422,0,0,1,556.0123,936.0421Z"/>
    <g id="sHair">
      <path class="cls-3" d="M681.6593,375.4888a197.0256,197.0256,0,0,1-60.1,141.48,110.03,110.03,0,0,0,.91-14.15q0-4.875-.42-9.66a110.1859,110.1859,0,0,0-55.63-85.99,65.3927,65.3927,0,0,0,38.71-88.43l-.12-.27a65.3568,65.3568,0,0,0-6.19-10.86c-.04-.06-.08-.13-.13-.2-1.41-2.16-2.83-4.16-4.24-6.02-1.58-2.08-3.15-3.99-4.65-5.71h-.01a94.4922,94.4922,0,0,0-32.1-26.08,89.3629,89.3629,0,0,0-15.35-5.82c-12.88-3.57-24.67-3.68-34.96-3.13-32.52,1.73-53.53,12.8-82.6,28.12-21.41,11.28-45.67,24.07-80.93,36.77-2.09.75-37.45,13.37-76.04,19.74-5.31.88-10.68,1.63-16.04,2.22a211.7872,211.7872,0,0,1-23.32,1.39c-2.97,0-5.9-.08-8.77-.25a486.53,486.53,0,0,1-50.07-5.98l-.57-.12a140.3407,140.3407,0,0,1-44.23-19.85,65.5968,65.5968,0,0,0,40.89,84.67,110.0438,110.0438,0,0,0-55.37,86.75c-.23,2.87-.35,5.78-.35,8.71a109.715,109.715,0,0,0,1.05,15.15,197.1932,197.1932,0,0,1-61.12-142.48,195.6963,195.6963,0,0,1,18.48-83.23,125.9315,125.9315,0,0,1-62.6-108.78c0-2.22.06-4.44.17-6.64a126.0182,126.0182,0,0,1,3.63-24.11,59.4408,59.4408,0,0,0,113.22-16.2,113.2938,113.2938,0,0,1-39.39-21.14,114.1571,114.1571,0,0,1-18.39-19.21c.1-.08.21-.15.31-.23a165.0319,165.0319,0,0,0,24.7,4.02,132.6024,132.6024,0,0,0,39.16-2.37c21.11-4.58,34.92-13.21,49.54-22.35,18.35-11.47,37.33-23.32,70.84-27.67a180.6618,180.6618,0,0,1,24.69-1.51l.02-.1a228.8158,228.8158,0,0,0-45.13-7.18q-11.94-.765-24.71-.57c-4.55.08-9.04.25-13.44.5l-.27-.54c11.77-5.78,23.75-10.98,35.76-15.55a366.7752,366.7752,0,0,1,60.24-17.43c37.89-7.35,72.23-6.89,102.64,1.3,4.12,1.11,8.16,2.38,12.13,3.77a123.7943,123.7943,0,0,1,45.37,24.51c1.25.96,2.5,1.93,3.73,2.93,1.63,1.51,3.22,3.08,4.77,4.69a123.5371,123.5371,0,0,1,16.2,20.82c1.3,2.04,2.53,4.13,3.71,6.25q1.815,3.3,3.44,6.69a123.2818,123.2818,0,0,1,11.94,51.1c1.6-2.75,3.11-5.56,4.48-8.44.1-.2.19-.4.29-.6.43-.93.85-1.86,1.26-2.8.14-.32.28-.63.41-.95.39-.92.77-1.84,1.14-2.77.11-.27.21-.56.32-.83q1.065-2.7751,1.99-5.6c.09-.29.19-.57.28-.85.25-.79.47-1.58.71-2.37.17-.59.35-1.19.51-1.79.2-.73.39-1.47.58-2.21.18-.69.34-1.4.51-2.1.15-.67.31-1.35.46-2.03.2-.95.38-1.91.56-2.88.11-.57.22-1.15.32-1.73.21-1.25.4-2.51.57-3.77.07-.52.13-1.05.19-1.57.12-.97.23-1.94.32-2.92.05-.55.1-1.09.14-1.64.08-1.02.15-2.04.2-3.06.03-.48.06-.97.07-1.45.06-1.5.1-3,.1-4.51,0-.42-.01-.83-.01-1.25a113.9738,113.9738,0,0,0-1.33-16.21,123.3417,123.3417,0,0,1,15.73-2.94,124.4021,124.4021,0,0,1,139.34,123.44,123.7276,123.7276,0,0,1-25.01,74.71A196.0132,196.0132,0,0,1,681.6593,375.4888Z"/>
    </g>
    <path id="oHair" class="cls-2" d="M634.8,248.1351A124.2807,124.2807,0,0,0,535.463,49.0841a125.035,125.035,0,0,0-14.9973.9071A123.5166,123.5166,0,0,0,504.7343,52.93a113.4724,113.4724,0,0,1,1.3316,16.2093c.0045.4156.0158.8294.0158,1.2459,0,1.5128-.0383,3.0166-.0976,4.515-.0191.4835-.05.9641-.075,1.446q-.08,1.5343-.1987,3.0583-.0655.825-.1422,1.6467c-.0918.9753-.2,1.946-.3162,2.9142-.0632.5243-.12,1.05-.19,1.5725q-.2554,1.8981-.5749,3.7755c-.0982.5789-.2085,1.1534-.3155,1.7293-.1785.963-.3626,1.924-.5654,2.8784-.1448.68-.3033,1.3545-.46,2.03q-.2447,1.0541-.5068,2.1014-.28,1.1073-.58,2.2069c-.1645.6-.3393,1.1957-.5135,1.7919-.2312.79-.4591,1.5811-.7069,2.3636-.09.285-.19.5654-.2828.8493q-.9228,2.8344-1.9886,5.6023c-.1068.2776-.2082.5577-.3172.8342-.3665.9292-.75,1.85-1.14,2.7672-.135.3175-.27.6349-.408.9511q-.615,1.4094-1.2639,2.8c-.0936.2-.191.3975-.2858.5964-1.3743,2.8853-2.88,5.6951-4.4836,8.4412a123.1977,123.1977,0,0,0-11.9432-51.094q-1.62-3.4027-3.439-6.6891-1.762-3.1866-3.7032-6.2568a123.9879,123.9879,0,0,0-16.2049-20.82q-2.3256-2.41-4.7656-4.6917c-1.229-1.0007-2.4829-1.9656-3.7373-2.9292a123.8624,123.8624,0,0,0-45.365-24.51c-3.9732-1.3912-8.0111-2.6572-12.1294-3.766-30.4065-8.1864-64.7532-8.6473-102.6364-1.3055A367.0371,367.0371,0,0,0,226.502,22.6263c-12.0082,4.5706-23.9893,9.7735-35.7587,15.5506l.2662.5422q6.6015-.3739,13.44-.4963,12.7845-.2123,24.7053.5649a228.5746,228.5746,0,0,1,45.1376,7.1846l-.0195.0954a180.7283,180.7283,0,0,0-24.692,1.5105C216.068,51.9239,197.09,63.7823,178.736,75.25c-14.6211,9.1358-28.4312,17.7647-49.5371,22.3447a132.3506,132.3506,0,0,1-39.1556,2.37,164.4354,164.4354,0,0,1-24.7047-4.0158c-.1017.0773-.2071.15-.3085.2273a114.2644,114.2644,0,0,0,18.394,19.2151A113.1981,113.1981,0,0,0,122.81,136.5259,59.4654,59.4654,0,0,1,9.5936,152.7308a125.3448,125.3448,0,0,0-3.6305,24.1114q-.1722,3.298-.1749,6.6384A125.9487,125.9487,0,0,0,68.3873,292.2617,196.5522,196.5522,0,0,0,94.0231,499.5533,198.6306,198.6306,0,0,0,111.03,517.9708a110.1378,110.1378,0,0,1-1.0513-15.15c0-2.9328.1239-5.8369.351-8.7124a109.9982,109.9982,0,0,1,55.3713-86.748,65.4931,65.4931,0,0,1-40.8954-84.6737,140.7048,140.7048,0,0,0,44.2337,19.8529l.5742.124a489.4767,489.4767,0,0,0,50.07,5.9805q4.3044.25,8.7656.2461a213.8251,213.8251,0,0,0,23.3236-1.3872c5.3555-.592,10.7272-1.3488,16.039-2.2251,38.5847-6.365,73.9511-18.9842,76.0344-19.7344,35.2583-12.7041,59.5254-25.4922,80.936-36.7764,29.0694-15.3193,50.0723-26.3877,82.5967-28.1191,10.2923-.5454,22.0847-.4348,34.9583,3.1316a88.8226,88.8226,0,0,1,15.3547,5.8225,94.5039,94.5039,0,0,1,32.0979,26.08l.0083-.0054c1.5049,1.7229,3.0681,3.63,4.6489,5.7146,1.41,1.86,2.8348,3.8615,4.2458,6.0182.0448.0685.0836.1347.1281.203a65.5564,65.5564,0,0,1,6.1922,10.86c.04.09.0787.18.1186.27a65.5659,65.5659,0,0,1-38.7167,88.4309,110.06,110.06,0,0,1,55.6328,85.9885q.4186,4.7747.4234,9.6587a110.2575,110.2575,0,0,1-.9108,14.1494,198.6242,198.6242,0,0,0,16.829-18.4682A196.49,196.49,0,0,0,634.8,248.1351Zm.6642,227.3078a125.7826,125.7826,0,0,0-39.3536-66.6271A81.2775,81.2775,0,0,0,612.248,298.9072l.0127-.0064-.166-.2188q-1.6356-2.3414-3.4309-4.5574l-3.243-4.35-.002.0042q-1.9371-2.6511-4.0069-5.1676l-.17-.2236.0089.0247a110.2565,110.2565,0,0,0-36.5344-29.1858c-22.3359-10.9141-42.8271-11.375-58.1884-10.5557-36.0279,1.917-59.4952,14.2842-89.2051,29.9414-20.9483,11.04-44.6914,23.5518-78.899,35.878-.49.1755-35.07,12.5084-72.1823,18.7966-5.27.8929-10.59,1.6617-15.8714,2.2588a177.2965,177.2965,0,0,1-29.7558,1.1252,474.19,474.19,0,0,1-47.9151-5.7109,124.7832,124.7832,0,0,1-53-28.6193,81.3,81.3,0,0,0,16.224,110.8439,125.7481,125.7481,0,0,0-39.1545,67.2726A180.62,180.62,0,0,1,82.69,299.4423q3.399-7.3064,7.41-14.2537a110.1994,110.1994,0,0,1-68.0293-93.8639A75.42,75.42,0,0,0,139.36,128.5529c0-1.54-.0608-3.0665-.1523-4.5843a96.45,96.45,0,0,1-16.5171-4.3259c-2.9944-1.0756-5.9148-2.3053-8.7657-3.6582a141.8342,141.8342,0,0,0,18.6675-2.7529c23.8286-5.1709,39.4834-14.9532,54.6226-24.4121,17.6762-11.045,34.372-21.4776,64.4238-25.3741a162.2094,162.2094,0,0,1,28.483-1.1787c2.7755.13,5.4435.3289,7.9989.5791a138.5829,138.5829,0,0,1,31.5855,6.6553q5.6029,1.9562,11.0424,4.4216A143.3083,143.3083,0,0,1,375.5953,105.94l1.3643-1.293a148.9993,148.9993,0,0,0-20.5317-28.543,145.0809,145.0809,0,0,0-17.3331-15.9453A158.7928,158.7928,0,0,0,304.016,39.5a185.1834,185.1834,0,0,0-17.7235-6.5713c-.8068-.2543-1.6029-.5211-2.4174-.7664Q274.17,29.24,263.7214,27.18a304.9552,304.9552,0,0,1,45.1166-9.2531q2.1982-.2714,4.41-.5039c23.5964-2.5027,48.2113-1.78,71.9432,4.57,3.6446.9752,7.265,2.0991,10.861,3.3472a143.134,143.134,0,0,1,40.786,21.8914A107.8279,107.8279,0,0,1,463.884,176.33a118.6856,118.6856,0,0,0,10.8611-7.4286l.0016-.0012c2.0418-1.5683,4.1107-3.2507,6.1943-5.09a119.2356,119.2356,0,0,0,24.83-30.69,128.2556,128.2556,0,0,0,16.3109-62.7353c0-1.495-.0349-2.9817-.0856-4.4646A108.3753,108.3753,0,0,1,643.8082,173.43a107.7515,107.7515,0,0,1-20.0522,62.7275,109.18,109.18,0,0,1-10.2692,12.365q5.626,5.7038,10.7468,11.8833a180.5512,180.5512,0,0,1,11.2309,215.0373Z"/>
    <g id="sMustache">
      <path class="cls-3" d="M657.1293,678.9287c0,64.02-53.49,116.1-119.23,116.1a120.19,120.19,0,0,1-95.99-47.32h-152.26a120.1707,120.1707,0,0,1-95.98,47.32c-65.75,0-119.23-52.08-119.23-116.1,0-1.45.03-2.88.09-4.32l.03-.81c.06-1.38.15-2.76.26-4.13.02-.25.04-.5.07-.75.12-1.38.26-2.76.43-4.13,0-.04.01-.09.01-.13.18-1.41.39-2.81.62-4.2l.12-.72c.24-1.37.49-2.73.78-4.08.04-.17.08-.35.11-.52.3-1.39.62-2.76.96-4.12a.2348.2348,0,0,0,.02-.08c.36-1.39.74-2.77,1.15-4.14.05-.18.1-.35.16-.52.41-1.37.84-2.73,1.3-4.07a1.5817,1.5817,0,0,0,.07-.2q1.455-4.185,3.22-8.24c.04-.09.08-.19.12-.28a116.1071,116.1071,0,0,1,6.11-11.97.5582.5582,0,0,0,.05-.08,114.8141,114.8141,0,0,1,7.53-11.25,94.6549,94.6549,0,0,0-2.87,33.66c2.2,21.69,12.17,41.64,28.33,55.33.06.06.13.11.19.17.21.19.42.39.64.58.27.24.56.48.84.71.5.43,1.01.85,1.52,1.26.09.07.17.14.25.2a1.0756,1.0756,0,0,1,.11.09c.02.02.05.03.07.05.54.43,1.09.84,1.64,1.26.13.09.26.18.39.28a63.8412,63.8412,0,0,0,5.63,3.66c.02.01.04.03.06.04h.01c.36.21.71.41,1.07.61.13.07.26.14.39.22.1.05.2.11.3.16v-.01c.09.05.19.09.28.14.88.47,1.78.91,2.69,1.34.18.08.35.17.53.25,1.01.46,2.03.9,3.06,1.3a1.5532,1.5532,0,0,0,.19.08c1.11.44,2.24.85,3.39,1.22.16.05.32.09.47.14.94.3,1.88.58,2.84.83.12.04.24.08.37.11a90.4717,90.4717,0,0,0,38.07,2.92l-.01.01a107.5732,107.5732,0,0,0,11.53-2.04c2.88-.59,5.55-1.29,8.05-2.06,0-.01,0-.01.01-.01a83.9573,83.9573,0,0,0,18.43-8.34c.79-.47,1.56-.95,2.33-1.43,2-1.23,3.98-2.47,5.96-3.75,3.96-2.54,7.98-5.12,12.38-7.53a90.79,90.79,0,0,1,26.85-9.78,118.1128,118.1128,0,0,1,23.24-2.16,107.5086,107.5086,0,0,1,15.99,1.24c.78.12,1.56.25,2.33.39,17.35,3.17,30.78,10.9,38.86,22.35,5.53,7.83,8.57,17.24,9.08,28.03h5.28c.52-10.79,3.56-20.2,9.09-28.03,8.07-11.45,21.51-19.18,38.86-22.35.77-.14,1.54-.27,2.33-.39a107.3729,107.3729,0,0,1,15.98-1.24,118.1429,118.1429,0,0,1,23.25,2.16,90.79,90.79,0,0,1,26.85,9.78c4.4,2.41,8.41,4.99,12.38,7.53,1.98,1.28,3.96,2.52,5.95,3.75.78.48,1.55.96,2.34,1.43a83.9573,83.9573,0,0,0,18.43,8.34.01.01,0,0,1,.01.01c2.5.77,5.16,1.47,8.04,2.06a107.73,107.73,0,0,0,11.54,2.04l-.01-.01a90.4717,90.4717,0,0,0,38.07-2.92c.13-.03.25-.07.37-.11.95-.25,1.9-.53,2.83-.83.16-.05.32-.09.48-.14,1.14-.37,2.27-.78,3.39-1.22.06-.02.12-.05.19-.08,1.03-.4,2.05-.84,3.06-1.3.17-.08.35-.17.52-.25.92-.43,1.81-.87,2.7-1.34.09-.05.19-.09.28-.14v.01c.1-.05.2-.11.3-.16.13-.08.25-.15.38-.22.36-.2.72-.4,1.07-.61h.02a.2209.2209,0,0,0,.05-.04,64.0037,64.0037,0,0,0,5.64-3.66c.13-.1.26-.19.39-.28.55-.42,1.1-.83,1.64-1.26.02-.02.04-.03.06-.05a1.05,1.05,0,0,0,.11-.09,2.4607,2.4607,0,0,0,.25-.2q.78-.615,1.53-1.26c.28-.23.56-.47.84-.71.22-.19.43-.39.64-.58.06-.06.13-.11.19-.17,16.16-13.69,26.13-33.64,28.32-55.33a94.3923,94.3923,0,0,0-2.86-33.66,116.631,116.631,0,0,1,7.53,11.25.2177.2177,0,0,0,.05.08,116.1071,116.1071,0,0,1,6.11,11.97c.04.09.08.19.12.28,1.17,2.7,2.25,5.44,3.21,8.24.02.06.05.13.07.2.46,1.34.9,2.7,1.31,4.07.05.17.1.34.16.52.4,1.37.79,2.75,1.14,4.14a.2359.2359,0,0,1,.02.08c.35,1.36.67,2.73.96,4.12.04.17.08.35.12.52.28,1.35.54,2.71.77,4.08l.12.72c.23,1.39.44,2.79.62,4.2.01.04.01.09.02.13.17,1.37.31,2.75.43,4.13.02.25.05.5.07.75.11,1.37.2,2.75.26,4.13l.03.81C657.0893,676.0487,657.1293,677.4788,657.1293,678.9287Z"/>
    </g>
    <path id="oMustache" class="cls-2" d="M657.0381,674.6112c-.01-.2707-.0189-.5417-.031-.812q-.0931-2.0757-.26-4.1322c-.02-.2487-.0445-.4965-.0663-.7448-.122-1.3835-.2625-2.7619-.4341-4.1313-.0055-.044-.01-.0883-.0151-.1321-.1784-1.41-.39-2.81-.62-4.2043-.0392-.2376-.0776-.4756-.1183-.7127q-.3523-2.0529-.7761-4.082c-.0368-.1751-.0767-.3491-.1142-.5241-.2971-1.3822-.6143-2.7574-.9616-4.1212l-.0179-.0735c-.3555-1.3925-.7418-2.7734-1.1486-4.1456-.0515-.1737-.1026-.3473-.1549-.52q-.6182-2.0491-1.3081-4.068c-.0232-.0675-.0478-.1343-.0711-.2017q-1.4484-4.1908-3.2115-8.2353-.0618-.1424-.1241-.2844a114.6089,114.6089,0,0,0-6.1079-11.9624l-.05-.0856a116.3514,116.3514,0,0,0-7.5285-11.2477,94.45,94.45,0,0,1,2.8643,33.658c-2.1976,21.6946-12.1674,41.64-28.3273,55.3319-.0609.056-.1249.1085-.186.1643-.2139.1941-.4245.39-.6426.5818-.2733.24-.5564.4784-.8389.7171-.5.4281-1.0118.8416-1.5249,1.2543-.0842.0675-.1659.138-.25.2052-.0371.0293-.0734.0587-.1107.088-.02.0163-.0419.0314-.0624.0476q-.8118.6418-1.6453,1.2558c-.1279.0945-.2566.1876-.3852.2812a63.64,63.64,0,0,1-5.6354,3.667c-.0191.011-.0375.0231-.0567.0341l-.0025.0014-.0107.006q-.533.3067-1.0719.6033c-.129.0715-.2558.1467-.3857.217-.1006.0554-.1966.1126-.2978.1676l-.0023-.0111c-.0907.0484-.1856.09-.2765.1375q-1.33.7015-2.6961,1.341c-.1765.0828-.3512.168-.5285.2491q-1.51.69-3.0593,1.3056c-.0634.0252-.1253.0532-.1889.0782q-1.6735.6543-3.3911,1.2163c-.1566.0512-.3169.0938-.474.1439q-1.4026.4455-2.8316.8287c-.1247.0332-.2456.0759-.3706.1084a90.6218,90.6218,0,0,1-38.0689,2.923l.0061.0049a106.0066,106.0066,0,0,1-11.5354-2.039c-2.88-.5923-5.5413-1.2888-8.0442-2.0641l-.007-.002.0057.0017a84.4972,84.4972,0,0,1-18.4406-8.346c-.7882-.4655-1.5566-.9494-2.3321-1.4262-1.9965-1.2277-3.9729-2.4765-5.9569-3.75-3.9632-2.5444-7.9768-5.1213-12.381-7.5336a90.86,90.86,0,0,0-26.849-9.7779,117.6926,117.6926,0,0,0-23.2448-2.1566,108.2487,108.2487,0,0,0-15.9839,1.2335q-1.1753.1834-2.3284.3928c-17.3492,3.1729-30.7881,10.9-38.8643,22.3467-5.53,7.8367-8.5669,17.2473-9.081,28.0361h-5.2828c-.5141-10.7888-3.5514-20.1994-9.081-28.0361-8.0762-11.4463-21.5152-19.1738-38.8643-22.3467q-1.1517-.2106-2.3284-.3928a108.249,108.249,0,0,0-15.984-1.2335,117.6916,117.6916,0,0,0-23.2447,2.1566,90.86,90.86,0,0,0-26.849,9.7779c-4.4042,2.4123-8.4179,4.9892-12.381,7.5336-1.9841,1.2738-3.96,2.5226-5.9569,3.75-.7755.4768-1.5439.9607-2.3322,1.4262a84.4929,84.4929,0,0,1-18.4406,8.346l.0058-.0017-.007.002c-2.5029.7753-5.1644,1.4718-8.0442,2.0641a106.0108,106.0108,0,0,1-11.5354,2.039l.0061-.0049a90.6218,90.6218,0,0,1-38.0689-2.923c-.125-.0325-.2459-.0752-.3706-.1084q-1.43-.3816-2.8316-.8287c-.1572-.05-.3174-.0927-.474-.1439q-1.718-.5605-3.3911-1.2163c-.0636-.025-.1255-.053-.189-.0782q-1.5509-.6121-3.0592-1.3056c-.1773-.0811-.352-.1663-.5285-.2491q-1.3662-.64-2.6961-1.341c-.0909-.0479-.1858-.0891-.2765-.1375l-.0023.0111c-.1012-.055-.1973-.1122-.2978-.1676-.13-.07-.2567-.1455-.3857-.217q-.5394-.2967-1.0719-.6033l-.0107-.006-.0026-.0014c-.0191-.011-.0376-.0231-.0567-.0341a63.6534,63.6534,0,0,1-5.6353-3.667c-.1286-.0936-.2574-.1867-.3852-.2812q-.8328-.6156-1.6453-1.2558c-.02-.0162-.0419-.0313-.0624-.0476-.0373-.0293-.0736-.0587-.1108-.088-.0844-.0672-.166-.1377-.25-.2052-.5131-.4127-1.0251-.8262-1.5249-1.2543-.2825-.2387-.5656-.4773-.8389-.7171-.2181-.1916-.4287-.3877-.6426-.5818-.0612-.0558-.1251-.1083-.186-.1643-16.16-13.6923-26.13-33.6373-28.3273-55.3319a94.45,94.45,0,0,1,2.8643-33.658,116.3514,116.3514,0,0,0-7.5285,11.2477l-.05.0856A114.6275,114.6275,0,0,0,83.96,633.4855q-.0624.142-.1241.2844-1.7614,4.0444-3.2129,8.2393c-.0227.0654-.0465.13-.069.1958q-.6933,2.0181-1.3089,4.07c-.0522.1732-.1033.3468-.1548.52-.4068,1.3722-.7931,2.7531-1.1486,4.1456l-.018.0735c-.3472,1.3638-.6644,2.739-.9615,4.1212-.0375.175-.0775.349-.1142.5241q-.4257,2.028-.7761,4.082c-.0407.2371-.0791.4751-.1183.7127-.23,1.394-.4415,2.7942-.62,4.2043-.0055.0438-.01.0881-.0151.1321-.1717,1.3694-.3121,2.7478-.4341,4.1313-.0219.2483-.046.4961-.0663.7448q-.1675,2.0562-.26,4.1322c-.012.27-.0207.5413-.0309.812-.0541,1.4329-.0905,2.87-.0905,4.3157,0,64.0185,53.4859,116.1006,119.2286,116.1006a120.1846,120.1846,0,0,0,95.9876-47.3155h152.26A120.1846,120.1846,0,0,0,537.9,795.0275c65.7427,0,119.2285-52.0821,119.2285-116.1006C657.1285,677.4813,657.0922,676.0441,657.0381,674.6112ZM343.6475,731.712H281.321q-1.3857,2.1566-2.8808,4.2376a101.8661,101.8661,0,0,1-9.8836,11.7624,103.8279,103.8279,0,0,1-33.4553,22.8824q-2.3789,1.0161-4.8186,1.9187t-4.9362,1.6857a105.6457,105.6457,0,0,1-31.6813,4.8287c-56.9205,0-103.2286-44.9053-103.2286-100.1006,0-.6272.0127-1.2517.0246-1.8762A79.6084,79.6084,0,0,0,162.36,731.8343a125.0539,125.0539,0,0,0,34.7418-.3752c21.831-3.3389,34.6455-11.5654,45.9511-18.8242,3.6523-2.3449,7.2286-4.6409,11.05-6.7492a75.6982,75.6982,0,0,1,22.6415-8.3309c.2184-.0432.4419-.0807.6615-.1226a101.0073,101.0073,0,0,1,18.0325-1.7473,89.946,89.946,0,0,1,16.0147,1.2718c12.3149,2.1521,23.3294,7.1506,29.533,15.9438,3.6109,5.1174,5.6592,11.4293,6.13,18.8115ZM537.9,779.0275a105.6457,105.6457,0,0,1-31.6813-4.8287q-2.4963-.7835-4.9362-1.6857t-4.8186-1.9187a103.8279,103.8279,0,0,1-33.4553-22.8824A101.8661,101.8661,0,0,1,453.125,735.95q-1.4943-2.0806-2.8809-4.2376H384.4488c.47-7.3822,2.5185-13.6941,6.1294-18.8115,6.2037-8.7932,17.2182-13.7917,29.5331-15.9438a89.946,89.946,0,0,1,16.0147-1.2718,101.0061,101.0061,0,0,1,18.0324,1.7473c.22.0419.4432.0794.6615.1226a75.6979,75.6979,0,0,1,22.6416,8.3309c3.8218,2.1083,7.3981,4.4043,11.05,6.7492,11.3057,7.2588,24.12,15.4853,45.9512,18.8242a125.0539,125.0539,0,0,0,34.7418.3752,79.6085,79.6085,0,0,0,71.8992-54.7836c.0119.6245.0245,1.249.0245,1.8762C641.1285,734.1222,594.82,779.0275,537.9,779.0275Z"/>
    <path id="nose" class="cls-2" d="M427.5785,665.5988a13.1573,13.1573,0,0,1-2.65,4.64c-3.3,3.7-7.94,4.42-11.06,4.87-3.57.51-5.48.11-8.36.03-1.74-.05-10.35-.3-17.08,3.29-8.74,4.66-8.71,12.83-17.98,15.6a14.5163,14.5163,0,0,1-9.33,0c-9.27-2.77-9.24-10.94-17.98-15.6-6.73-3.59-15.35-3.34-17.08-3.29-2.88.08-4.79.48-8.36-.03-3.12-.45-7.76-1.17-11.06-4.87a13.2083,13.2083,0,0,1-2.66-4.64c-.22-1.03-1.5-7.24,2.22-11.06a10.1751,10.1751,0,0,1,6.25-2.77c9.72-1.27,18.06,5.08,26.74,8.9a61.4139,61.4139,0,0,0,26.59,4.93,61.4314,61.4314,0,0,0,26.6-4.93c8.68-3.82,17.01-10.17,26.74-8.9a10.1751,10.1751,0,0,1,6.25,2.77C429.0886,658.3588,427.8085,664.5687,427.5785,665.5988Z"/>
    <path id="glasses" class="cls-2" d="M644.0156,469.1923a7.9392,7.9392,0,0,0-7.7486-7.9342v-.01H95.2983v.1217a7.9364,7.9364,0,0,0,0,15.8684v.01c-.0738,1.9974-.12,4.0028-.12,6.0205,0,78.1191,55.8735,141.6728,124.5512,141.6728,64.8581,0,118.2867-56.6831,124.0309-128.7837,1.9964-7.2321,10.7522-12.7912,21.0053-13.1225,10.9071-.3767,20.91,5.4773,23.0443,13.1855,5.77,72.0706,59.1867,128.7207,124.0255,128.7207,68.6782,0,124.5517-63.5537,124.5517-141.6728,0-2.0177-.0463-4.0231-.12-6.0205v-.1217A7.9393,7.9393,0,0,0,644.0156,469.1923ZM327.9083,493.6486c-.0227.3189-.0489.6367-.0735.955-4.9663,64.0039-51.55,114.3379-108.1054,114.3379-59.8554,0-108.5512-56.3769-108.5512-125.6728q0-3.0279.1271-6.0205H328.1541q.1225,2.9934.1271,6.0205Q328.2812,488.5117,327.9083,493.6486ZM511.8354,608.9415c-56.56,0-103.1473-50.3432-108.1063-114.3554-.0236-.305-.0486-.6094-.07-.9151q-.3662-5.1471-.3747-10.4023,0-3.0279.1272-6.0205H620.26q.1225,2.9934.1271,6.0205C620.3871,552.5646,571.6909,608.9415,511.8354,608.9415Z"/>
  </g>
</svg>
