<svg id="Layer_1" data-name="Layer 1" xmlns="http://www.w3.org/2000/svg" width="2500" height="2500" viewBox="0 0 2500 2500">
  <defs>
    <style>
      .cls-1 {
        fill: #161614;
      }
    </style>
  </defs>
  <g>
    <path class="cls-1" d="M1250.0048,42.5C566.3274,42.5,11.9379,596.7924,11.9379,1280.5669c0,547.02,354.7433,1011.0969,846.6686,1174.8066,61.8718,11.4577,84.5931-26.8578,84.5931-59.5608,0-29.5182-1.1555-127.0548-1.68-230.5045-344.441,74.8928-417.12-146.0765-417.12-146.0765-56.3176-143.1053-137.4637-181.1489-137.4637-181.1489-112.3247-76.8445,8.4671-75.2715,8.4671-75.2715C519.7294,1771.55,585.1938,1890.4,585.1938,1890.4c110.4216,189.276,289.6283,134.5507,360.2779,102.9256,11.1082-80.0295,43.2-134.6382,78.6021-165.5547-274.9858-31.3146-564.07-137.4735-564.07-611.8627,0-135.1624,48.3652-245.6131,127.5693-332.3132-12.856-31.1883-55.23-157.107,11.9918-327.6428,0,0,103.9643-33.276,340.557,126.9091,98.75-27.44,204.6663-41.19,309.8833-41.6557,105.217.4661,211.2108,14.2154,310.1552,41.6557,236.311-160.1851,340.13-126.9091,340.13-126.9091,67.3871,170.5358,24.9935,296.4545,12.1374,327.6429,79.3789,86.7,127.4139,197.1411,127.4139,332.3132,0,475.5156-289.6283,580.2276-565.3132,610.8723,44.4036,38.4223,83.9716,113.7714,83.9716,229.2713,0,165.6517-1.437,298.979-1.437,339.7608,0,32.9459,22.2843,71.5526,85.0494,59.3957,491.6536-163.8941,845.95-627.8064,845.95-1174.6415C2488.0621,596.7924,1933.75,42.5,1250.0048,42.5"/>
    <path class="cls-1" d="M475.6365,1806.1567c-2.7188,6.1464-12.4093,7.9913-21.2163,3.7773-8.9817-4.0394-14.0308-12.4287-11.1179-18.6043,2.67-6.3308,12.3608-8.0981,21.3231-3.8451,9.0011,4.03,14.128,12.4967,11.0111,18.6723m60.9008,54.3366c-5.9037,5.4764-17.4488,2.9325-25.2847-5.7192-8.0981-8.6322-9.6129-20.1675-3.6218-25.7313,6.0881-5.4667,17.2837-2.913,25.4012,5.7289,8.0981,8.7292,9.6711,20.1967,3.4956,25.7313m41.7916,69.5136c-7.5932,5.2725-20.0025.33-27.6636-10.681-7.5835-11.0013-7.5835-24.2069.165-29.4988,7.69-5.2919,19.9054-.5339,27.6734,10.39,7.5737,11.1956,7.5737,24.4011-.1845,29.8m70.6593,80.5148c-6.7872,7.4767-21.2357,5.4764-31.8195-4.7385-10.8169-9.9819-13.8367-24.1487-7.03-31.635,6.8649-7.4961,21.4007-5.3889,32.0623,4.7385,10.7489,9.9624,14.0308,24.2361,6.7969,31.635m91.3026,27.1879c-2.9809,9.69-16.905,14.0988-30.9261,9.9818-14.0018-4.2432-23.168-15.6038-20.3424-25.4012,2.913-9.7585,16.8953-14.3513,31.0233-9.943,13.9824,4.2238,23.168,15.497,20.2549,25.3624m103.9256,11.5256c.35,10.2149-11.5452,18.682-26.2655,18.8664-14.8076.3205-26.78-7.9427-26.9354-17.9829,0-10.3119,11.6228-18.7013,26.4208-18.9441,14.72-.2913,26.78,7.9136,26.78,18.0605m102.09-3.913c1.7672,9.9625-8.4671,20.1968-23.0806,22.9155-14.3707,2.6218-27.6733-3.5247-29.5085-13.4-1.7866-10.2148,8.6418-20.4393,22.9834-23.09,14.6426-2.5439,27.7413,3.447,29.6057,13.5745"/>
  </g>
</svg>
