<svg id="Layer_1" data-name="Layer 1" xmlns="http://www.w3.org/2000/svg" width="2500" height="2500" viewBox="0 0 2500 2500">
  <defs>
    <style>
      .cls-1 {
        fill: #161614;
      }
    </style>
  </defs>
  <path class="cls-1" d="M1249.9961,30C577.2891,30,30.002,577.2881,30.002,1249.9971,30.002,1922.709,577.2891,2470,1249.9961,2470c672.7114,0,1220.0019-547.291,1220.0019-1220.0029C2469.998,577.2881,1922.7075,30,1249.9961,30ZM2067.082,570.5146a1058.2594,1058.2594,0,0,1,243.209,601.1006H1949.1968a2096.2743,2096.2743,0,0,0-27.6817-274.7021c-14.8784-87.8369-35.42-172.5488-61.1-252.0078A2104.8009,2104.8009,0,0,0,2067.082,570.5146ZM1860.4146,1855.0937c25.68-79.46,46.2221-164.1728,61.1005-252.01a2096.3049,2096.3049,0,0,0,27.6817-274.7041H2310.291a1058.2608,1058.2608,0,0,1-243.2065,601.1025A2105.729,2105.729,0,0,0,1860.4146,1855.0937Zm-210.5767,107.9522c-9.5859,20.3662-19.0142,39.0215-28.64,56.6807-43.499,79.8027-92.3281,144.958-145.13,193.6552-47.2383,43.5664-96.8472,73.209-147.69,88.2823V1923.6006A1968.9563,1968.9563,0,0,1,1649.8379,1963.0459ZM1766.0415,1582.44c-14.0615,81.5283-33.4082,159.8008-57.5425,232.8428a2124.1109,2124.1109,0,0,0-380.1206-48.5811V1328.38h463.9229A1932.0622,1932.0622,0,0,1,1766.0415,1582.44Zm-7.1953,512.3184c15.4785-28.3965,30.7681-59.5781,45.52-92.8242,48.6382,14.4033,97.0332,30.8134,144.2549,48.9131A1060.2013,1060.2013,0,0,1,1676.022,2224.07,1045.2209,1045.2209,0,0,0,1758.8462,2094.7588Zm45.5176-1596.6973c-14.7525-33.248-30.042-64.4306-45.5176-92.8213a1045.0853,1045.0853,0,0,0-82.8247-129.31,1060.1876,1060.1876,0,0,1,272.5923,173.2168C1901.3672,467.2578,1852.9775,483.668,1804.3638,498.0615Zm-12.0625,673.5537H1328.3784V733.2939a2124.17,2124.17,0,0,0,380.12-48.583c24.1343,73.042,43.481,151.3145,57.543,232.8428A1932.0793,1932.0793,0,0,1,1792.3013,1171.6152Zm-463.9229-595.22V198.334c50.8433,15.0742,100.4522,44.7158,147.69,88.2812,52.8018,48.6963,101.63,113.8506,145.1294,193.6534,9.6211,17.65,19.0484,36.3037,28.6377,56.6757A1968.7078,1968.7078,0,0,1,1328.3784,576.3955Zm-1138.67,595.22A1058.2753,1058.2753,0,0,1,432.916,570.5146a2105.29,2105.29,0,0,0,206.6694,74.3877c-25.68,79.46-46.2216,164.1729-61.1008,252.0088a2096.2366,2096.2366,0,0,0-27.6816,274.7041ZM639.584,1855.0889A2104.5178,2104.5178,0,0,0,432.9114,1929.48a1058.2781,1058.2781,0,0,1-243.2031-601.1H550.803a2096.2576,2096.2576,0,0,0,27.6809,274.7021C593.3628,1690.9189,613.9043,1775.63,639.584,1855.0889Zm56.0508,146.8457c14.7485,33.2422,30.0378,64.4238,45.5193,92.8242a1045.1105,1045.1105,0,0,0,82.8271,129.3144,1060.196,1060.196,0,0,1-272.6025-173.2246C598.6072,2032.7471,647.0032,2016.3359,695.6348,2001.9346ZM707.6987,1328.38h463.9151v438.3222a2124.1684,2124.1684,0,0,0-380.1145,48.5831c-24.1338-73.042-43.48-151.3145-57.5415-232.8438A1932.2154,1932.2154,0,0,1,707.6987,1328.38Zm463.9151,595.2207v378.0635c-50.8413-15.0733-100.448-44.7149-147.6856-88.28-52.7993-48.6953-101.6269-113.8486-145.1264-193.6494-9.6248-17.6573-19.0535-36.3135-28.6426-56.6856A1969.0337,1969.0337,0,0,1,1171.6138,1923.6006ZM741.1541,405.24l0-.0009c-15.4771,28.3925-30.7664,59.5722-45.5173,92.8193-48.6133-14.3945-97.0037-30.8027-144.2517-48.9131A1060.2466,1060.2466,0,0,1,823.98,275.9268,1045.3009,1045.3009,0,0,0,741.1541,405.24Zm-7.1958,512.3135c14.0625-81.5283,33.4089-159.8008,57.5439-232.8428a2124.0336,2124.0336,0,0,0,380.1116,48.583v438.3213H707.6987A1932.1639,1932.1639,0,0,1,733.9583,917.5537Zm437.6555-719.22V576.3955a1968.6943,1968.6943,0,0,1-321.45-39.45c9.5847-20.3633,19.0117-39.0156,28.6384-56.6767,43.499-79.8028,92.3267-144.9581,145.1262-193.6534C1071.165,243.05,1120.772,213.4072,1171.6138,198.334Z"/>
</svg>
