<?xml version="1.0" encoding="utf-8"?>
<!-- Generator: Adobe Illustrator 25.0.0, SVG Export Plug-In . SVG Version: 6.00 Build 0)  -->
<svg version="1.1" id="Layer_1" xmlns="http://www.w3.org/2000/svg" xmlns:xlink="http://www.w3.org/1999/xlink" x="0px" y="0px"
	 viewBox="0 0 212.5 212.5" style="enable-background:new 0 0 212.5 212.5;" xml:space="preserve">
<style type="text/css">
	.st0{fill:#CCCCCC;}
</style>
<g>
	<path class="st0" d="M106.2,16.2c49.7,0,90,40.3,90,90s-40.3,90-90,90s-90-40.3-90-90c0,0,0,0,0,0C16.2,56.5,56.5,16.2,106.2,16.2
		 M106.2-0.2L106.2-0.2C47.4-0.2-0.2,47.4-0.2,106.2c0,0,0,0,0,0l0,0c0,58.7,47.6,106.4,106.4,106.4l0,0
		c58.7,0,106.4-47.6,106.4-106.4c0,0,0,0,0,0l0,0C212.5,47.4,164.9-0.2,106.2-0.2C106.2-0.2,106.2-0.2,106.2-0.2z"/>
	<polygon class="st0" points="86.9,160.2 43.6,116.9 60.9,99.5 86.9,125.5 151.5,60.9 168.8,78.2 	"/>
</g>
</svg>
