<svg id="Layer_1" data-name="Layer 1" xmlns="http://www.w3.org/2000/svg" width="212.5474" height="212.5474" viewBox="0 0 212.5474 212.5474">
  <defs>
    <style>
      .cls-1 {
        fill: #ccc;
      }
    </style>
  </defs>
  <g>
    <path class="cls-1" d="M106.1849,16.1858a89.9991,89.9991,0,1,1-89.9991,89.999,90.101,90.101,0,0,1,89.9991-89.999m0-16.3634h0A106.3624,106.3624,0,0,0-.1776,106.1848v0A106.3625,106.3625,0,0,0,106.1848,212.5474h0A106.3625,106.3625,0,0,0,212.5474,106.1849v0A106.3624,106.3624,0,0,0,106.1849-.1776Z"/>
    <polygon class="cls-1" points="86.857 160.183 43.551 116.876 60.908 99.52 86.857 125.47 151.462 60.865 168.818 78.222 86.857 160.183"/>
  </g>
</svg>
