<svg id="Calque_1" data-name="Calque 1" xmlns="http://www.w3.org/2000/svg" width="5.7699cm" height="3.9096cm" viewBox="0 0 163.5576 110.8237">
  <path d="M0,6.563v97.1929l50.459-48.61C34.7734,40.1582,12.4717,18.6167,0,6.563ZM74.3682,64.771a11.9492,11.9492,0,0,0,7.3134,2.8208c2.9434,0,5.7911-1.3511,8.4707-4.0122,6.1856-6.1523,48.05-45.9014,66.6914-63.58H6.7246C37.2559,29.5215,70.8184,61.815,74.3682,64.771Zm38.0537-9.5688,51.1357,49.2617V6.5816C150.748,18.7266,127.9053,40.4072,112.4219,55.2022Zm-15.4,14.7934c-4.4737,4.4522-9.7686,6.8067-15.3223,6.8067a21.3592,21.3592,0,0,1-13.5918-5.0567C67,70.8174,63.3486,67.419,57.26,61.6358L6.1982,110.8237H156.6289l-51.01-49.1254C101.0674,66.0513,98.2568,68.7759,97.0215,69.9956Z"/>
</svg>
