<svg id="Layer_1" data-name="Layer 1" xmlns="http://www.w3.org/2000/svg" width="212.5474" height="212.5474" viewBox="0 0 212.5474 212.5474">
  <defs>
    <style>
      .cls-1 {
        fill: #ccc;
      }
    </style>
  </defs>
  <path class="cls-1" d="M161.39,144.0276,123.63,106.2682l37.754-37.7539L144.0276,51.1577l-37.7539,37.754L68.5252,51.1632q-8.6869,8.67-17.3674,17.3456l37.7594,37.7594-37.7539,37.754q8.67,8.687,17.3455,17.3674l37.7649-37.7649,37.7594,37.7594Z"/>
  <path class="cls-1" d="M106.2737,16.2746a89.9991,89.9991,0,1,1-89.9991,89.9991v0a90.101,90.101,0,0,1,89.9991-89.999m0-16.3634h0A106.3624,106.3624,0,0,0-.0888,106.2735v0h0A106.3625,106.3625,0,0,0,106.2736,212.6362h0A106.3625,106.3625,0,0,0,212.6362,106.2738v0h0A106.3624,106.3624,0,0,0,106.2739-.0888Z"/>
</svg>
