<svg id="Layer_1" data-name="Layer 1" xmlns="http://www.w3.org/2000/svg" width="1400" height="1050" viewBox="0 0 1400 1050">
  <g>
    <path d="M1400,962.5a87.7522,87.7522,0,0,1-87.5,87.5H87.5A87.7522,87.7522,0,0,1,0,962.5H0A87.7522,87.7522,0,0,1,87.5,875h1225a87.7522,87.7522,0,0,1,87.5,87.5Z"/>
    <path d="M1400,525a87.7522,87.7522,0,0,1-87.5,87.5H87.5A87.7522,87.7522,0,0,1,0,525H0a87.7522,87.7522,0,0,1,87.5-87.5h1225A87.7522,87.7522,0,0,1,1400,525Z"/>
    <path d="M1400,87.5a87.7522,87.7522,0,0,1-87.5,87.5H87.5A87.7522,87.7522,0,0,1,0,87.5H0A87.7522,87.7522,0,0,1,87.5,0h1225A87.7522,87.7522,0,0,1,1400,87.5Z"/>
  </g>
</svg>
