<svg id="Layer_1" data-name="Layer 1" xmlns="http://www.w3.org/2000/svg" width="2490" height="2500" viewBox="0 0 2490 2500">
  <path d="M2305.9734,5H184.0266C82.4229,5,0,84.9133,0,183.3657V2316.6926C0,2415.1548,82.4326,2495,184.0266,2495H2305.9734C2407.616,2495,2490,2415.145,2490,2316.6633V183.3657C2490,84.9133,2407.616,5,2305.9734,5ZM756.6876,2088.7993H384.0825V967.7935H756.6876ZM570.4629,814.7655l-.0291-.01h-2.4122c-125.0544,0-205.9016-86.08-205.9016-193.6559,0-110.0172,83.2885-193.695,210.8134-193.695,127.4374,0,205.8822,83.6778,208.3138,193.7046C781.2472,728.6855,700.3709,814.7655,570.4629,814.7655Zm1529.813,1274.0338H1727.71V1489.1567c0-150.7133-53.9534-253.5034-188.744-253.5034-102.9554,0-164.2622,69.3213-191.1853,136.2886-9.8433,23.8981-12.2749,57.4451-12.2749,90.9044v625.953H962.93l-.01.0391s4.8924-1015.8424.0291-1121.006h372.5851v158.6758c49.5285-76.3682,138.1706-184.9957,335.81-184.9957,245.1386,0,428.9317,160.2255,428.9317,504.5362Z"/>
</svg>
